<?xml version="1.0" encoding="utf-8" standalone="no"?>
<!DOCTYPE svg PUBLIC "-//W3C//DTD SVG 1.1//EN"
  "http://www.w3.org/Graphics/SVG/1.1/DTD/svg11.dtd">
<svg xmlns:xlink="http://www.w3.org/1999/xlink" width="619.35275pt" height="242.786563pt" viewBox="0 0 619.35275 242.786563" xmlns="http://www.w3.org/2000/svg" version="1.1">
 <metadata>
  <rdf:RDF xmlns:dc="http://purl.org/dc/elements/1.1/" xmlns:cc="http://creativecommons.org/ns#" xmlns:rdf="http://www.w3.org/1999/02/22-rdf-syntax-ns#">
   <cc:Work>
    <dc:type rdf:resource="http://purl.org/dc/dcmitype/StillImage"/>
    <dc:date>2025-04-19T15:56:06.703388</dc:date>
    <dc:format>image/svg+xml</dc:format>
    <dc:creator>
     <cc:Agent>
      <dc:title>Matplotlib v3.9.2, https://matplotlib.org/</dc:title>
     </cc:Agent>
    </dc:creator>
   </cc:Work>
  </rdf:RDF>
 </metadata>
 <defs>
  <style type="text/css">*{stroke-linejoin: round; stroke-linecap: butt}</style>
 </defs>
 <g id="figure_1">
  <g id="patch_1">
   <path d="M 0 242.786563 
L 619.35275 242.786563 
L 619.35275 0 
L 0 0 
z
" style="fill: #ffffff"/>
  </g>
  <g id="axes_1">
   <g id="patch_2">
    <path d="M 42.190938 206.198125 
L 249.091351 206.198125 
L 249.091351 22.318125 
L 42.190938 22.318125 
z
" style="fill: #ffffff"/>
   </g>
   <g id="matplotlib.axis_1">
    <g id="xtick_1">
     <g id="line2d_1">
      <defs>
       <path id="m65f30659f8" d="M 0 0 
L 0 3.5 
" style="stroke: #000000; stroke-width: 0.8"/>
      </defs>
      <g>
       <use xlink:href="#m65f30659f8" x="75.106912" y="206.198125" style="stroke: #000000; stroke-width: 0.8"/>
      </g>
     </g>
     <g id="text_1">
      <!-- 200 -->
      <g transform="translate(66.517537 220.036719) scale(0.09 -0.09)">
       <defs>
        <path id="DejaVuSans-32" d="M 1228 531 
L 3431 531 
L 3431 0 
L 469 0 
L 469 531 
Q 828 903 1448 1529 
Q 2069 2156 2228 2338 
Q 2531 2678 2651 2914 
Q 2772 3150 2772 3378 
Q 2772 3750 2511 3984 
Q 2250 4219 1831 4219 
Q 1534 4219 1204 4116 
Q 875 4013 500 3803 
L 500 4441 
Q 881 4594 1212 4672 
Q 1544 4750 1819 4750 
Q 2544 4750 2975 4387 
Q 3406 4025 3406 3419 
Q 3406 3131 3298 2873 
Q 3191 2616 2906 2266 
Q 2828 2175 2409 1742 
Q 1991 1309 1228 531 
z
" transform="scale(0.015625)"/>
        <path id="DejaVuSans-30" d="M 2034 4250 
Q 1547 4250 1301 3770 
Q 1056 3291 1056 2328 
Q 1056 1369 1301 889 
Q 1547 409 2034 409 
Q 2525 409 2770 889 
Q 3016 1369 3016 2328 
Q 3016 3291 2770 3770 
Q 2525 4250 2034 4250 
z
M 2034 4750 
Q 2819 4750 3233 4129 
Q 3647 3509 3647 2328 
Q 3647 1150 3233 529 
Q 2819 -91 2034 -91 
Q 1250 -91 836 529 
Q 422 1150 422 2328 
Q 422 3509 836 4129 
Q 1250 4750 2034 4750 
z
" transform="scale(0.015625)"/>
       </defs>
       <use xlink:href="#DejaVuSans-32"/>
       <use xlink:href="#DejaVuSans-30" x="63.623047"/>
       <use xlink:href="#DejaVuSans-30" x="127.246094"/>
      </g>
     </g>
    </g>
    <g id="xtick_2">
     <g id="line2d_2">
      <g>
       <use xlink:href="#m65f30659f8" x="122.129734" y="206.198125" style="stroke: #000000; stroke-width: 0.8"/>
      </g>
     </g>
     <g id="text_2">
      <!-- 400 -->
      <g transform="translate(113.540359 220.036719) scale(0.09 -0.09)">
       <defs>
        <path id="DejaVuSans-34" d="M 2419 4116 
L 825 1625 
L 2419 1625 
L 2419 4116 
z
M 2253 4666 
L 3047 4666 
L 3047 1625 
L 3713 1625 
L 3713 1100 
L 3047 1100 
L 3047 0 
L 2419 0 
L 2419 1100 
L 313 1100 
L 313 1709 
L 2253 4666 
z
" transform="scale(0.015625)"/>
       </defs>
       <use xlink:href="#DejaVuSans-34"/>
       <use xlink:href="#DejaVuSans-30" x="63.623047"/>
       <use xlink:href="#DejaVuSans-30" x="127.246094"/>
      </g>
     </g>
    </g>
    <g id="xtick_3">
     <g id="line2d_3">
      <g>
       <use xlink:href="#m65f30659f8" x="169.152555" y="206.198125" style="stroke: #000000; stroke-width: 0.8"/>
      </g>
     </g>
     <g id="text_3">
      <!-- 600 -->
      <g transform="translate(160.56318 220.036719) scale(0.09 -0.09)">
       <defs>
        <path id="DejaVuSans-36" d="M 2113 2584 
Q 1688 2584 1439 2293 
Q 1191 2003 1191 1497 
Q 1191 994 1439 701 
Q 1688 409 2113 409 
Q 2538 409 2786 701 
Q 3034 994 3034 1497 
Q 3034 2003 2786 2293 
Q 2538 2584 2113 2584 
z
M 3366 4563 
L 3366 3988 
Q 3128 4100 2886 4159 
Q 2644 4219 2406 4219 
Q 1781 4219 1451 3797 
Q 1122 3375 1075 2522 
Q 1259 2794 1537 2939 
Q 1816 3084 2150 3084 
Q 2853 3084 3261 2657 
Q 3669 2231 3669 1497 
Q 3669 778 3244 343 
Q 2819 -91 2113 -91 
Q 1303 -91 875 529 
Q 447 1150 447 2328 
Q 447 3434 972 4092 
Q 1497 4750 2381 4750 
Q 2619 4750 2861 4703 
Q 3103 4656 3366 4563 
z
" transform="scale(0.015625)"/>
       </defs>
       <use xlink:href="#DejaVuSans-36"/>
       <use xlink:href="#DejaVuSans-30" x="63.623047"/>
       <use xlink:href="#DejaVuSans-30" x="127.246094"/>
      </g>
     </g>
    </g>
    <g id="xtick_4">
     <g id="line2d_4">
      <g>
       <use xlink:href="#m65f30659f8" x="216.175376" y="206.198125" style="stroke: #000000; stroke-width: 0.8"/>
      </g>
     </g>
     <g id="text_4">
      <!-- 800 -->
      <g transform="translate(207.586001 220.036719) scale(0.09 -0.09)">
       <defs>
        <path id="DejaVuSans-38" d="M 2034 2216 
Q 1584 2216 1326 1975 
Q 1069 1734 1069 1313 
Q 1069 891 1326 650 
Q 1584 409 2034 409 
Q 2484 409 2743 651 
Q 3003 894 3003 1313 
Q 3003 1734 2745 1975 
Q 2488 2216 2034 2216 
z
M 1403 2484 
Q 997 2584 770 2862 
Q 544 3141 544 3541 
Q 544 4100 942 4425 
Q 1341 4750 2034 4750 
Q 2731 4750 3128 4425 
Q 3525 4100 3525 3541 
Q 3525 3141 3298 2862 
Q 3072 2584 2669 2484 
Q 3125 2378 3379 2068 
Q 3634 1759 3634 1313 
Q 3634 634 3220 271 
Q 2806 -91 2034 -91 
Q 1263 -91 848 271 
Q 434 634 434 1313 
Q 434 1759 690 2068 
Q 947 2378 1403 2484 
z
M 1172 3481 
Q 1172 3119 1398 2916 
Q 1625 2713 2034 2713 
Q 2441 2713 2670 2916 
Q 2900 3119 2900 3481 
Q 2900 3844 2670 4047 
Q 2441 4250 2034 4250 
Q 1625 4250 1398 4047 
Q 1172 3844 1172 3481 
z
" transform="scale(0.015625)"/>
       </defs>
       <use xlink:href="#DejaVuSans-38"/>
       <use xlink:href="#DejaVuSans-30" x="63.623047"/>
       <use xlink:href="#DejaVuSans-30" x="127.246094"/>
      </g>
     </g>
    </g>
    <g id="text_5">
     <!-- Parcellation -->
     <g transform="translate(116.598957 233.506875) scale(0.1 -0.1)">
      <defs>
       <path id="DejaVuSans-50" d="M 1259 4147 
L 1259 2394 
L 2053 2394 
Q 2494 2394 2734 2622 
Q 2975 2850 2975 3272 
Q 2975 3691 2734 3919 
Q 2494 4147 2053 4147 
L 1259 4147 
z
M 628 4666 
L 2053 4666 
Q 2838 4666 3239 4311 
Q 3641 3956 3641 3272 
Q 3641 2581 3239 2228 
Q 2838 1875 2053 1875 
L 1259 1875 
L 1259 0 
L 628 0 
L 628 4666 
z
" transform="scale(0.015625)"/>
       <path id="DejaVuSans-61" d="M 2194 1759 
Q 1497 1759 1228 1600 
Q 959 1441 959 1056 
Q 959 750 1161 570 
Q 1363 391 1709 391 
Q 2188 391 2477 730 
Q 2766 1069 2766 1631 
L 2766 1759 
L 2194 1759 
z
M 3341 1997 
L 3341 0 
L 2766 0 
L 2766 531 
Q 2569 213 2275 61 
Q 1981 -91 1556 -91 
Q 1019 -91 701 211 
Q 384 513 384 1019 
Q 384 1609 779 1909 
Q 1175 2209 1959 2209 
L 2766 2209 
L 2766 2266 
Q 2766 2663 2505 2880 
Q 2244 3097 1772 3097 
Q 1472 3097 1187 3025 
Q 903 2953 641 2809 
L 641 3341 
Q 956 3463 1253 3523 
Q 1550 3584 1831 3584 
Q 2591 3584 2966 3190 
Q 3341 2797 3341 1997 
z
" transform="scale(0.015625)"/>
       <path id="DejaVuSans-72" d="M 2631 2963 
Q 2534 3019 2420 3045 
Q 2306 3072 2169 3072 
Q 1681 3072 1420 2755 
Q 1159 2438 1159 1844 
L 1159 0 
L 581 0 
L 581 3500 
L 1159 3500 
L 1159 2956 
Q 1341 3275 1631 3429 
Q 1922 3584 2338 3584 
Q 2397 3584 2469 3576 
Q 2541 3569 2628 3553 
L 2631 2963 
z
" transform="scale(0.015625)"/>
       <path id="DejaVuSans-63" d="M 3122 3366 
L 3122 2828 
Q 2878 2963 2633 3030 
Q 2388 3097 2138 3097 
Q 1578 3097 1268 2742 
Q 959 2388 959 1747 
Q 959 1106 1268 751 
Q 1578 397 2138 397 
Q 2388 397 2633 464 
Q 2878 531 3122 666 
L 3122 134 
Q 2881 22 2623 -34 
Q 2366 -91 2075 -91 
Q 1284 -91 818 406 
Q 353 903 353 1747 
Q 353 2603 823 3093 
Q 1294 3584 2113 3584 
Q 2378 3584 2631 3529 
Q 2884 3475 3122 3366 
z
" transform="scale(0.015625)"/>
       <path id="DejaVuSans-65" d="M 3597 1894 
L 3597 1613 
L 953 1613 
Q 991 1019 1311 708 
Q 1631 397 2203 397 
Q 2534 397 2845 478 
Q 3156 559 3463 722 
L 3463 178 
Q 3153 47 2828 -22 
Q 2503 -91 2169 -91 
Q 1331 -91 842 396 
Q 353 884 353 1716 
Q 353 2575 817 3079 
Q 1281 3584 2069 3584 
Q 2775 3584 3186 3129 
Q 3597 2675 3597 1894 
z
M 3022 2063 
Q 3016 2534 2758 2815 
Q 2500 3097 2075 3097 
Q 1594 3097 1305 2825 
Q 1016 2553 972 2059 
L 3022 2063 
z
" transform="scale(0.015625)"/>
       <path id="DejaVuSans-6c" d="M 603 4863 
L 1178 4863 
L 1178 0 
L 603 0 
L 603 4863 
z
" transform="scale(0.015625)"/>
       <path id="DejaVuSans-74" d="M 1172 4494 
L 1172 3500 
L 2356 3500 
L 2356 3053 
L 1172 3053 
L 1172 1153 
Q 1172 725 1289 603 
Q 1406 481 1766 481 
L 2356 481 
L 2356 0 
L 1766 0 
Q 1100 0 847 248 
Q 594 497 594 1153 
L 594 3053 
L 172 3053 
L 172 3500 
L 594 3500 
L 594 4494 
L 1172 4494 
z
" transform="scale(0.015625)"/>
       <path id="DejaVuSans-69" d="M 603 3500 
L 1178 3500 
L 1178 0 
L 603 0 
L 603 3500 
z
M 603 4863 
L 1178 4863 
L 1178 4134 
L 603 4134 
L 603 4863 
z
" transform="scale(0.015625)"/>
       <path id="DejaVuSans-6f" d="M 1959 3097 
Q 1497 3097 1228 2736 
Q 959 2375 959 1747 
Q 959 1119 1226 758 
Q 1494 397 1959 397 
Q 2419 397 2687 759 
Q 2956 1122 2956 1747 
Q 2956 2369 2687 2733 
Q 2419 3097 1959 3097 
z
M 1959 3584 
Q 2709 3584 3137 3096 
Q 3566 2609 3566 1747 
Q 3566 888 3137 398 
Q 2709 -91 1959 -91 
Q 1206 -91 779 398 
Q 353 888 353 1747 
Q 353 2609 779 3096 
Q 1206 3584 1959 3584 
z
" transform="scale(0.015625)"/>
       <path id="DejaVuSans-6e" d="M 3513 2113 
L 3513 0 
L 2938 0 
L 2938 2094 
Q 2938 2591 2744 2837 
Q 2550 3084 2163 3084 
Q 1697 3084 1428 2787 
Q 1159 2491 1159 1978 
L 1159 0 
L 581 0 
L 581 3500 
L 1159 3500 
L 1159 2956 
Q 1366 3272 1645 3428 
Q 1925 3584 2291 3584 
Q 2894 3584 3203 3211 
Q 3513 2838 3513 2113 
z
" transform="scale(0.015625)"/>
      </defs>
      <use xlink:href="#DejaVuSans-50"/>
      <use xlink:href="#DejaVuSans-61" x="55.802734"/>
      <use xlink:href="#DejaVuSans-72" x="117.082031"/>
      <use xlink:href="#DejaVuSans-63" x="155.945312"/>
      <use xlink:href="#DejaVuSans-65" x="210.925781"/>
      <use xlink:href="#DejaVuSans-6c" x="272.449219"/>
      <use xlink:href="#DejaVuSans-6c" x="300.232422"/>
      <use xlink:href="#DejaVuSans-61" x="328.015625"/>
      <use xlink:href="#DejaVuSans-74" x="389.294922"/>
      <use xlink:href="#DejaVuSans-69" x="428.503906"/>
      <use xlink:href="#DejaVuSans-6f" x="456.287109"/>
      <use xlink:href="#DejaVuSans-6e" x="517.46875"/>
     </g>
    </g>
   </g>
   <g id="matplotlib.axis_2">
    <g id="ytick_1">
     <g id="line2d_5">
      <defs>
       <path id="mc46306f43b" d="M 0 0 
L -3.5 0 
" style="stroke: #000000; stroke-width: 0.8"/>
      </defs>
      <g>
       <use xlink:href="#mc46306f43b" x="42.190938" y="206.198125" style="stroke: #000000; stroke-width: 0.8"/>
      </g>
     </g>
     <g id="text_6">
      <!-- 0.0 -->
      <g transform="translate(20.878125 209.617422) scale(0.09 -0.09)">
       <defs>
        <path id="DejaVuSans-2e" d="M 684 794 
L 1344 794 
L 1344 0 
L 684 0 
L 684 794 
z
" transform="scale(0.015625)"/>
       </defs>
       <use xlink:href="#DejaVuSans-30"/>
       <use xlink:href="#DejaVuSans-2e" x="63.623047"/>
       <use xlink:href="#DejaVuSans-30" x="95.410156"/>
      </g>
     </g>
    </g>
    <g id="ytick_2">
     <g id="line2d_6">
      <g>
       <use xlink:href="#mc46306f43b" x="42.190938" y="169.422125" style="stroke: #000000; stroke-width: 0.8"/>
      </g>
     </g>
     <g id="text_7">
      <!-- 0.2 -->
      <g transform="translate(20.878125 172.841422) scale(0.09 -0.09)">
       <use xlink:href="#DejaVuSans-30"/>
       <use xlink:href="#DejaVuSans-2e" x="63.623047"/>
       <use xlink:href="#DejaVuSans-32" x="95.410156"/>
      </g>
     </g>
    </g>
    <g id="ytick_3">
     <g id="line2d_7">
      <g>
       <use xlink:href="#mc46306f43b" x="42.190938" y="132.646125" style="stroke: #000000; stroke-width: 0.8"/>
      </g>
     </g>
     <g id="text_8">
      <!-- 0.4 -->
      <g transform="translate(20.878125 136.065422) scale(0.09 -0.09)">
       <use xlink:href="#DejaVuSans-30"/>
       <use xlink:href="#DejaVuSans-2e" x="63.623047"/>
       <use xlink:href="#DejaVuSans-34" x="95.410156"/>
      </g>
     </g>
    </g>
    <g id="ytick_4">
     <g id="line2d_8">
      <g>
       <use xlink:href="#mc46306f43b" x="42.190938" y="95.870125" style="stroke: #000000; stroke-width: 0.8"/>
      </g>
     </g>
     <g id="text_9">
      <!-- 0.6 -->
      <g transform="translate(20.878125 99.289422) scale(0.09 -0.09)">
       <use xlink:href="#DejaVuSans-30"/>
       <use xlink:href="#DejaVuSans-2e" x="63.623047"/>
       <use xlink:href="#DejaVuSans-36" x="95.410156"/>
      </g>
     </g>
    </g>
    <g id="ytick_5">
     <g id="line2d_9">
      <g>
       <use xlink:href="#mc46306f43b" x="42.190938" y="59.094125" style="stroke: #000000; stroke-width: 0.8"/>
      </g>
     </g>
     <g id="text_10">
      <!-- 0.8 -->
      <g transform="translate(20.878125 62.513422) scale(0.09 -0.09)">
       <use xlink:href="#DejaVuSans-30"/>
       <use xlink:href="#DejaVuSans-2e" x="63.623047"/>
       <use xlink:href="#DejaVuSans-38" x="95.410156"/>
      </g>
     </g>
    </g>
    <g id="ytick_6">
     <g id="line2d_10">
      <g>
       <use xlink:href="#mc46306f43b" x="42.190938" y="22.318125" style="stroke: #000000; stroke-width: 0.8"/>
      </g>
     </g>
     <g id="text_11">
      <!-- 1.0 -->
      <g transform="translate(20.878125 25.737422) scale(0.09 -0.09)">
       <defs>
        <path id="DejaVuSans-31" d="M 794 531 
L 1825 531 
L 1825 4091 
L 703 3866 
L 703 4441 
L 1819 4666 
L 2450 4666 
L 2450 531 
L 3481 531 
L 3481 0 
L 794 0 
L 794 531 
z
" transform="scale(0.015625)"/>
       </defs>
       <use xlink:href="#DejaVuSans-31"/>
       <use xlink:href="#DejaVuSans-2e" x="63.623047"/>
       <use xlink:href="#DejaVuSans-30" x="95.410156"/>
      </g>
     </g>
    </g>
    <g id="text_12">
     <!-- ID Rate -->
     <g transform="translate(14.798438 132.634688) rotate(-90) scale(0.1 -0.1)">
      <defs>
       <path id="DejaVuSans-49" d="M 628 4666 
L 1259 4666 
L 1259 0 
L 628 0 
L 628 4666 
z
" transform="scale(0.015625)"/>
       <path id="DejaVuSans-44" d="M 1259 4147 
L 1259 519 
L 2022 519 
Q 2988 519 3436 956 
Q 3884 1394 3884 2338 
Q 3884 3275 3436 3711 
Q 2988 4147 2022 4147 
L 1259 4147 
z
M 628 4666 
L 1925 4666 
Q 3281 4666 3915 4102 
Q 4550 3538 4550 2338 
Q 4550 1131 3912 565 
Q 3275 0 1925 0 
L 628 0 
L 628 4666 
z
" transform="scale(0.015625)"/>
       <path id="DejaVuSans-20" transform="scale(0.015625)"/>
       <path id="DejaVuSans-52" d="M 2841 2188 
Q 3044 2119 3236 1894 
Q 3428 1669 3622 1275 
L 4263 0 
L 3584 0 
L 2988 1197 
Q 2756 1666 2539 1819 
Q 2322 1972 1947 1972 
L 1259 1972 
L 1259 0 
L 628 0 
L 628 4666 
L 2053 4666 
Q 2853 4666 3247 4331 
Q 3641 3997 3641 3322 
Q 3641 2881 3436 2590 
Q 3231 2300 2841 2188 
z
M 1259 4147 
L 1259 2491 
L 2053 2491 
Q 2509 2491 2742 2702 
Q 2975 2913 2975 3322 
Q 2975 3731 2742 3939 
Q 2509 4147 2053 4147 
L 1259 4147 
z
" transform="scale(0.015625)"/>
      </defs>
      <use xlink:href="#DejaVuSans-49"/>
      <use xlink:href="#DejaVuSans-44" x="29.492188"/>
      <use xlink:href="#DejaVuSans-20" x="106.494141"/>
      <use xlink:href="#DejaVuSans-52" x="138.28125"/>
      <use xlink:href="#DejaVuSans-61" x="205.513672"/>
      <use xlink:href="#DejaVuSans-74" x="266.792969"/>
      <use xlink:href="#DejaVuSans-65" x="306.001953"/>
     </g>
    </g>
   </g>
   <g id="line2d_11">
    <path d="M 51.595502 44.015965 
L 75.106912 41.000333 
L 98.618323 44.015965 
L 122.129734 143.476657 
L 145.641144 183.636049 
L 169.152555 192.020977 
L 192.663965 195.036609 
L 216.175376 197.813197 
L 239.686786 198.364837 
" clip-path="url(#p6950eeff1d)" style="fill: none; stroke: #1f77b4; stroke-width: 1.5; stroke-linecap: square"/>
    <defs>
     <path id="mbb4737b11d" d="M 0 3 
C 0.795609 3 1.55874 2.683901 2.12132 2.12132 
C 2.683901 1.55874 3 0.795609 3 0 
C 3 -0.795609 2.683901 -1.55874 2.12132 -2.12132 
C 1.55874 -2.683901 0.795609 -3 0 -3 
C -0.795609 -3 -1.55874 -2.683901 -2.12132 -2.12132 
C -2.683901 -1.55874 -3 -0.795609 -3 0 
C -3 0.795609 -2.683901 1.55874 -2.12132 2.12132 
C -1.55874 2.683901 -0.795609 3 0 3 
z
" style="stroke: #1f77b4"/>
    </defs>
    <g clip-path="url(#p6950eeff1d)">
     <use xlink:href="#mbb4737b11d" x="51.595502" y="44.015965" style="fill: #1f77b4; stroke: #1f77b4"/>
     <use xlink:href="#mbb4737b11d" x="75.106912" y="41.000333" style="fill: #1f77b4; stroke: #1f77b4"/>
     <use xlink:href="#mbb4737b11d" x="98.618323" y="44.015965" style="fill: #1f77b4; stroke: #1f77b4"/>
     <use xlink:href="#mbb4737b11d" x="122.129734" y="143.476657" style="fill: #1f77b4; stroke: #1f77b4"/>
     <use xlink:href="#mbb4737b11d" x="145.641144" y="183.636049" style="fill: #1f77b4; stroke: #1f77b4"/>
     <use xlink:href="#mbb4737b11d" x="169.152555" y="192.020977" style="fill: #1f77b4; stroke: #1f77b4"/>
     <use xlink:href="#mbb4737b11d" x="192.663965" y="195.036609" style="fill: #1f77b4; stroke: #1f77b4"/>
     <use xlink:href="#mbb4737b11d" x="216.175376" y="197.813197" style="fill: #1f77b4; stroke: #1f77b4"/>
     <use xlink:href="#mbb4737b11d" x="239.686786" y="198.364837" style="fill: #1f77b4; stroke: #1f77b4"/>
    </g>
   </g>
   <g id="line2d_12">
    <path d="M 51.595502 183.433781 
L 75.106912 185.364521 
L 98.618323 189.869581 
L 122.129734 205.131621 
L 145.641144 205.131621 
L 169.152555 205.333889 
L 192.663965 205.333889 
L 216.175376 204.910965 
L 239.686786 205.333889 
" clip-path="url(#p6950eeff1d)" style="fill: none; stroke: #ff7f0e; stroke-width: 1.5; stroke-linecap: square"/>
    <defs>
     <path id="m6468775285" d="M 0 3 
C 0.795609 3 1.55874 2.683901 2.12132 2.12132 
C 2.683901 1.55874 3 0.795609 3 0 
C 3 -0.795609 2.683901 -1.55874 2.12132 -2.12132 
C 1.55874 -2.683901 0.795609 -3 0 -3 
C -0.795609 -3 -1.55874 -2.683901 -2.12132 -2.12132 
C -2.683901 -1.55874 -3 -0.795609 -3 0 
C -3 0.795609 -2.683901 1.55874 -2.12132 2.12132 
C -1.55874 2.683901 -0.795609 3 0 3 
z
" style="stroke: #ff7f0e"/>
    </defs>
    <g clip-path="url(#p6950eeff1d)">
     <use xlink:href="#m6468775285" x="51.595502" y="183.433781" style="fill: #ff7f0e; stroke: #ff7f0e"/>
     <use xlink:href="#m6468775285" x="75.106912" y="185.364521" style="fill: #ff7f0e; stroke: #ff7f0e"/>
     <use xlink:href="#m6468775285" x="98.618323" y="189.869581" style="fill: #ff7f0e; stroke: #ff7f0e"/>
     <use xlink:href="#m6468775285" x="122.129734" y="205.131621" style="fill: #ff7f0e; stroke: #ff7f0e"/>
     <use xlink:href="#m6468775285" x="145.641144" y="205.131621" style="fill: #ff7f0e; stroke: #ff7f0e"/>
     <use xlink:href="#m6468775285" x="169.152555" y="205.333889" style="fill: #ff7f0e; stroke: #ff7f0e"/>
     <use xlink:href="#m6468775285" x="192.663965" y="205.333889" style="fill: #ff7f0e; stroke: #ff7f0e"/>
     <use xlink:href="#m6468775285" x="216.175376" y="204.910965" style="fill: #ff7f0e; stroke: #ff7f0e"/>
     <use xlink:href="#m6468775285" x="239.686786" y="205.333889" style="fill: #ff7f0e; stroke: #ff7f0e"/>
    </g>
   </g>
   <g id="line2d_13">
    <path d="M 51.595502 132.296753 
L 75.106912 159.805201 
L 98.618323 167.969473 
L 122.129734 204.267385 
L 145.641144 204.910965 
L 169.152555 205.131621 
L 192.663965 205.333889 
L 216.175376 205.554545 
L 239.686786 204.910965 
" clip-path="url(#p6950eeff1d)" style="fill: none; stroke: #2ca02c; stroke-width: 1.5; stroke-linecap: square"/>
    <defs>
     <path id="ma9446a0913" d="M 0 3 
C 0.795609 3 1.55874 2.683901 2.12132 2.12132 
C 2.683901 1.55874 3 0.795609 3 0 
C 3 -0.795609 2.683901 -1.55874 2.12132 -2.12132 
C 1.55874 -2.683901 0.795609 -3 0 -3 
C -0.795609 -3 -1.55874 -2.683901 -2.12132 -2.12132 
C -2.683901 -1.55874 -3 -0.795609 -3 0 
C -3 0.795609 -2.683901 1.55874 -2.12132 2.12132 
C -1.55874 2.683901 -0.795609 3 0 3 
z
" style="stroke: #2ca02c"/>
    </defs>
    <g clip-path="url(#p6950eeff1d)">
     <use xlink:href="#ma9446a0913" x="51.595502" y="132.296753" style="fill: #2ca02c; stroke: #2ca02c"/>
     <use xlink:href="#ma9446a0913" x="75.106912" y="159.805201" style="fill: #2ca02c; stroke: #2ca02c"/>
     <use xlink:href="#ma9446a0913" x="98.618323" y="167.969473" style="fill: #2ca02c; stroke: #2ca02c"/>
     <use xlink:href="#ma9446a0913" x="122.129734" y="204.267385" style="fill: #2ca02c; stroke: #2ca02c"/>
     <use xlink:href="#ma9446a0913" x="145.641144" y="204.910965" style="fill: #2ca02c; stroke: #2ca02c"/>
     <use xlink:href="#ma9446a0913" x="169.152555" y="205.131621" style="fill: #2ca02c; stroke: #2ca02c"/>
     <use xlink:href="#ma9446a0913" x="192.663965" y="205.333889" style="fill: #2ca02c; stroke: #2ca02c"/>
     <use xlink:href="#ma9446a0913" x="216.175376" y="205.554545" style="fill: #2ca02c; stroke: #2ca02c"/>
     <use xlink:href="#ma9446a0913" x="239.686786" y="204.910965" style="fill: #2ca02c; stroke: #2ca02c"/>
    </g>
   </g>
   <g id="line2d_14">
    <path d="M 51.595502 81.398769 
L 75.106912 103.942457 
L 98.618323 110.175989 
L 122.129734 202.336645 
L 145.641144 200.828829 
L 169.152555 205.131621 
L 192.663965 205.131621 
L 216.175376 205.333889 
L 239.686786 205.333889 
" clip-path="url(#p6950eeff1d)" style="fill: none; stroke: #d62728; stroke-width: 1.5; stroke-linecap: square"/>
    <defs>
     <path id="md271245d1c" d="M 0 3 
C 0.795609 3 1.55874 2.683901 2.12132 2.12132 
C 2.683901 1.55874 3 0.795609 3 0 
C 3 -0.795609 2.683901 -1.55874 2.12132 -2.12132 
C 1.55874 -2.683901 0.795609 -3 0 -3 
C -0.795609 -3 -1.55874 -2.683901 -2.12132 -2.12132 
C -2.683901 -1.55874 -3 -0.795609 -3 0 
C -3 0.795609 -2.683901 1.55874 -2.12132 2.12132 
C -1.55874 2.683901 -0.795609 3 0 3 
z
" style="stroke: #d62728"/>
    </defs>
    <g clip-path="url(#p6950eeff1d)">
     <use xlink:href="#md271245d1c" x="51.595502" y="81.398769" style="fill: #d62728; stroke: #d62728"/>
     <use xlink:href="#md271245d1c" x="75.106912" y="103.942457" style="fill: #d62728; stroke: #d62728"/>
     <use xlink:href="#md271245d1c" x="98.618323" y="110.175989" style="fill: #d62728; stroke: #d62728"/>
     <use xlink:href="#md271245d1c" x="122.129734" y="202.336645" style="fill: #d62728; stroke: #d62728"/>
     <use xlink:href="#md271245d1c" x="145.641144" y="200.828829" style="fill: #d62728; stroke: #d62728"/>
     <use xlink:href="#md271245d1c" x="169.152555" y="205.131621" style="fill: #d62728; stroke: #d62728"/>
     <use xlink:href="#md271245d1c" x="192.663965" y="205.131621" style="fill: #d62728; stroke: #d62728"/>
     <use xlink:href="#md271245d1c" x="216.175376" y="205.333889" style="fill: #d62728; stroke: #d62728"/>
     <use xlink:href="#md271245d1c" x="239.686786" y="205.333889" style="fill: #d62728; stroke: #d62728"/>
    </g>
   </g>
   <g id="line2d_15">
    <path d="M 51.595502 121.558161 
L 75.106912 157.433149 
L 98.618323 174.828197 
L 122.129734 201.049485 
L 145.641144 202.336645 
L 169.152555 205.131621 
L 192.663965 204.690309 
L 216.175376 205.131621 
L 239.686786 205.131621 
" clip-path="url(#p6950eeff1d)" style="fill: none; stroke: #9467bd; stroke-width: 1.5; stroke-linecap: square"/>
    <defs>
     <path id="m55dfc976fd" d="M 0 3 
C 0.795609 3 1.55874 2.683901 2.12132 2.12132 
C 2.683901 1.55874 3 0.795609 3 0 
C 3 -0.795609 2.683901 -1.55874 2.12132 -2.12132 
C 1.55874 -2.683901 0.795609 -3 0 -3 
C -0.795609 -3 -1.55874 -2.683901 -2.12132 -2.12132 
C -2.683901 -1.55874 -3 -0.795609 -3 0 
C -3 0.795609 -2.683901 1.55874 -2.12132 2.12132 
C -1.55874 2.683901 -0.795609 3 0 3 
z
" style="stroke: #9467bd"/>
    </defs>
    <g clip-path="url(#p6950eeff1d)">
     <use xlink:href="#m55dfc976fd" x="51.595502" y="121.558161" style="fill: #9467bd; stroke: #9467bd"/>
     <use xlink:href="#m55dfc976fd" x="75.106912" y="157.433149" style="fill: #9467bd; stroke: #9467bd"/>
     <use xlink:href="#m55dfc976fd" x="98.618323" y="174.828197" style="fill: #9467bd; stroke: #9467bd"/>
     <use xlink:href="#m55dfc976fd" x="122.129734" y="201.049485" style="fill: #9467bd; stroke: #9467bd"/>
     <use xlink:href="#m55dfc976fd" x="145.641144" y="202.336645" style="fill: #9467bd; stroke: #9467bd"/>
     <use xlink:href="#m55dfc976fd" x="169.152555" y="205.131621" style="fill: #9467bd; stroke: #9467bd"/>
     <use xlink:href="#m55dfc976fd" x="192.663965" y="204.690309" style="fill: #9467bd; stroke: #9467bd"/>
     <use xlink:href="#m55dfc976fd" x="216.175376" y="205.131621" style="fill: #9467bd; stroke: #9467bd"/>
     <use xlink:href="#m55dfc976fd" x="239.686786" y="205.131621" style="fill: #9467bd; stroke: #9467bd"/>
    </g>
   </g>
   <g id="line2d_16">
    <path d="M 51.595502 152.707433 
L 75.106912 153.994593 
L 98.618323 162.158865 
L 122.129734 203.182493 
L 145.641144 204.690309 
L 169.152555 204.910965 
L 192.663965 205.131621 
L 216.175376 205.333889 
L 239.686786 205.333889 
" clip-path="url(#p6950eeff1d)" style="fill: none; stroke: #8c564b; stroke-width: 1.5; stroke-linecap: square"/>
    <defs>
     <path id="m5bd3b1a8d1" d="M 0 3 
C 0.795609 3 1.55874 2.683901 2.12132 2.12132 
C 2.683901 1.55874 3 0.795609 3 0 
C 3 -0.795609 2.683901 -1.55874 2.12132 -2.12132 
C 1.55874 -2.683901 0.795609 -3 0 -3 
C -0.795609 -3 -1.55874 -2.683901 -2.12132 -2.12132 
C -2.683901 -1.55874 -3 -0.795609 -3 0 
C -3 0.795609 -2.683901 1.55874 -2.12132 2.12132 
C -1.55874 2.683901 -0.795609 3 0 3 
z
" style="stroke: #8c564b"/>
    </defs>
    <g clip-path="url(#p6950eeff1d)">
     <use xlink:href="#m5bd3b1a8d1" x="51.595502" y="152.707433" style="fill: #8c564b; stroke: #8c564b"/>
     <use xlink:href="#m5bd3b1a8d1" x="75.106912" y="153.994593" style="fill: #8c564b; stroke: #8c564b"/>
     <use xlink:href="#m5bd3b1a8d1" x="98.618323" y="162.158865" style="fill: #8c564b; stroke: #8c564b"/>
     <use xlink:href="#m5bd3b1a8d1" x="122.129734" y="203.182493" style="fill: #8c564b; stroke: #8c564b"/>
     <use xlink:href="#m5bd3b1a8d1" x="145.641144" y="204.690309" style="fill: #8c564b; stroke: #8c564b"/>
     <use xlink:href="#m5bd3b1a8d1" x="169.152555" y="204.910965" style="fill: #8c564b; stroke: #8c564b"/>
     <use xlink:href="#m5bd3b1a8d1" x="192.663965" y="205.131621" style="fill: #8c564b; stroke: #8c564b"/>
     <use xlink:href="#m5bd3b1a8d1" x="216.175376" y="205.333889" style="fill: #8c564b; stroke: #8c564b"/>
     <use xlink:href="#m5bd3b1a8d1" x="239.686786" y="205.333889" style="fill: #8c564b; stroke: #8c564b"/>
    </g>
   </g>
   <g id="line2d_17">
    <path d="M 51.595502 99.437397 
L 75.106912 138.530285 
L 98.618323 147.558793 
L 122.129734 200.828829 
L 145.641144 203.403149 
L 169.152555 205.554545 
L 192.663965 204.488041 
L 216.175376 204.267385 
L 239.686786 204.267385 
" clip-path="url(#p6950eeff1d)" style="fill: none; stroke: #e377c2; stroke-width: 1.5; stroke-linecap: square"/>
    <defs>
     <path id="m008f2ea0d0" d="M 0 3 
C 0.795609 3 1.55874 2.683901 2.12132 2.12132 
C 2.683901 1.55874 3 0.795609 3 0 
C 3 -0.795609 2.683901 -1.55874 2.12132 -2.12132 
C 1.55874 -2.683901 0.795609 -3 0 -3 
C -0.795609 -3 -1.55874 -2.683901 -2.12132 -2.12132 
C -2.683901 -1.55874 -3 -0.795609 -3 0 
C -3 0.795609 -2.683901 1.55874 -2.12132 2.12132 
C -1.55874 2.683901 -0.795609 3 0 3 
z
" style="stroke: #e377c2"/>
    </defs>
    <g clip-path="url(#p6950eeff1d)">
     <use xlink:href="#m008f2ea0d0" x="51.595502" y="99.437397" style="fill: #e377c2; stroke: #e377c2"/>
     <use xlink:href="#m008f2ea0d0" x="75.106912" y="138.530285" style="fill: #e377c2; stroke: #e377c2"/>
     <use xlink:href="#m008f2ea0d0" x="98.618323" y="147.558793" style="fill: #e377c2; stroke: #e377c2"/>
     <use xlink:href="#m008f2ea0d0" x="122.129734" y="200.828829" style="fill: #e377c2; stroke: #e377c2"/>
     <use xlink:href="#m008f2ea0d0" x="145.641144" y="203.403149" style="fill: #e377c2; stroke: #e377c2"/>
     <use xlink:href="#m008f2ea0d0" x="169.152555" y="205.554545" style="fill: #e377c2; stroke: #e377c2"/>
     <use xlink:href="#m008f2ea0d0" x="192.663965" y="204.488041" style="fill: #e377c2; stroke: #e377c2"/>
     <use xlink:href="#m008f2ea0d0" x="216.175376" y="204.267385" style="fill: #e377c2; stroke: #e377c2"/>
     <use xlink:href="#m008f2ea0d0" x="239.686786" y="204.267385" style="fill: #e377c2; stroke: #e377c2"/>
    </g>
   </g>
   <g id="line2d_18">
    <path d="M 51.595502 79.247373 
L 75.106912 83.329509 
L 98.618323 96.642421 
L 122.129734 139.615177 
L 145.641144 201.472409 
L 169.152555 203.403149 
L 192.663965 202.538913 
L 216.175376 205.554545 
L 239.686786 205.131621 
" clip-path="url(#p6950eeff1d)" style="fill: none; stroke: #7f7f7f; stroke-width: 1.5; stroke-linecap: square"/>
    <defs>
     <path id="m5448319aa3" d="M 0 3 
C 0.795609 3 1.55874 2.683901 2.12132 2.12132 
C 2.683901 1.55874 3 0.795609 3 0 
C 3 -0.795609 2.683901 -1.55874 2.12132 -2.12132 
C 1.55874 -2.683901 0.795609 -3 0 -3 
C -0.795609 -3 -1.55874 -2.683901 -2.12132 -2.12132 
C -2.683901 -1.55874 -3 -0.795609 -3 0 
C -3 0.795609 -2.683901 1.55874 -2.12132 2.12132 
C -1.55874 2.683901 -0.795609 3 0 3 
z
" style="stroke: #7f7f7f"/>
    </defs>
    <g clip-path="url(#p6950eeff1d)">
     <use xlink:href="#m5448319aa3" x="51.595502" y="79.247373" style="fill: #7f7f7f; stroke: #7f7f7f"/>
     <use xlink:href="#m5448319aa3" x="75.106912" y="83.329509" style="fill: #7f7f7f; stroke: #7f7f7f"/>
     <use xlink:href="#m5448319aa3" x="98.618323" y="96.642421" style="fill: #7f7f7f; stroke: #7f7f7f"/>
     <use xlink:href="#m5448319aa3" x="122.129734" y="139.615177" style="fill: #7f7f7f; stroke: #7f7f7f"/>
     <use xlink:href="#m5448319aa3" x="145.641144" y="201.472409" style="fill: #7f7f7f; stroke: #7f7f7f"/>
     <use xlink:href="#m5448319aa3" x="169.152555" y="203.403149" style="fill: #7f7f7f; stroke: #7f7f7f"/>
     <use xlink:href="#m5448319aa3" x="192.663965" y="202.538913" style="fill: #7f7f7f; stroke: #7f7f7f"/>
     <use xlink:href="#m5448319aa3" x="216.175376" y="205.554545" style="fill: #7f7f7f; stroke: #7f7f7f"/>
     <use xlink:href="#m5448319aa3" x="239.686786" y="205.131621" style="fill: #7f7f7f; stroke: #7f7f7f"/>
    </g>
   </g>
   <g id="patch_3">
    <path d="M 42.190938 206.198125 
L 42.190938 22.318125 
" style="fill: none; stroke: #000000; stroke-width: 0.8; stroke-linejoin: miter; stroke-linecap: square"/>
   </g>
   <g id="patch_4">
    <path d="M 249.091351 206.198125 
L 249.091351 22.318125 
" style="fill: none; stroke: #000000; stroke-width: 0.8; stroke-linejoin: miter; stroke-linecap: square"/>
   </g>
   <g id="patch_5">
    <path d="M 42.190938 206.198125 
L 249.091351 206.198125 
" style="fill: none; stroke: #000000; stroke-width: 0.8; stroke-linejoin: miter; stroke-linecap: square"/>
   </g>
   <g id="patch_6">
    <path d="M 42.190938 22.318125 
L 249.091351 22.318125 
" style="fill: none; stroke: #000000; stroke-width: 0.8; stroke-linejoin: miter; stroke-linecap: square"/>
   </g>
   <g id="text_13">
    <!-- Low Regularization (τ ≤ 1) -->
    <g transform="translate(56.045207 16.318125) scale(0.12 -0.12)">
     <defs>
      <path id="DejaVuSans-Bold-4c" d="M 588 4666 
L 1791 4666 
L 1791 909 
L 3903 909 
L 3903 0 
L 588 0 
L 588 4666 
z
" transform="scale(0.015625)"/>
      <path id="DejaVuSans-Bold-6f" d="M 2203 2784 
Q 1831 2784 1636 2517 
Q 1441 2250 1441 1747 
Q 1441 1244 1636 976 
Q 1831 709 2203 709 
Q 2569 709 2762 976 
Q 2956 1244 2956 1747 
Q 2956 2250 2762 2517 
Q 2569 2784 2203 2784 
z
M 2203 3584 
Q 3106 3584 3614 3096 
Q 4122 2609 4122 1747 
Q 4122 884 3614 396 
Q 3106 -91 2203 -91 
Q 1297 -91 786 396 
Q 275 884 275 1747 
Q 275 2609 786 3096 
Q 1297 3584 2203 3584 
z
" transform="scale(0.015625)"/>
      <path id="DejaVuSans-Bold-77" d="M 225 3500 
L 1313 3500 
L 1900 1088 
L 2491 3500 
L 3425 3500 
L 4013 1113 
L 4603 3500 
L 5691 3500 
L 4769 0 
L 3547 0 
L 2956 2406 
L 2369 0 
L 1147 0 
L 225 3500 
z
" transform="scale(0.015625)"/>
      <path id="DejaVuSans-Bold-20" transform="scale(0.015625)"/>
      <path id="DejaVuSans-Bold-52" d="M 2297 2597 
Q 2675 2597 2839 2737 
Q 3003 2878 3003 3200 
Q 3003 3519 2839 3656 
Q 2675 3794 2297 3794 
L 1791 3794 
L 1791 2597 
L 2297 2597 
z
M 1791 1766 
L 1791 0 
L 588 0 
L 588 4666 
L 2425 4666 
Q 3347 4666 3776 4356 
Q 4206 4047 4206 3378 
Q 4206 2916 3982 2619 
Q 3759 2322 3309 2181 
Q 3556 2125 3751 1926 
Q 3947 1728 4147 1325 
L 4800 0 
L 3519 0 
L 2950 1159 
Q 2778 1509 2601 1637 
Q 2425 1766 2131 1766 
L 1791 1766 
z
" transform="scale(0.015625)"/>
      <path id="DejaVuSans-Bold-65" d="M 4031 1759 
L 4031 1441 
L 1416 1441 
Q 1456 1047 1700 850 
Q 1944 653 2381 653 
Q 2734 653 3104 758 
Q 3475 863 3866 1075 
L 3866 213 
Q 3469 63 3072 -14 
Q 2675 -91 2278 -91 
Q 1328 -91 801 392 
Q 275 875 275 1747 
Q 275 2603 792 3093 
Q 1309 3584 2216 3584 
Q 3041 3584 3536 3087 
Q 4031 2591 4031 1759 
z
M 2881 2131 
Q 2881 2450 2695 2645 
Q 2509 2841 2209 2841 
Q 1884 2841 1681 2658 
Q 1478 2475 1428 2131 
L 2881 2131 
z
" transform="scale(0.015625)"/>
      <path id="DejaVuSans-Bold-67" d="M 2919 594 
Q 2688 288 2409 144 
Q 2131 0 1766 0 
Q 1125 0 706 504 
Q 288 1009 288 1791 
Q 288 2575 706 3076 
Q 1125 3578 1766 3578 
Q 2131 3578 2409 3434 
Q 2688 3291 2919 2981 
L 2919 3500 
L 4044 3500 
L 4044 353 
Q 4044 -491 3511 -936 
Q 2978 -1381 1966 -1381 
Q 1638 -1381 1331 -1331 
Q 1025 -1281 716 -1178 
L 716 -306 
Q 1009 -475 1290 -558 
Q 1572 -641 1856 -641 
Q 2406 -641 2662 -400 
Q 2919 -159 2919 353 
L 2919 594 
z
M 2181 2772 
Q 1834 2772 1640 2515 
Q 1447 2259 1447 1791 
Q 1447 1309 1634 1061 
Q 1822 813 2181 813 
Q 2531 813 2725 1069 
Q 2919 1325 2919 1791 
Q 2919 2259 2725 2515 
Q 2531 2772 2181 2772 
z
" transform="scale(0.015625)"/>
      <path id="DejaVuSans-Bold-75" d="M 500 1363 
L 500 3500 
L 1625 3500 
L 1625 3150 
Q 1625 2866 1622 2436 
Q 1619 2006 1619 1863 
Q 1619 1441 1641 1255 
Q 1663 1069 1716 984 
Q 1784 875 1895 815 
Q 2006 756 2150 756 
Q 2500 756 2700 1025 
Q 2900 1294 2900 1772 
L 2900 3500 
L 4019 3500 
L 4019 0 
L 2900 0 
L 2900 506 
Q 2647 200 2364 54 
Q 2081 -91 1741 -91 
Q 1134 -91 817 281 
Q 500 653 500 1363 
z
" transform="scale(0.015625)"/>
      <path id="DejaVuSans-Bold-6c" d="M 538 4863 
L 1656 4863 
L 1656 0 
L 538 0 
L 538 4863 
z
" transform="scale(0.015625)"/>
      <path id="DejaVuSans-Bold-61" d="M 2106 1575 
Q 1756 1575 1579 1456 
Q 1403 1338 1403 1106 
Q 1403 894 1545 773 
Q 1688 653 1941 653 
Q 2256 653 2472 879 
Q 2688 1106 2688 1447 
L 2688 1575 
L 2106 1575 
z
M 3816 1997 
L 3816 0 
L 2688 0 
L 2688 519 
Q 2463 200 2181 54 
Q 1900 -91 1497 -91 
Q 953 -91 614 226 
Q 275 544 275 1050 
Q 275 1666 698 1953 
Q 1122 2241 2028 2241 
L 2688 2241 
L 2688 2328 
Q 2688 2594 2478 2717 
Q 2269 2841 1825 2841 
Q 1466 2841 1156 2769 
Q 847 2697 581 2553 
L 581 3406 
Q 941 3494 1303 3539 
Q 1666 3584 2028 3584 
Q 2975 3584 3395 3211 
Q 3816 2838 3816 1997 
z
" transform="scale(0.015625)"/>
      <path id="DejaVuSans-Bold-72" d="M 3138 2547 
Q 2991 2616 2845 2648 
Q 2700 2681 2553 2681 
Q 2122 2681 1889 2404 
Q 1656 2128 1656 1613 
L 1656 0 
L 538 0 
L 538 3500 
L 1656 3500 
L 1656 2925 
Q 1872 3269 2151 3426 
Q 2431 3584 2822 3584 
Q 2878 3584 2943 3579 
Q 3009 3575 3134 3559 
L 3138 2547 
z
" transform="scale(0.015625)"/>
      <path id="DejaVuSans-Bold-69" d="M 538 3500 
L 1656 3500 
L 1656 0 
L 538 0 
L 538 3500 
z
M 538 4863 
L 1656 4863 
L 1656 3950 
L 538 3950 
L 538 4863 
z
" transform="scale(0.015625)"/>
      <path id="DejaVuSans-Bold-7a" d="M 366 3500 
L 3419 3500 
L 3419 2719 
L 1575 800 
L 3419 800 
L 3419 0 
L 288 0 
L 288 781 
L 2131 2700 
L 366 2700 
L 366 3500 
z
" transform="scale(0.015625)"/>
      <path id="DejaVuSans-Bold-74" d="M 1759 4494 
L 1759 3500 
L 2913 3500 
L 2913 2700 
L 1759 2700 
L 1759 1216 
Q 1759 972 1856 886 
Q 1953 800 2241 800 
L 2816 800 
L 2816 0 
L 1856 0 
Q 1194 0 917 276 
Q 641 553 641 1216 
L 641 2700 
L 84 2700 
L 84 3500 
L 641 3500 
L 641 4494 
L 1759 4494 
z
" transform="scale(0.015625)"/>
      <path id="DejaVuSans-Bold-6e" d="M 4056 2131 
L 4056 0 
L 2931 0 
L 2931 347 
L 2931 1631 
Q 2931 2084 2911 2256 
Q 2891 2428 2841 2509 
Q 2775 2619 2662 2680 
Q 2550 2741 2406 2741 
Q 2056 2741 1856 2470 
Q 1656 2200 1656 1722 
L 1656 0 
L 538 0 
L 538 3500 
L 1656 3500 
L 1656 2988 
Q 1909 3294 2193 3439 
Q 2478 3584 2822 3584 
Q 3428 3584 3742 3212 
Q 4056 2841 4056 2131 
z
" transform="scale(0.015625)"/>
      <path id="DejaVuSans-Bold-28" d="M 2413 -844 
L 1484 -844 
Q 1006 -72 778 623 
Q 550 1319 550 2003 
Q 550 2688 779 3389 
Q 1009 4091 1484 4856 
L 2413 4856 
Q 2013 4116 1813 3408 
Q 1613 2700 1613 2009 
Q 1613 1319 1811 609 
Q 2009 -100 2413 -844 
z
" transform="scale(0.015625)"/>
      <path id="DejaVuSans-Bold-3c4" d="M 134 2700 
L 134 3500 
L 3916 3500 
L 3916 2700 
L 2584 2700 
L 2584 1131 
Q 2584 731 2661 631 
Q 2738 531 2913 531 
Q 3091 531 3191 544 
L 3191 -44 
Q 2997 -122 2334 -122 
Q 2125 -122 1922 -63 
Q 1597 34 1506 319 
Q 1466 459 1466 728 
L 1466 2700 
L 134 2700 
z
" transform="scale(0.015625)"/>
      <path id="DejaVuSans-Bold-2264" d="M 4684 744 
L 4684 0 
L 678 0 
L 678 744 
L 4684 744 
z
M 4684 2963 
L 1881 2309 
L 4684 1656 
L 4684 897 
L 678 1947 
L 678 2681 
L 4684 3725 
L 4684 2963 
z
" transform="scale(0.015625)"/>
      <path id="DejaVuSans-Bold-31" d="M 750 831 
L 1813 831 
L 1813 3847 
L 722 3622 
L 722 4441 
L 1806 4666 
L 2950 4666 
L 2950 831 
L 4013 831 
L 4013 0 
L 750 0 
L 750 831 
z
" transform="scale(0.015625)"/>
      <path id="DejaVuSans-Bold-29" d="M 513 -844 
Q 913 -100 1113 609 
Q 1313 1319 1313 2009 
Q 1313 2700 1113 3408 
Q 913 4116 513 4856 
L 1441 4856 
Q 1916 4091 2145 3389 
Q 2375 2688 2375 2003 
Q 2375 1319 2147 623 
Q 1919 -72 1441 -844 
L 513 -844 
z
" transform="scale(0.015625)"/>
     </defs>
     <use xlink:href="#DejaVuSans-Bold-4c"/>
     <use xlink:href="#DejaVuSans-Bold-6f" x="63.720703"/>
     <use xlink:href="#DejaVuSans-Bold-77" x="132.421875"/>
     <use xlink:href="#DejaVuSans-Bold-20" x="224.804688"/>
     <use xlink:href="#DejaVuSans-Bold-52" x="259.619141"/>
     <use xlink:href="#DejaVuSans-Bold-65" x="336.621094"/>
     <use xlink:href="#DejaVuSans-Bold-67" x="404.443359"/>
     <use xlink:href="#DejaVuSans-Bold-75" x="476.025391"/>
     <use xlink:href="#DejaVuSans-Bold-6c" x="547.216797"/>
     <use xlink:href="#DejaVuSans-Bold-61" x="581.494141"/>
     <use xlink:href="#DejaVuSans-Bold-72" x="648.974609"/>
     <use xlink:href="#DejaVuSans-Bold-69" x="698.291016"/>
     <use xlink:href="#DejaVuSans-Bold-7a" x="732.568359"/>
     <use xlink:href="#DejaVuSans-Bold-61" x="790.771484"/>
     <use xlink:href="#DejaVuSans-Bold-74" x="858.251953"/>
     <use xlink:href="#DejaVuSans-Bold-69" x="906.054688"/>
     <use xlink:href="#DejaVuSans-Bold-6f" x="940.332031"/>
     <use xlink:href="#DejaVuSans-Bold-6e" x="1009.033203"/>
     <use xlink:href="#DejaVuSans-Bold-20" x="1080.224609"/>
     <use xlink:href="#DejaVuSans-Bold-28" x="1115.039062"/>
     <use xlink:href="#DejaVuSans-Bold-3c4" x="1160.742188"/>
     <use xlink:href="#DejaVuSans-Bold-20" x="1224.560547"/>
     <use xlink:href="#DejaVuSans-Bold-2264" x="1259.375"/>
     <use xlink:href="#DejaVuSans-Bold-20" x="1343.164062"/>
     <use xlink:href="#DejaVuSans-Bold-31" x="1377.978516"/>
     <use xlink:href="#DejaVuSans-Bold-29" x="1447.558594"/>
    </g>
   </g>
  </g>
  <g id="axes_2">
   <g id="patch_7">
    <path d="M 295.371351 206.198125 
L 502.271764 206.198125 
L 502.271764 22.318125 
L 295.371351 22.318125 
z
" style="fill: #ffffff"/>
   </g>
   <g id="matplotlib.axis_3">
    <g id="xtick_5">
     <g id="line2d_19">
      <g>
       <use xlink:href="#m65f30659f8" x="304.775915" y="206.198125" style="stroke: #000000; stroke-width: 0.8"/>
      </g>
     </g>
     <g id="text_14">
      <!-- 300 -->
      <g transform="translate(296.18654 220.036719) scale(0.09 -0.09)">
       <defs>
        <path id="DejaVuSans-33" d="M 2597 2516 
Q 3050 2419 3304 2112 
Q 3559 1806 3559 1356 
Q 3559 666 3084 287 
Q 2609 -91 1734 -91 
Q 1441 -91 1130 -33 
Q 819 25 488 141 
L 488 750 
Q 750 597 1062 519 
Q 1375 441 1716 441 
Q 2309 441 2620 675 
Q 2931 909 2931 1356 
Q 2931 1769 2642 2001 
Q 2353 2234 1838 2234 
L 1294 2234 
L 1294 2753 
L 1863 2753 
Q 2328 2753 2575 2939 
Q 2822 3125 2822 3475 
Q 2822 3834 2567 4026 
Q 2313 4219 1838 4219 
Q 1578 4219 1281 4162 
Q 984 4106 628 3988 
L 628 4550 
Q 988 4650 1302 4700 
Q 1616 4750 1894 4750 
Q 2613 4750 3031 4423 
Q 3450 4097 3450 3541 
Q 3450 3153 3228 2886 
Q 3006 2619 2597 2516 
z
" transform="scale(0.015625)"/>
       </defs>
       <use xlink:href="#DejaVuSans-33"/>
       <use xlink:href="#DejaVuSans-30" x="63.623047"/>
       <use xlink:href="#DejaVuSans-30" x="127.246094"/>
      </g>
     </g>
    </g>
    <g id="xtick_6">
     <g id="line2d_20">
      <g>
       <use xlink:href="#m65f30659f8" x="336.124462" y="206.198125" style="stroke: #000000; stroke-width: 0.8"/>
      </g>
     </g>
     <g id="text_15">
      <!-- 400 -->
      <g transform="translate(327.535087 220.036719) scale(0.09 -0.09)">
       <use xlink:href="#DejaVuSans-34"/>
       <use xlink:href="#DejaVuSans-30" x="63.623047"/>
       <use xlink:href="#DejaVuSans-30" x="127.246094"/>
      </g>
     </g>
    </g>
    <g id="xtick_7">
     <g id="line2d_21">
      <g>
       <use xlink:href="#m65f30659f8" x="367.47301" y="206.198125" style="stroke: #000000; stroke-width: 0.8"/>
      </g>
     </g>
     <g id="text_16">
      <!-- 500 -->
      <g transform="translate(358.883635 220.036719) scale(0.09 -0.09)">
       <defs>
        <path id="DejaVuSans-35" d="M 691 4666 
L 3169 4666 
L 3169 4134 
L 1269 4134 
L 1269 2991 
Q 1406 3038 1543 3061 
Q 1681 3084 1819 3084 
Q 2600 3084 3056 2656 
Q 3513 2228 3513 1497 
Q 3513 744 3044 326 
Q 2575 -91 1722 -91 
Q 1428 -91 1123 -41 
Q 819 9 494 109 
L 494 744 
Q 775 591 1075 516 
Q 1375 441 1709 441 
Q 2250 441 2565 725 
Q 2881 1009 2881 1497 
Q 2881 1984 2565 2268 
Q 2250 2553 1709 2553 
Q 1456 2553 1204 2497 
Q 953 2441 691 2322 
L 691 4666 
z
" transform="scale(0.015625)"/>
       </defs>
       <use xlink:href="#DejaVuSans-35"/>
       <use xlink:href="#DejaVuSans-30" x="63.623047"/>
       <use xlink:href="#DejaVuSans-30" x="127.246094"/>
      </g>
     </g>
    </g>
    <g id="xtick_8">
     <g id="line2d_22">
      <g>
       <use xlink:href="#m65f30659f8" x="398.821557" y="206.198125" style="stroke: #000000; stroke-width: 0.8"/>
      </g>
     </g>
     <g id="text_17">
      <!-- 600 -->
      <g transform="translate(390.232182 220.036719) scale(0.09 -0.09)">
       <use xlink:href="#DejaVuSans-36"/>
       <use xlink:href="#DejaVuSans-30" x="63.623047"/>
       <use xlink:href="#DejaVuSans-30" x="127.246094"/>
      </g>
     </g>
    </g>
    <g id="xtick_9">
     <g id="line2d_23">
      <g>
       <use xlink:href="#m65f30659f8" x="430.170105" y="206.198125" style="stroke: #000000; stroke-width: 0.8"/>
      </g>
     </g>
     <g id="text_18">
      <!-- 700 -->
      <g transform="translate(421.58073 220.036719) scale(0.09 -0.09)">
       <defs>
        <path id="DejaVuSans-37" d="M 525 4666 
L 3525 4666 
L 3525 4397 
L 1831 0 
L 1172 0 
L 2766 4134 
L 525 4134 
L 525 4666 
z
" transform="scale(0.015625)"/>
       </defs>
       <use xlink:href="#DejaVuSans-37"/>
       <use xlink:href="#DejaVuSans-30" x="63.623047"/>
       <use xlink:href="#DejaVuSans-30" x="127.246094"/>
      </g>
     </g>
    </g>
    <g id="xtick_10">
     <g id="line2d_24">
      <g>
       <use xlink:href="#m65f30659f8" x="461.518652" y="206.198125" style="stroke: #000000; stroke-width: 0.8"/>
      </g>
     </g>
     <g id="text_19">
      <!-- 800 -->
      <g transform="translate(452.929277 220.036719) scale(0.09 -0.09)">
       <use xlink:href="#DejaVuSans-38"/>
       <use xlink:href="#DejaVuSans-30" x="63.623047"/>
       <use xlink:href="#DejaVuSans-30" x="127.246094"/>
      </g>
     </g>
    </g>
    <g id="xtick_11">
     <g id="line2d_25">
      <g>
       <use xlink:href="#m65f30659f8" x="492.8672" y="206.198125" style="stroke: #000000; stroke-width: 0.8"/>
      </g>
     </g>
     <g id="text_20">
      <!-- 900 -->
      <g transform="translate(484.277825 220.036719) scale(0.09 -0.09)">
       <defs>
        <path id="DejaVuSans-39" d="M 703 97 
L 703 672 
Q 941 559 1184 500 
Q 1428 441 1663 441 
Q 2288 441 2617 861 
Q 2947 1281 2994 2138 
Q 2813 1869 2534 1725 
Q 2256 1581 1919 1581 
Q 1219 1581 811 2004 
Q 403 2428 403 3163 
Q 403 3881 828 4315 
Q 1253 4750 1959 4750 
Q 2769 4750 3195 4129 
Q 3622 3509 3622 2328 
Q 3622 1225 3098 567 
Q 2575 -91 1691 -91 
Q 1453 -91 1209 -44 
Q 966 3 703 97 
z
M 1959 2075 
Q 2384 2075 2632 2365 
Q 2881 2656 2881 3163 
Q 2881 3666 2632 3958 
Q 2384 4250 1959 4250 
Q 1534 4250 1286 3958 
Q 1038 3666 1038 3163 
Q 1038 2656 1286 2365 
Q 1534 2075 1959 2075 
z
" transform="scale(0.015625)"/>
       </defs>
       <use xlink:href="#DejaVuSans-39"/>
       <use xlink:href="#DejaVuSans-30" x="63.623047"/>
       <use xlink:href="#DejaVuSans-30" x="127.246094"/>
      </g>
     </g>
    </g>
    <g id="text_21">
     <!-- Parcellation -->
     <g transform="translate(369.77937 233.506875) scale(0.1 -0.1)">
      <use xlink:href="#DejaVuSans-50"/>
      <use xlink:href="#DejaVuSans-61" x="55.802734"/>
      <use xlink:href="#DejaVuSans-72" x="117.082031"/>
      <use xlink:href="#DejaVuSans-63" x="155.945312"/>
      <use xlink:href="#DejaVuSans-65" x="210.925781"/>
      <use xlink:href="#DejaVuSans-6c" x="272.449219"/>
      <use xlink:href="#DejaVuSans-6c" x="300.232422"/>
      <use xlink:href="#DejaVuSans-61" x="328.015625"/>
      <use xlink:href="#DejaVuSans-74" x="389.294922"/>
      <use xlink:href="#DejaVuSans-69" x="428.503906"/>
      <use xlink:href="#DejaVuSans-6f" x="456.287109"/>
      <use xlink:href="#DejaVuSans-6e" x="517.46875"/>
     </g>
    </g>
   </g>
   <g id="matplotlib.axis_4">
    <g id="ytick_7">
     <g id="line2d_26">
      <g>
       <use xlink:href="#mc46306f43b" x="295.371351" y="206.198125" style="stroke: #000000; stroke-width: 0.8"/>
      </g>
     </g>
     <g id="text_22">
      <!-- 0.0 -->
      <g transform="translate(274.058538 209.617422) scale(0.09 -0.09)">
       <use xlink:href="#DejaVuSans-30"/>
       <use xlink:href="#DejaVuSans-2e" x="63.623047"/>
       <use xlink:href="#DejaVuSans-30" x="95.410156"/>
      </g>
     </g>
    </g>
    <g id="ytick_8">
     <g id="line2d_27">
      <g>
       <use xlink:href="#mc46306f43b" x="295.371351" y="169.422125" style="stroke: #000000; stroke-width: 0.8"/>
      </g>
     </g>
     <g id="text_23">
      <!-- 0.2 -->
      <g transform="translate(274.058538 172.841422) scale(0.09 -0.09)">
       <use xlink:href="#DejaVuSans-30"/>
       <use xlink:href="#DejaVuSans-2e" x="63.623047"/>
       <use xlink:href="#DejaVuSans-32" x="95.410156"/>
      </g>
     </g>
    </g>
    <g id="ytick_9">
     <g id="line2d_28">
      <g>
       <use xlink:href="#mc46306f43b" x="295.371351" y="132.646125" style="stroke: #000000; stroke-width: 0.8"/>
      </g>
     </g>
     <g id="text_24">
      <!-- 0.4 -->
      <g transform="translate(274.058538 136.065422) scale(0.09 -0.09)">
       <use xlink:href="#DejaVuSans-30"/>
       <use xlink:href="#DejaVuSans-2e" x="63.623047"/>
       <use xlink:href="#DejaVuSans-34" x="95.410156"/>
      </g>
     </g>
    </g>
    <g id="ytick_10">
     <g id="line2d_29">
      <g>
       <use xlink:href="#mc46306f43b" x="295.371351" y="95.870125" style="stroke: #000000; stroke-width: 0.8"/>
      </g>
     </g>
     <g id="text_25">
      <!-- 0.6 -->
      <g transform="translate(274.058538 99.289422) scale(0.09 -0.09)">
       <use xlink:href="#DejaVuSans-30"/>
       <use xlink:href="#DejaVuSans-2e" x="63.623047"/>
       <use xlink:href="#DejaVuSans-36" x="95.410156"/>
      </g>
     </g>
    </g>
    <g id="ytick_11">
     <g id="line2d_30">
      <g>
       <use xlink:href="#mc46306f43b" x="295.371351" y="59.094125" style="stroke: #000000; stroke-width: 0.8"/>
      </g>
     </g>
     <g id="text_26">
      <!-- 0.8 -->
      <g transform="translate(274.058538 62.513422) scale(0.09 -0.09)">
       <use xlink:href="#DejaVuSans-30"/>
       <use xlink:href="#DejaVuSans-2e" x="63.623047"/>
       <use xlink:href="#DejaVuSans-38" x="95.410156"/>
      </g>
     </g>
    </g>
    <g id="ytick_12">
     <g id="line2d_31">
      <g>
       <use xlink:href="#mc46306f43b" x="295.371351" y="22.318125" style="stroke: #000000; stroke-width: 0.8"/>
      </g>
     </g>
     <g id="text_27">
      <!-- 1.0 -->
      <g transform="translate(274.058538 25.737422) scale(0.09 -0.09)">
       <use xlink:href="#DejaVuSans-31"/>
       <use xlink:href="#DejaVuSans-2e" x="63.623047"/>
       <use xlink:href="#DejaVuSans-30" x="95.410156"/>
      </g>
     </g>
    </g>
    <g id="text_28">
     <!-- ID Rate -->
     <g transform="translate(267.978851 132.634688) rotate(-90) scale(0.1 -0.1)">
      <use xlink:href="#DejaVuSans-49"/>
      <use xlink:href="#DejaVuSans-44" x="29.492188"/>
      <use xlink:href="#DejaVuSans-20" x="106.494141"/>
      <use xlink:href="#DejaVuSans-52" x="138.28125"/>
      <use xlink:href="#DejaVuSans-61" x="205.513672"/>
      <use xlink:href="#DejaVuSans-74" x="266.792969"/>
      <use xlink:href="#DejaVuSans-65" x="306.001953"/>
     </g>
    </g>
   </g>
   <g id="line2d_32">
    <path d="M 304.775915 44.015965 
L 336.124462 39.933829 
L 367.47301 37.561777 
L 398.821557 35.208113 
L 430.170105 36.274617 
L 461.518652 34.343877 
L 492.8672 33.277373 
" clip-path="url(#pe4ee049b3d)" style="fill: none; stroke-dasharray: 5.55,2.4; stroke-dashoffset: 0; stroke: #1f77b4; stroke-width: 1.5"/>
    <defs>
     <path id="m5a97c67ca9" d="M -3 3 
L 3 -3 
M -3 -3 
L 3 3 
" style="stroke: #1f77b4"/>
    </defs>
    <g clip-path="url(#pe4ee049b3d)">
     <use xlink:href="#m5a97c67ca9" x="304.775915" y="44.015965" style="fill: #1f77b4; stroke: #1f77b4"/>
     <use xlink:href="#m5a97c67ca9" x="336.124462" y="39.933829" style="fill: #1f77b4; stroke: #1f77b4"/>
     <use xlink:href="#m5a97c67ca9" x="367.47301" y="37.561777" style="fill: #1f77b4; stroke: #1f77b4"/>
     <use xlink:href="#m5a97c67ca9" x="398.821557" y="35.208113" style="fill: #1f77b4; stroke: #1f77b4"/>
     <use xlink:href="#m5a97c67ca9" x="430.170105" y="36.274617" style="fill: #1f77b4; stroke: #1f77b4"/>
     <use xlink:href="#m5a97c67ca9" x="461.518652" y="34.343877" style="fill: #1f77b4; stroke: #1f77b4"/>
     <use xlink:href="#m5a97c67ca9" x="492.8672" y="33.277373" style="fill: #1f77b4; stroke: #1f77b4"/>
    </g>
   </g>
   <g id="line2d_33">
    <path d="M 304.775915 169.035977 
L 336.124462 162.158865 
L 367.47301 158.297385 
L 398.821557 158.076729 
L 430.170105 155.281753 
L 461.518652 154.858829 
L 492.8672 155.079485 
" clip-path="url(#pe4ee049b3d)" style="fill: none; stroke-dasharray: 5.55,2.4; stroke-dashoffset: 0; stroke: #ff7f0e; stroke-width: 1.5"/>
    <defs>
     <path id="mb35c668258" d="M -3 3 
L 3 -3 
M -3 -3 
L 3 3 
" style="stroke: #ff7f0e"/>
    </defs>
    <g clip-path="url(#pe4ee049b3d)">
     <use xlink:href="#mb35c668258" x="304.775915" y="169.035977" style="fill: #ff7f0e; stroke: #ff7f0e"/>
     <use xlink:href="#mb35c668258" x="336.124462" y="162.158865" style="fill: #ff7f0e; stroke: #ff7f0e"/>
     <use xlink:href="#mb35c668258" x="367.47301" y="158.297385" style="fill: #ff7f0e; stroke: #ff7f0e"/>
     <use xlink:href="#mb35c668258" x="398.821557" y="158.076729" style="fill: #ff7f0e; stroke: #ff7f0e"/>
     <use xlink:href="#mb35c668258" x="430.170105" y="155.281753" style="fill: #ff7f0e; stroke: #ff7f0e"/>
     <use xlink:href="#mb35c668258" x="461.518652" y="154.858829" style="fill: #ff7f0e; stroke: #ff7f0e"/>
     <use xlink:href="#mb35c668258" x="492.8672" y="155.079485" style="fill: #ff7f0e; stroke: #ff7f0e"/>
    </g>
   </g>
   <g id="line2d_34">
    <path d="M 304.775915 121.778817 
L 336.124462 113.614545 
L 367.47301 114.037469 
L 398.821557 112.750309 
L 430.170105 111.683805 
L 461.518652 116.188865 
L 492.8672 116.832445 
" clip-path="url(#pe4ee049b3d)" style="fill: none; stroke-dasharray: 5.55,2.4; stroke-dashoffset: 0; stroke: #2ca02c; stroke-width: 1.5"/>
    <defs>
     <path id="m3ad4bd98e7" d="M -3 3 
L 3 -3 
M -3 -3 
L 3 3 
" style="stroke: #2ca02c"/>
    </defs>
    <g clip-path="url(#pe4ee049b3d)">
     <use xlink:href="#m3ad4bd98e7" x="304.775915" y="121.778817" style="fill: #2ca02c; stroke: #2ca02c"/>
     <use xlink:href="#m3ad4bd98e7" x="336.124462" y="113.614545" style="fill: #2ca02c; stroke: #2ca02c"/>
     <use xlink:href="#m3ad4bd98e7" x="367.47301" y="114.037469" style="fill: #2ca02c; stroke: #2ca02c"/>
     <use xlink:href="#m3ad4bd98e7" x="398.821557" y="112.750309" style="fill: #2ca02c; stroke: #2ca02c"/>
     <use xlink:href="#m3ad4bd98e7" x="430.170105" y="111.683805" style="fill: #2ca02c; stroke: #2ca02c"/>
     <use xlink:href="#m3ad4bd98e7" x="461.518652" y="116.188865" style="fill: #2ca02c; stroke: #2ca02c"/>
     <use xlink:href="#m3ad4bd98e7" x="492.8672" y="116.832445" style="fill: #2ca02c; stroke: #2ca02c"/>
    </g>
   </g>
   <g id="line2d_35">
    <path d="M 304.775915 89.563041 
L 336.124462 82.465273 
L 367.47301 79.247373 
L 398.821557 76.673053 
L 430.170105 77.518901 
L 461.518652 77.316633 
L 492.8672 76.452397 
" clip-path="url(#pe4ee049b3d)" style="fill: none; stroke-dasharray: 5.55,2.4; stroke-dashoffset: 0; stroke: #d62728; stroke-width: 1.5"/>
    <defs>
     <path id="ma4d6277ab2" d="M -3 3 
L 3 -3 
M -3 -3 
L 3 3 
" style="stroke: #d62728"/>
    </defs>
    <g clip-path="url(#pe4ee049b3d)">
     <use xlink:href="#ma4d6277ab2" x="304.775915" y="89.563041" style="fill: #d62728; stroke: #d62728"/>
     <use xlink:href="#ma4d6277ab2" x="336.124462" y="82.465273" style="fill: #d62728; stroke: #d62728"/>
     <use xlink:href="#ma4d6277ab2" x="367.47301" y="79.247373" style="fill: #d62728; stroke: #d62728"/>
     <use xlink:href="#ma4d6277ab2" x="398.821557" y="76.673053" style="fill: #d62728; stroke: #d62728"/>
     <use xlink:href="#ma4d6277ab2" x="430.170105" y="77.518901" style="fill: #d62728; stroke: #d62728"/>
     <use xlink:href="#ma4d6277ab2" x="461.518652" y="77.316633" style="fill: #d62728; stroke: #d62728"/>
     <use xlink:href="#ma4d6277ab2" x="492.8672" y="76.452397" style="fill: #d62728; stroke: #d62728"/>
    </g>
   </g>
   <g id="line2d_36">
    <path d="M 304.775915 159.161621 
L 336.124462 155.079485 
L 367.47301 152.063853 
L 398.821557 151.843197 
L 430.170105 150.556037 
L 461.518652 150.556037 
L 492.8672 149.268877 
" clip-path="url(#pe4ee049b3d)" style="fill: none; stroke-dasharray: 5.55,2.4; stroke-dashoffset: 0; stroke: #9467bd; stroke-width: 1.5"/>
    <defs>
     <path id="me321cb9ff3" d="M -3 3 
L 3 -3 
M -3 -3 
L 3 3 
" style="stroke: #9467bd"/>
    </defs>
    <g clip-path="url(#pe4ee049b3d)">
     <use xlink:href="#me321cb9ff3" x="304.775915" y="159.161621" style="fill: #9467bd; stroke: #9467bd"/>
     <use xlink:href="#me321cb9ff3" x="336.124462" y="155.079485" style="fill: #9467bd; stroke: #9467bd"/>
     <use xlink:href="#me321cb9ff3" x="367.47301" y="152.063853" style="fill: #9467bd; stroke: #9467bd"/>
     <use xlink:href="#me321cb9ff3" x="398.821557" y="151.843197" style="fill: #9467bd; stroke: #9467bd"/>
     <use xlink:href="#me321cb9ff3" x="430.170105" y="150.556037" style="fill: #9467bd; stroke: #9467bd"/>
     <use xlink:href="#me321cb9ff3" x="461.518652" y="150.556037" style="fill: #9467bd; stroke: #9467bd"/>
     <use xlink:href="#me321cb9ff3" x="492.8672" y="149.268877" style="fill: #9467bd; stroke: #9467bd"/>
    </g>
   </g>
   <g id="line2d_37">
    <path d="M 304.775915 129.943089 
L 336.124462 122.643053 
L 367.47301 118.983841 
L 398.821557 118.119605 
L 430.170105 115.122361 
L 461.518652 115.545285 
L 492.8672 117.476025 
" clip-path="url(#pe4ee049b3d)" style="fill: none; stroke-dasharray: 5.55,2.4; stroke-dashoffset: 0; stroke: #8c564b; stroke-width: 1.5"/>
    <defs>
     <path id="m27a5f0b7c2" d="M -3 3 
L 3 -3 
M -3 -3 
L 3 3 
" style="stroke: #8c564b"/>
    </defs>
    <g clip-path="url(#pe4ee049b3d)">
     <use xlink:href="#m27a5f0b7c2" x="304.775915" y="129.943089" style="fill: #8c564b; stroke: #8c564b"/>
     <use xlink:href="#m27a5f0b7c2" x="336.124462" y="122.643053" style="fill: #8c564b; stroke: #8c564b"/>
     <use xlink:href="#m27a5f0b7c2" x="367.47301" y="118.983841" style="fill: #8c564b; stroke: #8c564b"/>
     <use xlink:href="#m27a5f0b7c2" x="398.821557" y="118.119605" style="fill: #8c564b; stroke: #8c564b"/>
     <use xlink:href="#m27a5f0b7c2" x="430.170105" y="115.122361" style="fill: #8c564b; stroke: #8c564b"/>
     <use xlink:href="#m27a5f0b7c2" x="461.518652" y="115.545285" style="fill: #8c564b; stroke: #8c564b"/>
     <use xlink:href="#m27a5f0b7c2" x="492.8672" y="117.476025" style="fill: #8c564b; stroke: #8c564b"/>
    </g>
   </g>
   <g id="line2d_38">
    <path d="M 304.775915 103.298877 
L 336.124462 97.929581 
L 367.47301 94.491025 
L 398.821557 91.493781 
L 430.170105 89.342385 
L 461.518652 90.629545 
L 492.8672 91.916705 
" clip-path="url(#pe4ee049b3d)" style="fill: none; stroke-dasharray: 5.55,2.4; stroke-dashoffset: 0; stroke: #e377c2; stroke-width: 1.5"/>
    <defs>
     <path id="m3f519a8030" d="M -3 3 
L 3 -3 
M -3 -3 
L 3 3 
" style="stroke: #e377c2"/>
    </defs>
    <g clip-path="url(#pe4ee049b3d)">
     <use xlink:href="#m3f519a8030" x="304.775915" y="103.298877" style="fill: #e377c2; stroke: #e377c2"/>
     <use xlink:href="#m3f519a8030" x="336.124462" y="97.929581" style="fill: #e377c2; stroke: #e377c2"/>
     <use xlink:href="#m3f519a8030" x="367.47301" y="94.491025" style="fill: #e377c2; stroke: #e377c2"/>
     <use xlink:href="#m3f519a8030" x="398.821557" y="91.493781" style="fill: #e377c2; stroke: #e377c2"/>
     <use xlink:href="#m3f519a8030" x="430.170105" y="89.342385" style="fill: #e377c2; stroke: #e377c2"/>
     <use xlink:href="#m3f519a8030" x="461.518652" y="90.629545" style="fill: #e377c2; stroke: #e377c2"/>
     <use xlink:href="#m3f519a8030" x="492.8672" y="91.916705" style="fill: #e377c2; stroke: #e377c2"/>
    </g>
   </g>
   <g id="line2d_39">
    <path d="M 304.775915 96.642421 
L 336.124462 95.998841 
L 367.47301 92.560285 
L 398.821557 89.563041 
L 430.170105 89.342385 
L 461.518652 88.478149 
L 492.8672 83.752433 
" clip-path="url(#pe4ee049b3d)" style="fill: none; stroke-dasharray: 5.55,2.4; stroke-dashoffset: 0; stroke: #7f7f7f; stroke-width: 1.5"/>
    <defs>
     <path id="mac3199f0b3" d="M -3 3 
L 3 -3 
M -3 -3 
L 3 3 
" style="stroke: #7f7f7f"/>
    </defs>
    <g clip-path="url(#pe4ee049b3d)">
     <use xlink:href="#mac3199f0b3" x="304.775915" y="96.642421" style="fill: #7f7f7f; stroke: #7f7f7f"/>
     <use xlink:href="#mac3199f0b3" x="336.124462" y="95.998841" style="fill: #7f7f7f; stroke: #7f7f7f"/>
     <use xlink:href="#mac3199f0b3" x="367.47301" y="92.560285" style="fill: #7f7f7f; stroke: #7f7f7f"/>
     <use xlink:href="#mac3199f0b3" x="398.821557" y="89.563041" style="fill: #7f7f7f; stroke: #7f7f7f"/>
     <use xlink:href="#mac3199f0b3" x="430.170105" y="89.342385" style="fill: #7f7f7f; stroke: #7f7f7f"/>
     <use xlink:href="#mac3199f0b3" x="461.518652" y="88.478149" style="fill: #7f7f7f; stroke: #7f7f7f"/>
     <use xlink:href="#mac3199f0b3" x="492.8672" y="83.752433" style="fill: #7f7f7f; stroke: #7f7f7f"/>
    </g>
   </g>
   <g id="patch_8">
    <path d="M 295.371351 206.198125 
L 295.371351 22.318125 
" style="fill: none; stroke: #000000; stroke-width: 0.8; stroke-linejoin: miter; stroke-linecap: square"/>
   </g>
   <g id="patch_9">
    <path d="M 502.271764 206.198125 
L 502.271764 22.318125 
" style="fill: none; stroke: #000000; stroke-width: 0.8; stroke-linejoin: miter; stroke-linecap: square"/>
   </g>
   <g id="patch_10">
    <path d="M 295.371351 206.198125 
L 502.271764 206.198125 
" style="fill: none; stroke: #000000; stroke-width: 0.8; stroke-linejoin: miter; stroke-linecap: square"/>
   </g>
   <g id="patch_11">
    <path d="M 295.371351 22.318125 
L 502.271764 22.318125 
" style="fill: none; stroke: #000000; stroke-width: 0.8; stroke-linejoin: miter; stroke-linecap: square"/>
   </g>
   <g id="text_29">
    <!-- τ=4 -->
    <g style="fill: #1f77b4" transform="translate(297.50904 37.015965) scale(0.07 -0.07)">
     <defs>
      <path id="DejaVuSans-3c4" d="M 2319 638 
Q 2431 488 2769 488 
L 3047 488 
L 3047 0 
L 2700 0 
Q 2138 0 1881 300 
Q 1625 606 1625 1269 
L 1625 2925 
L 313 2925 
L 313 3500 
L 3541 3500 
L 3541 2925 
L 2213 2925 
L 2213 1234 
Q 2213 781 2319 638 
z
" transform="scale(0.015625)"/>
      <path id="DejaVuSans-3d" d="M 678 2906 
L 4684 2906 
L 4684 2381 
L 678 2381 
L 678 2906 
z
M 678 1631 
L 4684 1631 
L 4684 1100 
L 678 1100 
L 678 1631 
z
" transform="scale(0.015625)"/>
     </defs>
     <use xlink:href="#DejaVuSans-3c4"/>
     <use xlink:href="#DejaVuSans-3d" x="60.205078"/>
     <use xlink:href="#DejaVuSans-34" x="143.994141"/>
    </g>
   </g>
   <g id="text_30">
    <!-- τ=10 -->
    <g style="fill: #1f77b4" transform="translate(326.630712 32.933829) scale(0.07 -0.07)">
     <use xlink:href="#DejaVuSans-3c4"/>
     <use xlink:href="#DejaVuSans-3d" x="60.205078"/>
     <use xlink:href="#DejaVuSans-31" x="143.994141"/>
     <use xlink:href="#DejaVuSans-30" x="207.617188"/>
    </g>
   </g>
   <g id="text_31">
    <!-- τ=10 -->
    <g style="fill: #1f77b4" transform="translate(357.97926 30.561777) scale(0.07 -0.07)">
     <use xlink:href="#DejaVuSans-3c4"/>
     <use xlink:href="#DejaVuSans-3d" x="60.205078"/>
     <use xlink:href="#DejaVuSans-31" x="143.994141"/>
     <use xlink:href="#DejaVuSans-30" x="207.617188"/>
    </g>
   </g>
   <g id="text_32">
    <!-- τ=12 -->
    <g style="fill: #1f77b4" transform="translate(389.327807 28.208113) scale(0.07 -0.07)">
     <use xlink:href="#DejaVuSans-3c4"/>
     <use xlink:href="#DejaVuSans-3d" x="60.205078"/>
     <use xlink:href="#DejaVuSans-31" x="143.994141"/>
     <use xlink:href="#DejaVuSans-32" x="207.617188"/>
    </g>
   </g>
   <g id="text_33">
    <!-- τ=28 -->
    <g style="fill: #1f77b4" transform="translate(420.676355 29.274617) scale(0.07 -0.07)">
     <use xlink:href="#DejaVuSans-3c4"/>
     <use xlink:href="#DejaVuSans-3d" x="60.205078"/>
     <use xlink:href="#DejaVuSans-32" x="143.994141"/>
     <use xlink:href="#DejaVuSans-38" x="207.617188"/>
    </g>
   </g>
   <g id="text_34">
    <!-- τ=20 -->
    <g style="fill: #1f77b4" transform="translate(452.024902 27.343877) scale(0.07 -0.07)">
     <use xlink:href="#DejaVuSans-3c4"/>
     <use xlink:href="#DejaVuSans-3d" x="60.205078"/>
     <use xlink:href="#DejaVuSans-32" x="143.994141"/>
     <use xlink:href="#DejaVuSans-30" x="207.617188"/>
    </g>
   </g>
   <g id="text_35">
    <!-- τ=22 -->
    <g style="fill: #1f77b4" transform="translate(483.37345 26.277373) scale(0.07 -0.07)">
     <use xlink:href="#DejaVuSans-3c4"/>
     <use xlink:href="#DejaVuSans-3d" x="60.205078"/>
     <use xlink:href="#DejaVuSans-32" x="143.994141"/>
     <use xlink:href="#DejaVuSans-32" x="207.617188"/>
    </g>
   </g>
   <g id="text_36">
    <!-- τ=30 -->
    <g style="fill: #ff7f0e" transform="translate(295.282165 162.035977) scale(0.07 -0.07)">
     <use xlink:href="#DejaVuSans-3c4"/>
     <use xlink:href="#DejaVuSans-3d" x="60.205078"/>
     <use xlink:href="#DejaVuSans-33" x="143.994141"/>
     <use xlink:href="#DejaVuSans-30" x="207.617188"/>
    </g>
   </g>
   <g id="text_37">
    <!-- τ=40 -->
    <g style="fill: #ff7f0e" transform="translate(326.630712 155.158865) scale(0.07 -0.07)">
     <use xlink:href="#DejaVuSans-3c4"/>
     <use xlink:href="#DejaVuSans-3d" x="60.205078"/>
     <use xlink:href="#DejaVuSans-34" x="143.994141"/>
     <use xlink:href="#DejaVuSans-30" x="207.617188"/>
    </g>
   </g>
   <g id="text_38">
    <!-- τ=46 -->
    <g style="fill: #ff7f0e" transform="translate(357.97926 151.297385) scale(0.07 -0.07)">
     <use xlink:href="#DejaVuSans-3c4"/>
     <use xlink:href="#DejaVuSans-3d" x="60.205078"/>
     <use xlink:href="#DejaVuSans-34" x="143.994141"/>
     <use xlink:href="#DejaVuSans-36" x="207.617188"/>
    </g>
   </g>
   <g id="text_39">
    <!-- τ=48 -->
    <g style="fill: #ff7f0e" transform="translate(389.327807 151.076729) scale(0.07 -0.07)">
     <use xlink:href="#DejaVuSans-3c4"/>
     <use xlink:href="#DejaVuSans-3d" x="60.205078"/>
     <use xlink:href="#DejaVuSans-34" x="143.994141"/>
     <use xlink:href="#DejaVuSans-38" x="207.617188"/>
    </g>
   </g>
   <g id="text_40">
    <!-- τ=48 -->
    <g style="fill: #ff7f0e" transform="translate(420.676355 148.281753) scale(0.07 -0.07)">
     <use xlink:href="#DejaVuSans-3c4"/>
     <use xlink:href="#DejaVuSans-3d" x="60.205078"/>
     <use xlink:href="#DejaVuSans-34" x="143.994141"/>
     <use xlink:href="#DejaVuSans-38" x="207.617188"/>
    </g>
   </g>
   <g id="text_41">
    <!-- τ=48 -->
    <g style="fill: #ff7f0e" transform="translate(452.024902 147.858829) scale(0.07 -0.07)">
     <use xlink:href="#DejaVuSans-3c4"/>
     <use xlink:href="#DejaVuSans-3d" x="60.205078"/>
     <use xlink:href="#DejaVuSans-34" x="143.994141"/>
     <use xlink:href="#DejaVuSans-38" x="207.617188"/>
    </g>
   </g>
   <g id="text_42">
    <!-- τ=48 -->
    <g style="fill: #ff7f0e" transform="translate(483.37345 148.079485) scale(0.07 -0.07)">
     <use xlink:href="#DejaVuSans-3c4"/>
     <use xlink:href="#DejaVuSans-3d" x="60.205078"/>
     <use xlink:href="#DejaVuSans-34" x="143.994141"/>
     <use xlink:href="#DejaVuSans-38" x="207.617188"/>
    </g>
   </g>
   <g id="text_43">
    <!-- τ=30 -->
    <g style="fill: #2ca02c" transform="translate(295.282165 114.778817) scale(0.07 -0.07)">
     <use xlink:href="#DejaVuSans-3c4"/>
     <use xlink:href="#DejaVuSans-3d" x="60.205078"/>
     <use xlink:href="#DejaVuSans-33" x="143.994141"/>
     <use xlink:href="#DejaVuSans-30" x="207.617188"/>
    </g>
   </g>
   <g id="text_44">
    <!-- τ=42 -->
    <g style="fill: #2ca02c" transform="translate(326.630712 106.614545) scale(0.07 -0.07)">
     <use xlink:href="#DejaVuSans-3c4"/>
     <use xlink:href="#DejaVuSans-3d" x="60.205078"/>
     <use xlink:href="#DejaVuSans-34" x="143.994141"/>
     <use xlink:href="#DejaVuSans-32" x="207.617188"/>
    </g>
   </g>
   <g id="text_45">
    <!-- τ=42 -->
    <g style="fill: #2ca02c" transform="translate(357.97926 107.037469) scale(0.07 -0.07)">
     <use xlink:href="#DejaVuSans-3c4"/>
     <use xlink:href="#DejaVuSans-3d" x="60.205078"/>
     <use xlink:href="#DejaVuSans-34" x="143.994141"/>
     <use xlink:href="#DejaVuSans-32" x="207.617188"/>
    </g>
   </g>
   <g id="text_46">
    <!-- τ=42 -->
    <g style="fill: #2ca02c" transform="translate(389.327807 105.750309) scale(0.07 -0.07)">
     <use xlink:href="#DejaVuSans-3c4"/>
     <use xlink:href="#DejaVuSans-3d" x="60.205078"/>
     <use xlink:href="#DejaVuSans-34" x="143.994141"/>
     <use xlink:href="#DejaVuSans-32" x="207.617188"/>
    </g>
   </g>
   <g id="text_47">
    <!-- τ=42 -->
    <g style="fill: #2ca02c" transform="translate(420.676355 104.683805) scale(0.07 -0.07)">
     <use xlink:href="#DejaVuSans-3c4"/>
     <use xlink:href="#DejaVuSans-3d" x="60.205078"/>
     <use xlink:href="#DejaVuSans-34" x="143.994141"/>
     <use xlink:href="#DejaVuSans-32" x="207.617188"/>
    </g>
   </g>
   <g id="text_48">
    <!-- τ=42 -->
    <g style="fill: #2ca02c" transform="translate(452.024902 109.188865) scale(0.07 -0.07)">
     <use xlink:href="#DejaVuSans-3c4"/>
     <use xlink:href="#DejaVuSans-3d" x="60.205078"/>
     <use xlink:href="#DejaVuSans-34" x="143.994141"/>
     <use xlink:href="#DejaVuSans-32" x="207.617188"/>
    </g>
   </g>
   <g id="text_49">
    <!-- τ=42 -->
    <g style="fill: #2ca02c" transform="translate(483.37345 109.832445) scale(0.07 -0.07)">
     <use xlink:href="#DejaVuSans-3c4"/>
     <use xlink:href="#DejaVuSans-3d" x="60.205078"/>
     <use xlink:href="#DejaVuSans-34" x="143.994141"/>
     <use xlink:href="#DejaVuSans-32" x="207.617188"/>
    </g>
   </g>
   <g id="text_50">
    <!-- τ=22 -->
    <g style="fill: #d62728" transform="translate(295.282165 82.563041) scale(0.07 -0.07)">
     <use xlink:href="#DejaVuSans-3c4"/>
     <use xlink:href="#DejaVuSans-3d" x="60.205078"/>
     <use xlink:href="#DejaVuSans-32" x="143.994141"/>
     <use xlink:href="#DejaVuSans-32" x="207.617188"/>
    </g>
   </g>
   <g id="text_51">
    <!-- τ=30 -->
    <g style="fill: #d62728" transform="translate(326.630712 75.465273) scale(0.07 -0.07)">
     <use xlink:href="#DejaVuSans-3c4"/>
     <use xlink:href="#DejaVuSans-3d" x="60.205078"/>
     <use xlink:href="#DejaVuSans-33" x="143.994141"/>
     <use xlink:href="#DejaVuSans-30" x="207.617188"/>
    </g>
   </g>
   <g id="text_52">
    <!-- τ=50 -->
    <g style="fill: #d62728" transform="translate(357.97926 72.247373) scale(0.07 -0.07)">
     <use xlink:href="#DejaVuSans-3c4"/>
     <use xlink:href="#DejaVuSans-3d" x="60.205078"/>
     <use xlink:href="#DejaVuSans-35" x="143.994141"/>
     <use xlink:href="#DejaVuSans-30" x="207.617188"/>
    </g>
   </g>
   <g id="text_53">
    <!-- τ=42 -->
    <g style="fill: #d62728" transform="translate(389.327807 69.673053) scale(0.07 -0.07)">
     <use xlink:href="#DejaVuSans-3c4"/>
     <use xlink:href="#DejaVuSans-3d" x="60.205078"/>
     <use xlink:href="#DejaVuSans-34" x="143.994141"/>
     <use xlink:href="#DejaVuSans-32" x="207.617188"/>
    </g>
   </g>
   <g id="text_54">
    <!-- τ=34 -->
    <g style="fill: #d62728" transform="translate(420.676355 70.518901) scale(0.07 -0.07)">
     <use xlink:href="#DejaVuSans-3c4"/>
     <use xlink:href="#DejaVuSans-3d" x="60.205078"/>
     <use xlink:href="#DejaVuSans-33" x="143.994141"/>
     <use xlink:href="#DejaVuSans-34" x="207.617188"/>
    </g>
   </g>
   <g id="text_55">
    <!-- τ=40 -->
    <g style="fill: #d62728" transform="translate(452.024902 70.316633) scale(0.07 -0.07)">
     <use xlink:href="#DejaVuSans-3c4"/>
     <use xlink:href="#DejaVuSans-3d" x="60.205078"/>
     <use xlink:href="#DejaVuSans-34" x="143.994141"/>
     <use xlink:href="#DejaVuSans-30" x="207.617188"/>
    </g>
   </g>
   <g id="text_56">
    <!-- τ=42 -->
    <g style="fill: #d62728" transform="translate(483.37345 69.452397) scale(0.07 -0.07)">
     <use xlink:href="#DejaVuSans-3c4"/>
     <use xlink:href="#DejaVuSans-3d" x="60.205078"/>
     <use xlink:href="#DejaVuSans-34" x="143.994141"/>
     <use xlink:href="#DejaVuSans-32" x="207.617188"/>
    </g>
   </g>
   <g id="text_57">
    <!-- τ=26 -->
    <g style="fill: #9467bd" transform="translate(295.282165 152.161621) scale(0.07 -0.07)">
     <use xlink:href="#DejaVuSans-3c4"/>
     <use xlink:href="#DejaVuSans-3d" x="60.205078"/>
     <use xlink:href="#DejaVuSans-32" x="143.994141"/>
     <use xlink:href="#DejaVuSans-36" x="207.617188"/>
    </g>
   </g>
   <g id="text_58">
    <!-- τ=44 -->
    <g style="fill: #9467bd" transform="translate(326.630712 148.079485) scale(0.07 -0.07)">
     <use xlink:href="#DejaVuSans-3c4"/>
     <use xlink:href="#DejaVuSans-3d" x="60.205078"/>
     <use xlink:href="#DejaVuSans-34" x="143.994141"/>
     <use xlink:href="#DejaVuSans-34" x="207.617188"/>
    </g>
   </g>
   <g id="text_59">
    <!-- τ=42 -->
    <g style="fill: #9467bd" transform="translate(357.97926 145.063853) scale(0.07 -0.07)">
     <use xlink:href="#DejaVuSans-3c4"/>
     <use xlink:href="#DejaVuSans-3d" x="60.205078"/>
     <use xlink:href="#DejaVuSans-34" x="143.994141"/>
     <use xlink:href="#DejaVuSans-32" x="207.617188"/>
    </g>
   </g>
   <g id="text_60">
    <!-- τ=40 -->
    <g style="fill: #9467bd" transform="translate(389.327807 144.843197) scale(0.07 -0.07)">
     <use xlink:href="#DejaVuSans-3c4"/>
     <use xlink:href="#DejaVuSans-3d" x="60.205078"/>
     <use xlink:href="#DejaVuSans-34" x="143.994141"/>
     <use xlink:href="#DejaVuSans-30" x="207.617188"/>
    </g>
   </g>
   <g id="text_61">
    <!-- τ=42 -->
    <g style="fill: #9467bd" transform="translate(420.676355 143.556037) scale(0.07 -0.07)">
     <use xlink:href="#DejaVuSans-3c4"/>
     <use xlink:href="#DejaVuSans-3d" x="60.205078"/>
     <use xlink:href="#DejaVuSans-34" x="143.994141"/>
     <use xlink:href="#DejaVuSans-32" x="207.617188"/>
    </g>
   </g>
   <g id="text_62">
    <!-- τ=42 -->
    <g style="fill: #9467bd" transform="translate(452.024902 143.556037) scale(0.07 -0.07)">
     <use xlink:href="#DejaVuSans-3c4"/>
     <use xlink:href="#DejaVuSans-3d" x="60.205078"/>
     <use xlink:href="#DejaVuSans-34" x="143.994141"/>
     <use xlink:href="#DejaVuSans-32" x="207.617188"/>
    </g>
   </g>
   <g id="text_63">
    <!-- τ=42 -->
    <g style="fill: #9467bd" transform="translate(483.37345 142.268877) scale(0.07 -0.07)">
     <use xlink:href="#DejaVuSans-3c4"/>
     <use xlink:href="#DejaVuSans-3d" x="60.205078"/>
     <use xlink:href="#DejaVuSans-34" x="143.994141"/>
     <use xlink:href="#DejaVuSans-32" x="207.617188"/>
    </g>
   </g>
   <g id="text_64">
    <!-- τ=26 -->
    <g style="fill: #8c564b" transform="translate(295.282165 122.943089) scale(0.07 -0.07)">
     <use xlink:href="#DejaVuSans-3c4"/>
     <use xlink:href="#DejaVuSans-3d" x="60.205078"/>
     <use xlink:href="#DejaVuSans-32" x="143.994141"/>
     <use xlink:href="#DejaVuSans-36" x="207.617188"/>
    </g>
   </g>
   <g id="text_65">
    <!-- τ=28 -->
    <g style="fill: #8c564b" transform="translate(326.630712 115.643053) scale(0.07 -0.07)">
     <use xlink:href="#DejaVuSans-3c4"/>
     <use xlink:href="#DejaVuSans-3d" x="60.205078"/>
     <use xlink:href="#DejaVuSans-32" x="143.994141"/>
     <use xlink:href="#DejaVuSans-38" x="207.617188"/>
    </g>
   </g>
   <g id="text_66">
    <!-- τ=36 -->
    <g style="fill: #8c564b" transform="translate(357.97926 111.983841) scale(0.07 -0.07)">
     <use xlink:href="#DejaVuSans-3c4"/>
     <use xlink:href="#DejaVuSans-3d" x="60.205078"/>
     <use xlink:href="#DejaVuSans-33" x="143.994141"/>
     <use xlink:href="#DejaVuSans-36" x="207.617188"/>
    </g>
   </g>
   <g id="text_67">
    <!-- τ=36 -->
    <g style="fill: #8c564b" transform="translate(389.327807 111.119605) scale(0.07 -0.07)">
     <use xlink:href="#DejaVuSans-3c4"/>
     <use xlink:href="#DejaVuSans-3d" x="60.205078"/>
     <use xlink:href="#DejaVuSans-33" x="143.994141"/>
     <use xlink:href="#DejaVuSans-36" x="207.617188"/>
    </g>
   </g>
   <g id="text_68">
    <!-- τ=40 -->
    <g style="fill: #8c564b" transform="translate(420.676355 108.122361) scale(0.07 -0.07)">
     <use xlink:href="#DejaVuSans-3c4"/>
     <use xlink:href="#DejaVuSans-3d" x="60.205078"/>
     <use xlink:href="#DejaVuSans-34" x="143.994141"/>
     <use xlink:href="#DejaVuSans-30" x="207.617188"/>
    </g>
   </g>
   <g id="text_69">
    <!-- τ=40 -->
    <g style="fill: #8c564b" transform="translate(452.024902 108.545285) scale(0.07 -0.07)">
     <use xlink:href="#DejaVuSans-3c4"/>
     <use xlink:href="#DejaVuSans-3d" x="60.205078"/>
     <use xlink:href="#DejaVuSans-34" x="143.994141"/>
     <use xlink:href="#DejaVuSans-30" x="207.617188"/>
    </g>
   </g>
   <g id="text_70">
    <!-- τ=40 -->
    <g style="fill: #8c564b" transform="translate(483.37345 110.476025) scale(0.07 -0.07)">
     <use xlink:href="#DejaVuSans-3c4"/>
     <use xlink:href="#DejaVuSans-3d" x="60.205078"/>
     <use xlink:href="#DejaVuSans-34" x="143.994141"/>
     <use xlink:href="#DejaVuSans-30" x="207.617188"/>
    </g>
   </g>
   <g id="text_71">
    <!-- τ=40 -->
    <g style="fill: #e377c2" transform="translate(295.282165 96.298877) scale(0.07 -0.07)">
     <use xlink:href="#DejaVuSans-3c4"/>
     <use xlink:href="#DejaVuSans-3d" x="60.205078"/>
     <use xlink:href="#DejaVuSans-34" x="143.994141"/>
     <use xlink:href="#DejaVuSans-30" x="207.617188"/>
    </g>
   </g>
   <g id="text_72">
    <!-- τ=44 -->
    <g style="fill: #e377c2" transform="translate(326.630712 90.929581) scale(0.07 -0.07)">
     <use xlink:href="#DejaVuSans-3c4"/>
     <use xlink:href="#DejaVuSans-3d" x="60.205078"/>
     <use xlink:href="#DejaVuSans-34" x="143.994141"/>
     <use xlink:href="#DejaVuSans-34" x="207.617188"/>
    </g>
   </g>
   <g id="text_73">
    <!-- τ=40 -->
    <g style="fill: #e377c2" transform="translate(357.97926 87.491025) scale(0.07 -0.07)">
     <use xlink:href="#DejaVuSans-3c4"/>
     <use xlink:href="#DejaVuSans-3d" x="60.205078"/>
     <use xlink:href="#DejaVuSans-34" x="143.994141"/>
     <use xlink:href="#DejaVuSans-30" x="207.617188"/>
    </g>
   </g>
   <g id="text_74">
    <!-- τ=42 -->
    <g style="fill: #e377c2" transform="translate(389.327807 84.493781) scale(0.07 -0.07)">
     <use xlink:href="#DejaVuSans-3c4"/>
     <use xlink:href="#DejaVuSans-3d" x="60.205078"/>
     <use xlink:href="#DejaVuSans-34" x="143.994141"/>
     <use xlink:href="#DejaVuSans-32" x="207.617188"/>
    </g>
   </g>
   <g id="text_75">
    <!-- τ=42 -->
    <g style="fill: #e377c2" transform="translate(420.676355 82.342385) scale(0.07 -0.07)">
     <use xlink:href="#DejaVuSans-3c4"/>
     <use xlink:href="#DejaVuSans-3d" x="60.205078"/>
     <use xlink:href="#DejaVuSans-34" x="143.994141"/>
     <use xlink:href="#DejaVuSans-32" x="207.617188"/>
    </g>
   </g>
   <g id="text_76">
    <!-- τ=42 -->
    <g style="fill: #e377c2" transform="translate(452.024902 83.629545) scale(0.07 -0.07)">
     <use xlink:href="#DejaVuSans-3c4"/>
     <use xlink:href="#DejaVuSans-3d" x="60.205078"/>
     <use xlink:href="#DejaVuSans-34" x="143.994141"/>
     <use xlink:href="#DejaVuSans-32" x="207.617188"/>
    </g>
   </g>
   <g id="text_77">
    <!-- τ=40 -->
    <g style="fill: #e377c2" transform="translate(483.37345 84.916705) scale(0.07 -0.07)">
     <use xlink:href="#DejaVuSans-3c4"/>
     <use xlink:href="#DejaVuSans-3d" x="60.205078"/>
     <use xlink:href="#DejaVuSans-34" x="143.994141"/>
     <use xlink:href="#DejaVuSans-30" x="207.617188"/>
    </g>
   </g>
   <g id="text_78">
    <!-- τ=0 -->
    <g style="fill: #7f7f7f" transform="translate(297.50904 89.642421) scale(0.07 -0.07)">
     <use xlink:href="#DejaVuSans-3c4"/>
     <use xlink:href="#DejaVuSans-3d" x="60.205078"/>
     <use xlink:href="#DejaVuSans-30" x="143.994141"/>
    </g>
   </g>
   <g id="text_79">
    <!-- τ=26 -->
    <g style="fill: #7f7f7f" transform="translate(326.630712 88.998841) scale(0.07 -0.07)">
     <use xlink:href="#DejaVuSans-3c4"/>
     <use xlink:href="#DejaVuSans-3d" x="60.205078"/>
     <use xlink:href="#DejaVuSans-32" x="143.994141"/>
     <use xlink:href="#DejaVuSans-36" x="207.617188"/>
    </g>
   </g>
   <g id="text_80">
    <!-- τ=36 -->
    <g style="fill: #7f7f7f" transform="translate(357.97926 85.560285) scale(0.07 -0.07)">
     <use xlink:href="#DejaVuSans-3c4"/>
     <use xlink:href="#DejaVuSans-3d" x="60.205078"/>
     <use xlink:href="#DejaVuSans-33" x="143.994141"/>
     <use xlink:href="#DejaVuSans-36" x="207.617188"/>
    </g>
   </g>
   <g id="text_81">
    <!-- τ=36 -->
    <g style="fill: #7f7f7f" transform="translate(389.327807 82.563041) scale(0.07 -0.07)">
     <use xlink:href="#DejaVuSans-3c4"/>
     <use xlink:href="#DejaVuSans-3d" x="60.205078"/>
     <use xlink:href="#DejaVuSans-33" x="143.994141"/>
     <use xlink:href="#DejaVuSans-36" x="207.617188"/>
    </g>
   </g>
   <g id="text_82">
    <!-- τ=32 -->
    <g style="fill: #7f7f7f" transform="translate(420.676355 82.342385) scale(0.07 -0.07)">
     <use xlink:href="#DejaVuSans-3c4"/>
     <use xlink:href="#DejaVuSans-3d" x="60.205078"/>
     <use xlink:href="#DejaVuSans-33" x="143.994141"/>
     <use xlink:href="#DejaVuSans-32" x="207.617188"/>
    </g>
   </g>
   <g id="text_83">
    <!-- τ=36 -->
    <g style="fill: #7f7f7f" transform="translate(452.024902 81.478149) scale(0.07 -0.07)">
     <use xlink:href="#DejaVuSans-3c4"/>
     <use xlink:href="#DejaVuSans-3d" x="60.205078"/>
     <use xlink:href="#DejaVuSans-33" x="143.994141"/>
     <use xlink:href="#DejaVuSans-36" x="207.617188"/>
    </g>
   </g>
   <g id="text_84">
    <!-- τ=46 -->
    <g style="fill: #7f7f7f" transform="translate(483.37345 76.752433) scale(0.07 -0.07)">
     <use xlink:href="#DejaVuSans-3c4"/>
     <use xlink:href="#DejaVuSans-3d" x="60.205078"/>
     <use xlink:href="#DejaVuSans-34" x="143.994141"/>
     <use xlink:href="#DejaVuSans-36" x="207.617188"/>
    </g>
   </g>
   <g id="text_85">
    <!-- High Regularization (τ &gt; 1) -->
    <g transform="translate(307.070307 16.318125) scale(0.12 -0.12)">
     <defs>
      <path id="DejaVuSans-Bold-48" d="M 588 4666 
L 1791 4666 
L 1791 2888 
L 3566 2888 
L 3566 4666 
L 4769 4666 
L 4769 0 
L 3566 0 
L 3566 1978 
L 1791 1978 
L 1791 0 
L 588 0 
L 588 4666 
z
" transform="scale(0.015625)"/>
      <path id="DejaVuSans-Bold-68" d="M 4056 2131 
L 4056 0 
L 2931 0 
L 2931 347 
L 2931 1625 
Q 2931 2084 2911 2256 
Q 2891 2428 2841 2509 
Q 2775 2619 2662 2680 
Q 2550 2741 2406 2741 
Q 2056 2741 1856 2470 
Q 1656 2200 1656 1722 
L 1656 0 
L 538 0 
L 538 4863 
L 1656 4863 
L 1656 2988 
Q 1909 3294 2193 3439 
Q 2478 3584 2822 3584 
Q 3428 3584 3742 3212 
Q 4056 2841 4056 2131 
z
" transform="scale(0.015625)"/>
      <path id="DejaVuSans-Bold-3e" d="M 678 3041 
L 678 3822 
L 4684 2375 
L 4684 1638 
L 678 191 
L 678 972 
L 3694 2003 
L 678 3041 
z
" transform="scale(0.015625)"/>
     </defs>
     <use xlink:href="#DejaVuSans-Bold-48"/>
     <use xlink:href="#DejaVuSans-Bold-69" x="83.691406"/>
     <use xlink:href="#DejaVuSans-Bold-67" x="117.96875"/>
     <use xlink:href="#DejaVuSans-Bold-68" x="189.550781"/>
     <use xlink:href="#DejaVuSans-Bold-20" x="260.742188"/>
     <use xlink:href="#DejaVuSans-Bold-52" x="295.556641"/>
     <use xlink:href="#DejaVuSans-Bold-65" x="372.558594"/>
     <use xlink:href="#DejaVuSans-Bold-67" x="440.380859"/>
     <use xlink:href="#DejaVuSans-Bold-75" x="511.962891"/>
     <use xlink:href="#DejaVuSans-Bold-6c" x="583.154297"/>
     <use xlink:href="#DejaVuSans-Bold-61" x="617.431641"/>
     <use xlink:href="#DejaVuSans-Bold-72" x="684.912109"/>
     <use xlink:href="#DejaVuSans-Bold-69" x="734.228516"/>
     <use xlink:href="#DejaVuSans-Bold-7a" x="768.505859"/>
     <use xlink:href="#DejaVuSans-Bold-61" x="826.708984"/>
     <use xlink:href="#DejaVuSans-Bold-74" x="894.189453"/>
     <use xlink:href="#DejaVuSans-Bold-69" x="941.992188"/>
     <use xlink:href="#DejaVuSans-Bold-6f" x="976.269531"/>
     <use xlink:href="#DejaVuSans-Bold-6e" x="1044.970703"/>
     <use xlink:href="#DejaVuSans-Bold-20" x="1116.162109"/>
     <use xlink:href="#DejaVuSans-Bold-28" x="1150.976562"/>
     <use xlink:href="#DejaVuSans-Bold-3c4" x="1196.679688"/>
     <use xlink:href="#DejaVuSans-Bold-20" x="1260.498047"/>
     <use xlink:href="#DejaVuSans-Bold-3e" x="1295.3125"/>
     <use xlink:href="#DejaVuSans-Bold-20" x="1379.101562"/>
     <use xlink:href="#DejaVuSans-Bold-31" x="1413.916016"/>
     <use xlink:href="#DejaVuSans-Bold-29" x="1483.496094"/>
    </g>
   </g>
  </g>
  <g id="legend_1">
   <g id="line2d_40">
    <path d="M 527.594938 74.535469 
L 536.594938 74.535469 
L 545.594938 74.535469 
" style="fill: none; stroke: #1f77b4; stroke-width: 1.5; stroke-linecap: square"/>
    <g>
     <use xlink:href="#mbb4737b11d" x="536.594938" y="74.535469" style="fill: #1f77b4; stroke: #1f77b4"/>
    </g>
   </g>
   <g id="text_86">
    <!-- REST -->
    <g transform="translate(552.794938 77.685469) scale(0.09 -0.09)">
     <defs>
      <path id="DejaVuSans-45" d="M 628 4666 
L 3578 4666 
L 3578 4134 
L 1259 4134 
L 1259 2753 
L 3481 2753 
L 3481 2222 
L 1259 2222 
L 1259 531 
L 3634 531 
L 3634 0 
L 628 0 
L 628 4666 
z
" transform="scale(0.015625)"/>
      <path id="DejaVuSans-53" d="M 3425 4513 
L 3425 3897 
Q 3066 4069 2747 4153 
Q 2428 4238 2131 4238 
Q 1616 4238 1336 4038 
Q 1056 3838 1056 3469 
Q 1056 3159 1242 3001 
Q 1428 2844 1947 2747 
L 2328 2669 
Q 3034 2534 3370 2195 
Q 3706 1856 3706 1288 
Q 3706 609 3251 259 
Q 2797 -91 1919 -91 
Q 1588 -91 1214 -16 
Q 841 59 441 206 
L 441 856 
Q 825 641 1194 531 
Q 1563 422 1919 422 
Q 2459 422 2753 634 
Q 3047 847 3047 1241 
Q 3047 1584 2836 1778 
Q 2625 1972 2144 2069 
L 1759 2144 
Q 1053 2284 737 2584 
Q 422 2884 422 3419 
Q 422 4038 858 4394 
Q 1294 4750 2059 4750 
Q 2388 4750 2728 4690 
Q 3069 4631 3425 4513 
z
" transform="scale(0.015625)"/>
      <path id="DejaVuSans-54" d="M -19 4666 
L 3928 4666 
L 3928 4134 
L 2272 4134 
L 2272 0 
L 1638 0 
L 1638 4134 
L -19 4134 
L -19 4666 
z
" transform="scale(0.015625)"/>
     </defs>
     <use xlink:href="#DejaVuSans-52"/>
     <use xlink:href="#DejaVuSans-45" x="69.482422"/>
     <use xlink:href="#DejaVuSans-53" x="132.666016"/>
     <use xlink:href="#DejaVuSans-54" x="196.142578"/>
    </g>
   </g>
   <g id="line2d_41">
    <path d="M 527.594938 87.745781 
L 536.594938 87.745781 
L 545.594938 87.745781 
" style="fill: none; stroke: #ff7f0e; stroke-width: 1.5; stroke-linecap: square"/>
    <g>
     <use xlink:href="#m6468775285" x="536.594938" y="87.745781" style="fill: #ff7f0e; stroke: #ff7f0e"/>
    </g>
   </g>
   <g id="text_87">
    <!-- EMOTION -->
    <g transform="translate(552.794938 90.895781) scale(0.09 -0.09)">
     <defs>
      <path id="DejaVuSans-4d" d="M 628 4666 
L 1569 4666 
L 2759 1491 
L 3956 4666 
L 4897 4666 
L 4897 0 
L 4281 0 
L 4281 4097 
L 3078 897 
L 2444 897 
L 1241 4097 
L 1241 0 
L 628 0 
L 628 4666 
z
" transform="scale(0.015625)"/>
      <path id="DejaVuSans-4f" d="M 2522 4238 
Q 1834 4238 1429 3725 
Q 1025 3213 1025 2328 
Q 1025 1447 1429 934 
Q 1834 422 2522 422 
Q 3209 422 3611 934 
Q 4013 1447 4013 2328 
Q 4013 3213 3611 3725 
Q 3209 4238 2522 4238 
z
M 2522 4750 
Q 3503 4750 4090 4092 
Q 4678 3434 4678 2328 
Q 4678 1225 4090 567 
Q 3503 -91 2522 -91 
Q 1538 -91 948 565 
Q 359 1222 359 2328 
Q 359 3434 948 4092 
Q 1538 4750 2522 4750 
z
" transform="scale(0.015625)"/>
      <path id="DejaVuSans-4e" d="M 628 4666 
L 1478 4666 
L 3547 763 
L 3547 4666 
L 4159 4666 
L 4159 0 
L 3309 0 
L 1241 3903 
L 1241 0 
L 628 0 
L 628 4666 
z
" transform="scale(0.015625)"/>
     </defs>
     <use xlink:href="#DejaVuSans-45"/>
     <use xlink:href="#DejaVuSans-4d" x="63.183594"/>
     <use xlink:href="#DejaVuSans-4f" x="149.462891"/>
     <use xlink:href="#DejaVuSans-54" x="228.173828"/>
     <use xlink:href="#DejaVuSans-49" x="289.257812"/>
     <use xlink:href="#DejaVuSans-4f" x="318.75"/>
     <use xlink:href="#DejaVuSans-4e" x="397.460938"/>
    </g>
   </g>
   <g id="line2d_42">
    <path d="M 527.594938 100.956094 
L 536.594938 100.956094 
L 545.594938 100.956094 
" style="fill: none; stroke: #2ca02c; stroke-width: 1.5; stroke-linecap: square"/>
    <g>
     <use xlink:href="#ma9446a0913" x="536.594938" y="100.956094" style="fill: #2ca02c; stroke: #2ca02c"/>
    </g>
   </g>
   <g id="text_88">
    <!-- GAMBLING -->
    <g transform="translate(552.794938 104.106094) scale(0.09 -0.09)">
     <defs>
      <path id="DejaVuSans-47" d="M 3809 666 
L 3809 1919 
L 2778 1919 
L 2778 2438 
L 4434 2438 
L 4434 434 
Q 4069 175 3628 42 
Q 3188 -91 2688 -91 
Q 1594 -91 976 548 
Q 359 1188 359 2328 
Q 359 3472 976 4111 
Q 1594 4750 2688 4750 
Q 3144 4750 3555 4637 
Q 3966 4525 4313 4306 
L 4313 3634 
Q 3963 3931 3569 4081 
Q 3175 4231 2741 4231 
Q 1884 4231 1454 3753 
Q 1025 3275 1025 2328 
Q 1025 1384 1454 906 
Q 1884 428 2741 428 
Q 3075 428 3337 486 
Q 3600 544 3809 666 
z
" transform="scale(0.015625)"/>
      <path id="DejaVuSans-41" d="M 2188 4044 
L 1331 1722 
L 3047 1722 
L 2188 4044 
z
M 1831 4666 
L 2547 4666 
L 4325 0 
L 3669 0 
L 3244 1197 
L 1141 1197 
L 716 0 
L 50 0 
L 1831 4666 
z
" transform="scale(0.015625)"/>
      <path id="DejaVuSans-42" d="M 1259 2228 
L 1259 519 
L 2272 519 
Q 2781 519 3026 730 
Q 3272 941 3272 1375 
Q 3272 1813 3026 2020 
Q 2781 2228 2272 2228 
L 1259 2228 
z
M 1259 4147 
L 1259 2741 
L 2194 2741 
Q 2656 2741 2882 2914 
Q 3109 3088 3109 3444 
Q 3109 3797 2882 3972 
Q 2656 4147 2194 4147 
L 1259 4147 
z
M 628 4666 
L 2241 4666 
Q 2963 4666 3353 4366 
Q 3744 4066 3744 3513 
Q 3744 3084 3544 2831 
Q 3344 2578 2956 2516 
Q 3422 2416 3680 2098 
Q 3938 1781 3938 1306 
Q 3938 681 3513 340 
Q 3088 0 2303 0 
L 628 0 
L 628 4666 
z
" transform="scale(0.015625)"/>
      <path id="DejaVuSans-4c" d="M 628 4666 
L 1259 4666 
L 1259 531 
L 3531 531 
L 3531 0 
L 628 0 
L 628 4666 
z
" transform="scale(0.015625)"/>
     </defs>
     <use xlink:href="#DejaVuSans-47"/>
     <use xlink:href="#DejaVuSans-41" x="77.490234"/>
     <use xlink:href="#DejaVuSans-4d" x="145.898438"/>
     <use xlink:href="#DejaVuSans-42" x="232.177734"/>
     <use xlink:href="#DejaVuSans-4c" x="300.78125"/>
     <use xlink:href="#DejaVuSans-49" x="356.494141"/>
     <use xlink:href="#DejaVuSans-4e" x="385.986328"/>
     <use xlink:href="#DejaVuSans-47" x="460.791016"/>
    </g>
   </g>
   <g id="line2d_43">
    <path d="M 527.594938 114.166406 
L 536.594938 114.166406 
L 545.594938 114.166406 
" style="fill: none; stroke: #d62728; stroke-width: 1.5; stroke-linecap: square"/>
    <g>
     <use xlink:href="#md271245d1c" x="536.594938" y="114.166406" style="fill: #d62728; stroke: #d62728"/>
    </g>
   </g>
   <g id="text_89">
    <!-- LANGUAGE -->
    <g transform="translate(552.794938 117.316406) scale(0.09 -0.09)">
     <defs>
      <path id="DejaVuSans-55" d="M 556 4666 
L 1191 4666 
L 1191 1831 
Q 1191 1081 1462 751 
Q 1734 422 2344 422 
Q 2950 422 3222 751 
Q 3494 1081 3494 1831 
L 3494 4666 
L 4128 4666 
L 4128 1753 
Q 4128 841 3676 375 
Q 3225 -91 2344 -91 
Q 1459 -91 1007 375 
Q 556 841 556 1753 
L 556 4666 
z
" transform="scale(0.015625)"/>
     </defs>
     <use xlink:href="#DejaVuSans-4c"/>
     <use xlink:href="#DejaVuSans-41" x="57.962891"/>
     <use xlink:href="#DejaVuSans-4e" x="126.371094"/>
     <use xlink:href="#DejaVuSans-47" x="201.175781"/>
     <use xlink:href="#DejaVuSans-55" x="278.666016"/>
     <use xlink:href="#DejaVuSans-41" x="351.859375"/>
     <use xlink:href="#DejaVuSans-47" x="418.517578"/>
     <use xlink:href="#DejaVuSans-45" x="496.007812"/>
    </g>
   </g>
   <g id="line2d_44">
    <path d="M 527.594938 127.376719 
L 536.594938 127.376719 
L 545.594938 127.376719 
" style="fill: none; stroke: #9467bd; stroke-width: 1.5; stroke-linecap: square"/>
    <g>
     <use xlink:href="#m55dfc976fd" x="536.594938" y="127.376719" style="fill: #9467bd; stroke: #9467bd"/>
    </g>
   </g>
   <g id="text_90">
    <!-- MOTOR -->
    <g transform="translate(552.794938 130.526719) scale(0.09 -0.09)">
     <use xlink:href="#DejaVuSans-4d"/>
     <use xlink:href="#DejaVuSans-4f" x="86.279297"/>
     <use xlink:href="#DejaVuSans-54" x="164.990234"/>
     <use xlink:href="#DejaVuSans-4f" x="226.074219"/>
     <use xlink:href="#DejaVuSans-52" x="304.785156"/>
    </g>
   </g>
   <g id="line2d_45">
    <path d="M 527.594938 140.587031 
L 536.594938 140.587031 
L 545.594938 140.587031 
" style="fill: none; stroke: #8c564b; stroke-width: 1.5; stroke-linecap: square"/>
    <g>
     <use xlink:href="#m5bd3b1a8d1" x="536.594938" y="140.587031" style="fill: #8c564b; stroke: #8c564b"/>
    </g>
   </g>
   <g id="text_91">
    <!-- RELATIONAL -->
    <g transform="translate(552.794938 143.737031) scale(0.09 -0.09)">
     <use xlink:href="#DejaVuSans-52"/>
     <use xlink:href="#DejaVuSans-45" x="69.482422"/>
     <use xlink:href="#DejaVuSans-4c" x="132.666016"/>
     <use xlink:href="#DejaVuSans-41" x="190.628906"/>
     <use xlink:href="#DejaVuSans-54" x="251.287109"/>
     <use xlink:href="#DejaVuSans-49" x="312.371094"/>
     <use xlink:href="#DejaVuSans-4f" x="341.863281"/>
     <use xlink:href="#DejaVuSans-4e" x="420.574219"/>
     <use xlink:href="#DejaVuSans-41" x="495.378906"/>
     <use xlink:href="#DejaVuSans-4c" x="563.787109"/>
    </g>
   </g>
   <g id="line2d_46">
    <path d="M 527.594938 153.797344 
L 536.594938 153.797344 
L 545.594938 153.797344 
" style="fill: none; stroke: #e377c2; stroke-width: 1.5; stroke-linecap: square"/>
    <g>
     <use xlink:href="#m008f2ea0d0" x="536.594938" y="153.797344" style="fill: #e377c2; stroke: #e377c2"/>
    </g>
   </g>
   <g id="text_92">
    <!-- SOCIAL -->
    <g transform="translate(552.794938 156.947344) scale(0.09 -0.09)">
     <defs>
      <path id="DejaVuSans-43" d="M 4122 4306 
L 4122 3641 
Q 3803 3938 3442 4084 
Q 3081 4231 2675 4231 
Q 1875 4231 1450 3742 
Q 1025 3253 1025 2328 
Q 1025 1406 1450 917 
Q 1875 428 2675 428 
Q 3081 428 3442 575 
Q 3803 722 4122 1019 
L 4122 359 
Q 3791 134 3420 21 
Q 3050 -91 2638 -91 
Q 1578 -91 968 557 
Q 359 1206 359 2328 
Q 359 3453 968 4101 
Q 1578 4750 2638 4750 
Q 3056 4750 3426 4639 
Q 3797 4528 4122 4306 
z
" transform="scale(0.015625)"/>
     </defs>
     <use xlink:href="#DejaVuSans-53"/>
     <use xlink:href="#DejaVuSans-4f" x="63.476562"/>
     <use xlink:href="#DejaVuSans-43" x="142.1875"/>
     <use xlink:href="#DejaVuSans-49" x="212.011719"/>
     <use xlink:href="#DejaVuSans-41" x="241.503906"/>
     <use xlink:href="#DejaVuSans-4c" x="309.912109"/>
    </g>
   </g>
   <g id="line2d_47">
    <path d="M 527.594938 167.007656 
L 536.594938 167.007656 
L 545.594938 167.007656 
" style="fill: none; stroke: #7f7f7f; stroke-width: 1.5; stroke-linecap: square"/>
    <g>
     <use xlink:href="#m5448319aa3" x="536.594938" y="167.007656" style="fill: #7f7f7f; stroke: #7f7f7f"/>
    </g>
   </g>
   <g id="text_93">
    <!-- WM -->
    <g transform="translate(552.794938 170.157656) scale(0.09 -0.09)">
     <defs>
      <path id="DejaVuSans-57" d="M 213 4666 
L 850 4666 
L 1831 722 
L 2809 4666 
L 3519 4666 
L 4500 722 
L 5478 4666 
L 6119 4666 
L 4947 0 
L 4153 0 
L 3169 4050 
L 2175 0 
L 1381 0 
L 213 4666 
z
" transform="scale(0.015625)"/>
     </defs>
     <use xlink:href="#DejaVuSans-57"/>
     <use xlink:href="#DejaVuSans-4d" x="98.876953"/>
    </g>
   </g>
  </g>
 </g>
 <defs>
  <clipPath id="p6950eeff1d">
   <rect x="42.190938" y="22.318125" width="206.900413" height="183.88"/>
  </clipPath>
  <clipPath id="pe4ee049b3d">
   <rect x="295.371351" y="22.318125" width="206.900413" height="183.88"/>
  </clipPath>
 </defs>
</svg>
