<?xml version="1.0" encoding="utf-8" standalone="no"?>
<!DOCTYPE svg PUBLIC "-//W3C//DTD SVG 1.1//EN"
  "http://www.w3.org/Graphics/SVG/1.1/DTD/svg11.dtd">
<svg xmlns:xlink="http://www.w3.org/1999/xlink" width="1008pt" height="583.2pt" viewBox="0 0 1008 583.2" xmlns="http://www.w3.org/2000/svg" version="1.1">
 <metadata>
  <rdf:RDF xmlns:dc="http://purl.org/dc/elements/1.1/" xmlns:cc="http://creativecommons.org/ns#" xmlns:rdf="http://www.w3.org/1999/02/22-rdf-syntax-ns#">
   <cc:Work>
    <dc:type rdf:resource="http://purl.org/dc/dcmitype/StillImage"/>
    <dc:date>2025-04-21T00:46:56.772202</dc:date>
    <dc:format>image/svg+xml</dc:format>
    <dc:creator>
     <cc:Agent>
      <dc:title>Matplotlib v3.9.2, https://matplotlib.org/</dc:title>
     </cc:Agent>
    </dc:creator>
   </cc:Work>
  </rdf:RDF>
 </metadata>
 <defs>
  <style type="text/css">*{stroke-linejoin: round; stroke-linecap: butt}</style>
 </defs>
 <g id="figure_1">
  <g id="patch_1">
   <path d="M 0 583.2 
L 1008 583.2 
L 1008 0 
L 0 0 
z
" style="fill: #ffffff"/>
  </g>
  <g id="patch_2">
   <path d="M 50.4 510.409756 
L 488.019512 510.409756 
L 488.019512 72.790244 
L 50.4 72.790244 
z
" style="fill: #ffffe0"/>
  </g>
  <g id="pane3d_1">
   <g id="patch_3">
    <path d="M 109.168032 439.370841 
L 172.305905 255.064007 
L 166.255732 100.394089 
L 98.500451 282.259575 
" style="fill: #f2f2f2; opacity: 0.5; stroke: #f2f2f2; stroke-linejoin: miter"/>
   </g>
  </g>
  <g id="pane3d_2">
   <g id="patch_4">
    <path d="M 172.305905 255.064007 
L 430.243054 288.695682 
L 439.524093 133.441571 
L 166.255732 100.394089 
" style="fill: #e6e6e6; opacity: 0.5; stroke: #e6e6e6; stroke-linejoin: miter"/>
   </g>
  </g>
  <g id="pane3d_3">
   <g id="patch_5">
    <path d="M 109.168032 439.370841 
L 388.79206 479.149153 
L 430.243054 288.695682 
L 172.305905 255.064007 
" style="fill: #ececec; opacity: 0.5; stroke: #ececec; stroke-linejoin: miter"/>
   </g>
  </g>
  <g id="grid3d_1">
   <g id="Line3DCollection_1">
    <path d="M 135.957509 443.181816 
L 197.048422 258.290112 
L 192.446799 103.561484 
" style="fill: none; stroke: #b0b0b0; stroke-width: 0.8"/>
    <path d="M 169.644678 447.974032 
L 228.152322 262.345659 
L 225.378322 107.544031 
" style="fill: none; stroke: #b0b0b0; stroke-width: 0.8"/>
    <path d="M 203.471822 452.78616 
L 259.375086 266.416704 
L 258.443141 111.542697 
" style="fill: none; stroke: #b0b0b0; stroke-width: 0.8"/>
    <path d="M 237.439815 457.618325 
L 290.717396 270.503337 
L 291.642065 115.557581 
" style="fill: none; stroke: #b0b0b0; stroke-width: 0.8"/>
    <path d="M 271.549538 462.470652 
L 322.17994 274.605647 
L 324.975913 119.588783 
" style="fill: none; stroke: #b0b0b0; stroke-width: 0.8"/>
    <path d="M 305.801882 467.343268 
L 353.763412 278.723724 
L 358.445509 123.6364 
" style="fill: none; stroke: #b0b0b0; stroke-width: 0.8"/>
    <path d="M 340.197741 472.236299 
L 385.46851 282.857659 
L 392.051684 127.700535 
" style="fill: none; stroke: #b0b0b0; stroke-width: 0.8"/>
    <path d="M 374.738021 477.149876 
L 417.295937 287.007545 
L 425.795275 131.781288 
" style="fill: none; stroke: #b0b0b0; stroke-width: 0.8"/>
   </g>
  </g>
  <g id="grid3d_2">
   <g id="Line3DCollection_2">
    <path d="M 99.85059 278.635597 
L 110.419863 435.716602 
L 389.615015 475.367949 
" style="fill: none; stroke: #b0b0b0; stroke-width: 0.8"/>
    <path d="M 108.535306 255.324496 
L 118.47831 412.193052 
L 394.911574 451.032027 
" style="fill: none; stroke: #b0b0b0; stroke-width: 0.8"/>
    <path d="M 117.03345 232.514185 
L 126.373867 389.144998 
L 400.099267 427.196313 
" style="fill: none; stroke: #b0b0b0; stroke-width: 0.8"/>
    <path d="M 125.35097 210.188697 
L 134.111423 366.558167 
L 405.181414 403.845544 
" style="fill: none; stroke: #b0b0b0; stroke-width: 0.8"/>
    <path d="M 133.493562 188.33274 
L 141.695674 344.418852 
L 410.161205 380.965068 
" style="fill: none; stroke: #b0b0b0; stroke-width: 0.8"/>
    <path d="M 141.466689 166.931653 
L 149.131131 322.713884 
L 415.041701 358.540819 
" style="fill: none; stroke: #b0b0b0; stroke-width: 0.8"/>
    <path d="M 149.275587 145.971384 
L 156.42213 301.430604 
L 419.825843 336.559287 
" style="fill: none; stroke: #b0b0b0; stroke-width: 0.8"/>
    <path d="M 156.925277 125.438452 
L 163.572841 280.556842 
L 424.516456 315.007489 
" style="fill: none; stroke: #b0b0b0; stroke-width: 0.8"/>
    <path d="M 164.42058 105.319918 
L 170.587275 260.080891 
L 429.116256 293.872945 
" style="fill: none; stroke: #b0b0b0; stroke-width: 0.8"/>
   </g>
  </g>
  <g id="grid3d_3">
   <g id="Line3DCollection_3">
    <path d="M 430.256368 288.472973 
L 172.297218 254.84193 
L 109.152794 439.146409 
" style="fill: none; stroke: #b0b0b0; stroke-width: 0.8"/>
    <path d="M 431.420908 268.992428 
L 171.537454 235.418906 
L 107.819156 419.504695 
" style="fill: none; stroke: #b0b0b0; stroke-width: 0.8"/>
    <path d="M 432.603065 249.2172 
L 170.766379 215.706721 
L 106.463911 399.544766 
" style="fill: none; stroke: #b0b0b0; stroke-width: 0.8"/>
    <path d="M 433.80324 229.140552 
L 169.983738 195.698866 
L 105.086531 379.258827 
" style="fill: none; stroke: #b0b0b0; stroke-width: 0.8"/>
    <path d="M 435.021849 208.75554 
L 169.18927 175.388641 
L 103.686469 358.638824 
" style="fill: none; stroke: #b0b0b0; stroke-width: 0.8"/>
    <path d="M 436.259321 188.055003 
L 168.382704 154.769138 
L 102.263159 337.676438 
" style="fill: none; stroke: #b0b0b0; stroke-width: 0.8"/>
    <path d="M 437.516095 167.03156 
L 167.563761 133.833239 
L 100.816019 316.363068 
" style="fill: none; stroke: #b0b0b0; stroke-width: 0.8"/>
    <path d="M 438.792628 145.677596 
L 166.732155 112.573605 
L 99.344443 294.689826 
" style="fill: none; stroke: #b0b0b0; stroke-width: 0.8"/>
   </g>
  </g>
  <g id="axis3d_1">
   <g id="line2d_1">
    <path d="M 109.168032 439.370841 
L 388.79206 479.149153 
" style="fill: none; stroke: #000000; stroke-width: 0.8; stroke-linecap: square"/>
   </g>
   <g id="xtick_1">
    <g id="line2d_2">
     <path d="M 136.48836 441.575197 
L 134.89359 446.401769 
" style="fill: none; stroke: #000000; stroke-width: 0.8; stroke-linecap: square"/>
    </g>
    <g id="text_1">
     <!-- −60 -->
     <g transform="translate(124.586191 466.872731) scale(0.08 -0.08)">
      <defs>
       <path id="DejaVuSans-2212" d="M 678 2272 
L 4684 2272 
L 4684 1741 
L 678 1741 
L 678 2272 
z
" transform="scale(0.015625)"/>
       <path id="DejaVuSans-36" d="M 2113 2584 
Q 1688 2584 1439 2293 
Q 1191 2003 1191 1497 
Q 1191 994 1439 701 
Q 1688 409 2113 409 
Q 2538 409 2786 701 
Q 3034 994 3034 1497 
Q 3034 2003 2786 2293 
Q 2538 2584 2113 2584 
z
M 3366 4563 
L 3366 3988 
Q 3128 4100 2886 4159 
Q 2644 4219 2406 4219 
Q 1781 4219 1451 3797 
Q 1122 3375 1075 2522 
Q 1259 2794 1537 2939 
Q 1816 3084 2150 3084 
Q 2853 3084 3261 2657 
Q 3669 2231 3669 1497 
Q 3669 778 3244 343 
Q 2819 -91 2113 -91 
Q 1303 -91 875 529 
Q 447 1150 447 2328 
Q 447 3434 972 4092 
Q 1497 4750 2381 4750 
Q 2619 4750 2861 4703 
Q 3103 4656 3366 4563 
z
" transform="scale(0.015625)"/>
       <path id="DejaVuSans-30" d="M 2034 4250 
Q 1547 4250 1301 3770 
Q 1056 3291 1056 2328 
Q 1056 1369 1301 889 
Q 1547 409 2034 409 
Q 2525 409 2770 889 
Q 3016 1369 3016 2328 
Q 3016 3291 2770 3770 
Q 2525 4250 2034 4250 
z
M 2034 4750 
Q 2819 4750 3233 4129 
Q 3647 3509 3647 2328 
Q 3647 1150 3233 529 
Q 2819 -91 2034 -91 
Q 1250 -91 836 529 
Q 422 1150 422 2328 
Q 422 3509 836 4129 
Q 1250 4750 2034 4750 
z
" transform="scale(0.015625)"/>
      </defs>
      <use xlink:href="#DejaVuSans-2212"/>
      <use xlink:href="#DejaVuSans-36" x="83.789062"/>
      <use xlink:href="#DejaVuSans-30" x="147.412109"/>
     </g>
    </g>
   </g>
   <g id="xtick_2">
    <g id="line2d_3">
     <path d="M 170.153165 446.360747 
L 168.625576 451.207359 
" style="fill: none; stroke: #000000; stroke-width: 0.8; stroke-linecap: square"/>
    </g>
    <g id="text_2">
     <!-- −40 -->
     <g transform="translate(158.312384 471.707927) scale(0.08 -0.08)">
      <defs>
       <path id="DejaVuSans-34" d="M 2419 4116 
L 825 1625 
L 2419 1625 
L 2419 4116 
z
M 2253 4666 
L 3047 4666 
L 3047 1625 
L 3713 1625 
L 3713 1100 
L 3047 1100 
L 3047 0 
L 2419 0 
L 2419 1100 
L 313 1100 
L 313 1709 
L 2253 4666 
z
" transform="scale(0.015625)"/>
      </defs>
      <use xlink:href="#DejaVuSans-2212"/>
      <use xlink:href="#DejaVuSans-34" x="83.789062"/>
      <use xlink:href="#DejaVuSans-30" x="147.412109"/>
     </g>
    </g>
   </g>
   <g id="xtick_3">
    <g id="line2d_4">
     <path d="M 203.957754 451.166167 
L 202.497918 456.032946 
" style="fill: none; stroke: #000000; stroke-width: 0.8; stroke-linecap: square"/>
    </g>
    <g id="text_3">
     <!-- −20 -->
     <g transform="translate(192.178902 476.563241) scale(0.08 -0.08)">
      <defs>
       <path id="DejaVuSans-32" d="M 1228 531 
L 3431 531 
L 3431 0 
L 469 0 
L 469 531 
Q 828 903 1448 1529 
Q 2069 2156 2228 2338 
Q 2531 2678 2651 2914 
Q 2772 3150 2772 3378 
Q 2772 3750 2511 3984 
Q 2250 4219 1831 4219 
Q 1534 4219 1204 4116 
Q 875 4013 500 3803 
L 500 4441 
Q 881 4594 1212 4672 
Q 1544 4750 1819 4750 
Q 2544 4750 2975 4387 
Q 3406 4025 3406 3419 
Q 3406 3131 3298 2873 
Q 3191 2616 2906 2266 
Q 2828 2175 2409 1742 
Q 1991 1309 1228 531 
z
" transform="scale(0.015625)"/>
      </defs>
      <use xlink:href="#DejaVuSans-2212"/>
      <use xlink:href="#DejaVuSans-32" x="83.789062"/>
      <use xlink:href="#DejaVuSans-30" x="147.412109"/>
     </g>
    </g>
   </g>
   <g id="xtick_4">
    <g id="line2d_5">
     <path d="M 237.903 455.991582 
L 236.511496 460.878653 
" style="fill: none; stroke: #000000; stroke-width: 0.8; stroke-linecap: square"/>
    </g>
    <g id="text_4">
     <!-- 0 -->
     <g transform="translate(232.083497 481.438798) scale(0.08 -0.08)">
      <use xlink:href="#DejaVuSans-30"/>
     </g>
    </g>
   </g>
   <g id="xtick_5">
    <g id="line2d_6">
     <path d="M 271.989783 460.837116 
L 270.667194 465.744607 
" style="fill: none; stroke: #000000; stroke-width: 0.8; stroke-linecap: square"/>
    </g>
    <g id="text_5">
     <!-- 20 -->
     <g transform="translate(263.688306 486.334726) scale(0.08 -0.08)">
      <use xlink:href="#DejaVuSans-32"/>
      <use xlink:href="#DejaVuSans-30" x="63.623047"/>
     </g>
    </g>
   </g>
   <g id="xtick_6">
    <g id="line2d_7">
     <path d="M 306.21899 465.702897 
L 304.965905 470.630936 
" style="fill: none; stroke: #000000; stroke-width: 0.8; stroke-linecap: square"/>
    </g>
    <g id="text_6">
     <!-- 40 -->
     <g transform="translate(297.981095 491.251153) scale(0.08 -0.08)">
      <use xlink:href="#DejaVuSans-34"/>
      <use xlink:href="#DejaVuSans-30" x="63.623047"/>
     </g>
    </g>
   </g>
   <g id="xtick_7">
    <g id="line2d_8">
     <path d="M 340.591514 470.589051 
L 339.408529 475.537767 
" style="fill: none; stroke: #000000; stroke-width: 0.8; stroke-linecap: square"/>
    </g>
    <g id="text_7">
     <!-- 60 -->
     <g transform="translate(332.417763 496.188207) scale(0.08 -0.08)">
      <use xlink:href="#DejaVuSans-36"/>
      <use xlink:href="#DejaVuSans-30" x="63.623047"/>
     </g>
    </g>
   </g>
   <g id="xtick_8">
    <g id="line2d_9">
     <path d="M 375.108259 475.495706 
L 373.995974 480.46523 
" style="fill: none; stroke: #000000; stroke-width: 0.8; stroke-linecap: square"/>
    </g>
    <g id="text_8">
     <!-- 80 -->
     <g transform="translate(366.999219 501.146019) scale(0.08 -0.08)">
      <defs>
       <path id="DejaVuSans-38" d="M 2034 2216 
Q 1584 2216 1326 1975 
Q 1069 1734 1069 1313 
Q 1069 891 1326 650 
Q 1584 409 2034 409 
Q 2484 409 2743 651 
Q 3003 894 3003 1313 
Q 3003 1734 2745 1975 
Q 2488 2216 2034 2216 
z
M 1403 2484 
Q 997 2584 770 2862 
Q 544 3141 544 3541 
Q 544 4100 942 4425 
Q 1341 4750 2034 4750 
Q 2731 4750 3128 4425 
Q 3525 4100 3525 3541 
Q 3525 3141 3298 2862 
Q 3072 2584 2669 2484 
Q 3125 2378 3379 2068 
Q 3634 1759 3634 1313 
Q 3634 634 3220 271 
Q 2806 -91 2034 -91 
Q 1263 -91 848 271 
Q 434 634 434 1313 
Q 434 1759 690 2068 
Q 947 2378 1403 2484 
z
M 1172 3481 
Q 1172 3119 1398 2916 
Q 1625 2713 2034 2713 
Q 2441 2713 2670 2916 
Q 2900 3119 2900 3481 
Q 2900 3844 2670 4047 
Q 2441 4250 2034 4250 
Q 1625 4250 1398 4047 
Q 1172 3844 1172 3481 
z
" transform="scale(0.015625)"/>
      </defs>
      <use xlink:href="#DejaVuSans-38"/>
      <use xlink:href="#DejaVuSans-30" x="63.623047"/>
     </g>
    </g>
   </g>
   <g id="text_9">
    <!-- Component 1 -->
    <g transform="translate(207.839565 495.720442) rotate(-351.903631) scale(0.1 -0.1)">
     <defs>
      <path id="DejaVuSans-43" d="M 4122 4306 
L 4122 3641 
Q 3803 3938 3442 4084 
Q 3081 4231 2675 4231 
Q 1875 4231 1450 3742 
Q 1025 3253 1025 2328 
Q 1025 1406 1450 917 
Q 1875 428 2675 428 
Q 3081 428 3442 575 
Q 3803 722 4122 1019 
L 4122 359 
Q 3791 134 3420 21 
Q 3050 -91 2638 -91 
Q 1578 -91 968 557 
Q 359 1206 359 2328 
Q 359 3453 968 4101 
Q 1578 4750 2638 4750 
Q 3056 4750 3426 4639 
Q 3797 4528 4122 4306 
z
" transform="scale(0.015625)"/>
      <path id="DejaVuSans-6f" d="M 1959 3097 
Q 1497 3097 1228 2736 
Q 959 2375 959 1747 
Q 959 1119 1226 758 
Q 1494 397 1959 397 
Q 2419 397 2687 759 
Q 2956 1122 2956 1747 
Q 2956 2369 2687 2733 
Q 2419 3097 1959 3097 
z
M 1959 3584 
Q 2709 3584 3137 3096 
Q 3566 2609 3566 1747 
Q 3566 888 3137 398 
Q 2709 -91 1959 -91 
Q 1206 -91 779 398 
Q 353 888 353 1747 
Q 353 2609 779 3096 
Q 1206 3584 1959 3584 
z
" transform="scale(0.015625)"/>
      <path id="DejaVuSans-6d" d="M 3328 2828 
Q 3544 3216 3844 3400 
Q 4144 3584 4550 3584 
Q 5097 3584 5394 3201 
Q 5691 2819 5691 2113 
L 5691 0 
L 5113 0 
L 5113 2094 
Q 5113 2597 4934 2840 
Q 4756 3084 4391 3084 
Q 3944 3084 3684 2787 
Q 3425 2491 3425 1978 
L 3425 0 
L 2847 0 
L 2847 2094 
Q 2847 2600 2669 2842 
Q 2491 3084 2119 3084 
Q 1678 3084 1418 2786 
Q 1159 2488 1159 1978 
L 1159 0 
L 581 0 
L 581 3500 
L 1159 3500 
L 1159 2956 
Q 1356 3278 1631 3431 
Q 1906 3584 2284 3584 
Q 2666 3584 2933 3390 
Q 3200 3197 3328 2828 
z
" transform="scale(0.015625)"/>
      <path id="DejaVuSans-70" d="M 1159 525 
L 1159 -1331 
L 581 -1331 
L 581 3500 
L 1159 3500 
L 1159 2969 
Q 1341 3281 1617 3432 
Q 1894 3584 2278 3584 
Q 2916 3584 3314 3078 
Q 3713 2572 3713 1747 
Q 3713 922 3314 415 
Q 2916 -91 2278 -91 
Q 1894 -91 1617 61 
Q 1341 213 1159 525 
z
M 3116 1747 
Q 3116 2381 2855 2742 
Q 2594 3103 2138 3103 
Q 1681 3103 1420 2742 
Q 1159 2381 1159 1747 
Q 1159 1113 1420 752 
Q 1681 391 2138 391 
Q 2594 391 2855 752 
Q 3116 1113 3116 1747 
z
" transform="scale(0.015625)"/>
      <path id="DejaVuSans-6e" d="M 3513 2113 
L 3513 0 
L 2938 0 
L 2938 2094 
Q 2938 2591 2744 2837 
Q 2550 3084 2163 3084 
Q 1697 3084 1428 2787 
Q 1159 2491 1159 1978 
L 1159 0 
L 581 0 
L 581 3500 
L 1159 3500 
L 1159 2956 
Q 1366 3272 1645 3428 
Q 1925 3584 2291 3584 
Q 2894 3584 3203 3211 
Q 3513 2838 3513 2113 
z
" transform="scale(0.015625)"/>
      <path id="DejaVuSans-65" d="M 3597 1894 
L 3597 1613 
L 953 1613 
Q 991 1019 1311 708 
Q 1631 397 2203 397 
Q 2534 397 2845 478 
Q 3156 559 3463 722 
L 3463 178 
Q 3153 47 2828 -22 
Q 2503 -91 2169 -91 
Q 1331 -91 842 396 
Q 353 884 353 1716 
Q 353 2575 817 3079 
Q 1281 3584 2069 3584 
Q 2775 3584 3186 3129 
Q 3597 2675 3597 1894 
z
M 3022 2063 
Q 3016 2534 2758 2815 
Q 2500 3097 2075 3097 
Q 1594 3097 1305 2825 
Q 1016 2553 972 2059 
L 3022 2063 
z
" transform="scale(0.015625)"/>
      <path id="DejaVuSans-74" d="M 1172 4494 
L 1172 3500 
L 2356 3500 
L 2356 3053 
L 1172 3053 
L 1172 1153 
Q 1172 725 1289 603 
Q 1406 481 1766 481 
L 2356 481 
L 2356 0 
L 1766 0 
Q 1100 0 847 248 
Q 594 497 594 1153 
L 594 3053 
L 172 3053 
L 172 3500 
L 594 3500 
L 594 4494 
L 1172 4494 
z
" transform="scale(0.015625)"/>
      <path id="DejaVuSans-20" transform="scale(0.015625)"/>
      <path id="DejaVuSans-31" d="M 794 531 
L 1825 531 
L 1825 4091 
L 703 3866 
L 703 4441 
L 1819 4666 
L 2450 4666 
L 2450 531 
L 3481 531 
L 3481 0 
L 794 0 
L 794 531 
z
" transform="scale(0.015625)"/>
     </defs>
     <use xlink:href="#DejaVuSans-43"/>
     <use xlink:href="#DejaVuSans-6f" x="69.824219"/>
     <use xlink:href="#DejaVuSans-6d" x="131.005859"/>
     <use xlink:href="#DejaVuSans-70" x="228.417969"/>
     <use xlink:href="#DejaVuSans-6f" x="291.894531"/>
     <use xlink:href="#DejaVuSans-6e" x="353.076172"/>
     <use xlink:href="#DejaVuSans-65" x="416.455078"/>
     <use xlink:href="#DejaVuSans-6e" x="477.978516"/>
     <use xlink:href="#DejaVuSans-74" x="541.357422"/>
     <use xlink:href="#DejaVuSans-20" x="580.566406"/>
     <use xlink:href="#DejaVuSans-31" x="612.353516"/>
    </g>
   </g>
  </g>
  <g id="axis3d_2">
   <g id="line2d_10">
    <path d="M 430.243054 288.695682 
L 388.79206 479.149153 
" style="fill: none; stroke: #000000; stroke-width: 0.8; stroke-linecap: square"/>
   </g>
   <g id="xtick_9">
    <g id="line2d_11">
     <path d="M 387.343327 475.045324 
L 394.160268 476.013467 
" style="fill: none; stroke: #000000; stroke-width: 0.8; stroke-linecap: square"/>
    </g>
    <g id="text_10">
     <!-- −80 -->
     <g transform="translate(395.116921 490.913676) scale(0.08 -0.08)">
      <use xlink:href="#DejaVuSans-2212"/>
      <use xlink:href="#DejaVuSans-38" x="83.789062"/>
      <use xlink:href="#DejaVuSans-30" x="147.412109"/>
     </g>
    </g>
   </g>
   <g id="xtick_10">
    <g id="line2d_12">
     <path d="M 392.662751 450.716066 
L 399.411061 451.664206 
" style="fill: none; stroke: #000000; stroke-width: 0.8; stroke-linecap: square"/>
    </g>
    <g id="text_11">
     <!-- −60 -->
     <g transform="translate(400.257364 466.53317) scale(0.08 -0.08)">
      <use xlink:href="#DejaVuSans-2212"/>
      <use xlink:href="#DejaVuSans-36" x="83.789062"/>
      <use xlink:href="#DejaVuSans-30" x="147.412109"/>
     </g>
    </g>
   </g>
   <g id="xtick_11">
    <g id="line2d_13">
     <path d="M 397.872852 426.886813 
L 404.553899 427.815564 
" style="fill: none; stroke: #000000; stroke-width: 0.8; stroke-linecap: square"/>
    </g>
    <g id="text_12">
     <!-- −40 -->
     <g transform="translate(405.292378 442.652699) scale(0.08 -0.08)">
      <use xlink:href="#DejaVuSans-2212"/>
      <use xlink:href="#DejaVuSans-34" x="83.789062"/>
      <use xlink:href="#DejaVuSans-30" x="147.412109"/>
     </g>
    </g>
   </g>
   <g id="xtick_12">
    <g id="line2d_14">
     <path d="M 402.976967 403.542308 
L 409.592076 404.452258 
" style="fill: none; stroke: #000000; stroke-width: 0.8; stroke-linecap: square"/>
    </g>
    <g id="text_13">
     <!-- −20 -->
     <g transform="translate(410.225173 419.257036) scale(0.08 -0.08)">
      <use xlink:href="#DejaVuSans-2212"/>
      <use xlink:href="#DejaVuSans-32" x="83.789062"/>
      <use xlink:href="#DejaVuSans-30" x="147.412109"/>
     </g>
    </g>
   </g>
   <g id="xtick_13">
    <g id="line2d_15">
     <path d="M 407.978296 380.667908 
L 414.528755 381.559622 
" style="fill: none; stroke: #000000; stroke-width: 0.8; stroke-linecap: square"/>
    </g>
    <g id="text_14">
     <!-- 0 -->
     <g transform="translate(420.955708 396.331566) scale(0.08 -0.08)">
      <use xlink:href="#DejaVuSans-30"/>
     </g>
    </g>
   </g>
   <g id="xtick_14">
    <g id="line2d_16">
     <path d="M 412.879914 358.249555 
L 419.366973 359.123576 
" style="fill: none; stroke: #000000; stroke-width: 0.8; stroke-linecap: square"/>
    </g>
    <g id="text_15">
     <!-- 20 -->
     <g transform="translate(423.148189 373.862255) scale(0.08 -0.08)">
      <use xlink:href="#DejaVuSans-32"/>
      <use xlink:href="#DejaVuSans-30" x="63.623047"/>
     </g>
    </g>
   </g>
   <g id="xtick_15">
    <g id="line2d_17">
     <path d="M 417.684773 336.273744 
L 424.109647 337.130594 
" style="fill: none; stroke: #000000; stroke-width: 0.8; stroke-linecap: square"/>
    </g>
    <g id="text_16">
     <!-- 40 -->
     <g transform="translate(427.792335 351.835624) scale(0.08 -0.08)">
      <use xlink:href="#DejaVuSans-34"/>
      <use xlink:href="#DejaVuSans-30" x="63.623047"/>
     </g>
    </g>
   </g>
   <g id="xtick_16">
    <g id="line2d_18">
     <path d="M 422.39571 314.727501 
L 428.759579 315.56768 
" style="fill: none; stroke: #000000; stroke-width: 0.8; stroke-linecap: square"/>
    </g>
    <g id="text_17">
     <!-- 60 -->
     <g transform="translate(432.345877 330.238717) scale(0.08 -0.08)">
      <use xlink:href="#DejaVuSans-36"/>
      <use xlink:href="#DejaVuSans-30" x="63.623047"/>
     </g>
    </g>
   </g>
   <g id="xtick_17">
    <g id="line2d_19">
     <path d="M 427.015453 293.598351 
L 433.319463 294.422342 
" style="fill: none; stroke: #000000; stroke-width: 0.8; stroke-linecap: square"/>
    </g>
    <g id="text_18">
     <!-- 80 -->
     <g transform="translate(436.811441 309.05908) scale(0.08 -0.08)">
      <use xlink:href="#DejaVuSans-38"/>
      <use xlink:href="#DejaVuSans-30" x="63.623047"/>
     </g>
    </g>
   </g>
   <g id="text_19">
    <!-- Component 2 -->
    <g transform="translate(434.813965 433.644675) rotate(-77.721419) scale(0.1 -0.1)">
     <use xlink:href="#DejaVuSans-43"/>
     <use xlink:href="#DejaVuSans-6f" x="69.824219"/>
     <use xlink:href="#DejaVuSans-6d" x="131.005859"/>
     <use xlink:href="#DejaVuSans-70" x="228.417969"/>
     <use xlink:href="#DejaVuSans-6f" x="291.894531"/>
     <use xlink:href="#DejaVuSans-6e" x="353.076172"/>
     <use xlink:href="#DejaVuSans-65" x="416.455078"/>
     <use xlink:href="#DejaVuSans-6e" x="477.978516"/>
     <use xlink:href="#DejaVuSans-74" x="541.357422"/>
     <use xlink:href="#DejaVuSans-20" x="580.566406"/>
     <use xlink:href="#DejaVuSans-32" x="612.353516"/>
    </g>
   </g>
  </g>
  <g id="axis3d_3">
   <g id="line2d_20">
    <path d="M 430.243054 288.695682 
L 439.524093 133.441571 
" style="fill: none; stroke: #000000; stroke-width: 0.8; stroke-linecap: square"/>
   </g>
   <g id="xtick_18">
    <g id="line2d_21">
     <path d="M 428.16027 288.199698 
L 434.450156 289.019732 
" style="fill: none; stroke: #000000; stroke-width: 0.8; stroke-linecap: square"/>
    </g>
    <g id="text_20">
     <!-- −80 -->
     <g transform="translate(436.908036 287.469285) scale(0.08 -0.08)">
      <use xlink:href="#DejaVuSans-2212"/>
      <use xlink:href="#DejaVuSans-38" x="83.789062"/>
      <use xlink:href="#DejaVuSans-30" x="147.412109"/>
     </g>
    </g>
   </g>
   <g id="xtick_19">
    <g id="line2d_22">
     <path d="M 429.308929 268.719588 
L 435.646484 269.538317 
" style="fill: none; stroke: #000000; stroke-width: 0.8; stroke-linecap: square"/>
    </g>
    <g id="text_21">
     <!-- −60 -->
     <g transform="translate(438.181652 268.0002) scale(0.08 -0.08)">
      <use xlink:href="#DejaVuSans-2212"/>
      <use xlink:href="#DejaVuSans-36" x="83.789062"/>
      <use xlink:href="#DejaVuSans-30" x="147.412109"/>
     </g>
    </g>
   </g>
   <g id="xtick_20">
    <g id="line2d_23">
     <path d="M 430.474962 248.94484 
L 436.860913 249.762129 
" style="fill: none; stroke: #000000; stroke-width: 0.8; stroke-linecap: square"/>
    </g>
    <g id="text_22">
     <!-- −40 -->
     <g transform="translate(439.47447 248.237588) scale(0.08 -0.08)">
      <use xlink:href="#DejaVuSans-2212"/>
      <use xlink:href="#DejaVuSans-34" x="83.789062"/>
      <use xlink:href="#DejaVuSans-30" x="147.412109"/>
     </g>
    </g>
   </g>
   <g id="xtick_21">
    <g id="line2d_24">
     <path d="M 431.658765 228.868719 
L 438.093858 229.684429 
" style="fill: none; stroke: #000000; stroke-width: 0.8; stroke-linecap: square"/>
    </g>
    <g id="text_23">
     <!-- −20 -->
     <g transform="translate(440.786927 228.17476) scale(0.08 -0.08)">
      <use xlink:href="#DejaVuSans-2212"/>
      <use xlink:href="#DejaVuSans-32" x="83.789062"/>
      <use xlink:href="#DejaVuSans-30" x="147.412109"/>
     </g>
    </g>
   </g>
   <g id="xtick_22">
    <g id="line2d_25">
     <path d="M 432.860749 208.484281 
L 439.345745 209.298268 
" style="fill: none; stroke: #000000; stroke-width: 0.8; stroke-linecap: square"/>
    </g>
    <g id="text_24">
     <!-- 0 -->
     <g transform="translate(448.01635 207.804822) scale(0.08 -0.08)">
      <use xlink:href="#DejaVuSans-30"/>
     </g>
    </g>
   </g>
   <g id="xtick_23">
    <g id="line2d_26">
     <path d="M 434.081334 187.784371 
L 440.617014 188.596482 
" style="fill: none; stroke: #000000; stroke-width: 0.8; stroke-linecap: square"/>
    </g>
    <g id="text_25">
     <!-- 20 -->
     <g transform="translate(446.824452 187.120669) scale(0.08 -0.08)">
      <use xlink:href="#DejaVuSans-32"/>
      <use xlink:href="#DejaVuSans-30" x="63.623047"/>
     </g>
    </g>
   </g>
   <g id="xtick_24">
    <g id="line2d_27">
     <path d="M 435.320957 166.761606 
L 441.908119 167.571685 
" style="fill: none; stroke: #000000; stroke-width: 0.8; stroke-linecap: square"/>
    </g>
    <g id="text_26">
     <!-- 40 -->
     <g transform="translate(448.198589 166.114974) scale(0.08 -0.08)">
      <use xlink:href="#DejaVuSans-34"/>
      <use xlink:href="#DejaVuSans-30" x="63.623047"/>
     </g>
    </g>
   </g>
   <g id="xtick_25">
    <g id="line2d_28">
     <path d="M 436.580066 145.408374 
L 443.219527 146.216256 
" style="fill: none; stroke: #000000; stroke-width: 0.8; stroke-linecap: square"/>
    </g>
    <g id="text_27">
     <!-- 60 -->
     <g transform="translate(449.594255 144.78018) scale(0.08 -0.08)">
      <use xlink:href="#DejaVuSans-36"/>
      <use xlink:href="#DejaVuSans-30" x="63.623047"/>
     </g>
    </g>
   </g>
   <g id="text_28">
    <!-- Component 3 -->
    <g transform="translate(469.079128 231.9985) rotate(-86.578949) scale(0.1 -0.1)">
     <defs>
      <path id="DejaVuSans-33" d="M 2597 2516 
Q 3050 2419 3304 2112 
Q 3559 1806 3559 1356 
Q 3559 666 3084 287 
Q 2609 -91 1734 -91 
Q 1441 -91 1130 -33 
Q 819 25 488 141 
L 488 750 
Q 750 597 1062 519 
Q 1375 441 1716 441 
Q 2309 441 2620 675 
Q 2931 909 2931 1356 
Q 2931 1769 2642 2001 
Q 2353 2234 1838 2234 
L 1294 2234 
L 1294 2753 
L 1863 2753 
Q 2328 2753 2575 2939 
Q 2822 3125 2822 3475 
Q 2822 3834 2567 4026 
Q 2313 4219 1838 4219 
Q 1578 4219 1281 4162 
Q 984 4106 628 3988 
L 628 4550 
Q 988 4650 1302 4700 
Q 1616 4750 1894 4750 
Q 2613 4750 3031 4423 
Q 3450 4097 3450 3541 
Q 3450 3153 3228 2886 
Q 3006 2619 2597 2516 
z
" transform="scale(0.015625)"/>
     </defs>
     <use xlink:href="#DejaVuSans-43"/>
     <use xlink:href="#DejaVuSans-6f" x="69.824219"/>
     <use xlink:href="#DejaVuSans-6d" x="131.005859"/>
     <use xlink:href="#DejaVuSans-70" x="228.417969"/>
     <use xlink:href="#DejaVuSans-6f" x="291.894531"/>
     <use xlink:href="#DejaVuSans-6e" x="353.076172"/>
     <use xlink:href="#DejaVuSans-65" x="416.455078"/>
     <use xlink:href="#DejaVuSans-6e" x="477.978516"/>
     <use xlink:href="#DejaVuSans-74" x="541.357422"/>
     <use xlink:href="#DejaVuSans-20" x="580.566406"/>
     <use xlink:href="#DejaVuSans-33" x="612.353516"/>
    </g>
   </g>
  </g>
  <g id="axes_1">
   <g id="Path3DCollection_1">
    <defs>
     <path id="mae377305de" d="M 0 3.535534 
C 0.937635 3.535534 1.836992 3.163008 2.5 2.5 
C 3.163008 1.836992 3.535534 0.937635 3.535534 0 
C 3.535534 -0.937635 3.163008 -1.836992 2.5 -2.5 
C 1.836992 -3.163008 0.937635 -3.535534 0 -3.535534 
C -0.937635 -3.535534 -1.836992 -3.163008 -2.5 -2.5 
C -3.163008 -1.836992 -3.535534 -0.937635 -3.535534 0 
C -3.535534 0.937635 -3.163008 1.836992 -2.5 2.5 
C -1.836992 3.163008 -0.937635 3.535534 0 3.535534 
z
" style="stroke: #ff0000"/>
    </defs>
    <g clip-path="url(#p23041a9bc1)">
     <use xlink:href="#mae377305de" x="305.285328" y="304.759877" style="fill: #ff0000; stroke: #ff0000"/>
    </g>
   </g>
   <g id="text_29">
    <!-- Subject 1_LR -->
    <g transform="translate(138.060854 308.875406) scale(0.08 -0.08)">
     <defs>
      <path id="DejaVuSans-Bold-53" d="M 3834 4519 
L 3834 3531 
Q 3450 3703 3084 3790 
Q 2719 3878 2394 3878 
Q 1963 3878 1756 3759 
Q 1550 3641 1550 3391 
Q 1550 3203 1689 3098 
Q 1828 2994 2194 2919 
L 2706 2816 
Q 3484 2659 3812 2340 
Q 4141 2022 4141 1434 
Q 4141 663 3683 286 
Q 3225 -91 2284 -91 
Q 1841 -91 1394 -6 
Q 947 78 500 244 
L 500 1259 
Q 947 1022 1364 901 
Q 1781 781 2169 781 
Q 2563 781 2772 912 
Q 2981 1044 2981 1288 
Q 2981 1506 2839 1625 
Q 2697 1744 2272 1838 
L 1806 1941 
Q 1106 2091 782 2419 
Q 459 2747 459 3303 
Q 459 4000 909 4375 
Q 1359 4750 2203 4750 
Q 2588 4750 2994 4692 
Q 3400 4634 3834 4519 
z
" transform="scale(0.015625)"/>
      <path id="DejaVuSans-Bold-75" d="M 500 1363 
L 500 3500 
L 1625 3500 
L 1625 3150 
Q 1625 2866 1622 2436 
Q 1619 2006 1619 1863 
Q 1619 1441 1641 1255 
Q 1663 1069 1716 984 
Q 1784 875 1895 815 
Q 2006 756 2150 756 
Q 2500 756 2700 1025 
Q 2900 1294 2900 1772 
L 2900 3500 
L 4019 3500 
L 4019 0 
L 2900 0 
L 2900 506 
Q 2647 200 2364 54 
Q 2081 -91 1741 -91 
Q 1134 -91 817 281 
Q 500 653 500 1363 
z
" transform="scale(0.015625)"/>
      <path id="DejaVuSans-Bold-62" d="M 2400 722 
Q 2759 722 2948 984 
Q 3138 1247 3138 1747 
Q 3138 2247 2948 2509 
Q 2759 2772 2400 2772 
Q 2041 2772 1848 2508 
Q 1656 2244 1656 1747 
Q 1656 1250 1848 986 
Q 2041 722 2400 722 
z
M 1656 2988 
Q 1888 3294 2169 3439 
Q 2450 3584 2816 3584 
Q 3463 3584 3878 3070 
Q 4294 2556 4294 1747 
Q 4294 938 3878 423 
Q 3463 -91 2816 -91 
Q 2450 -91 2169 54 
Q 1888 200 1656 506 
L 1656 0 
L 538 0 
L 538 4863 
L 1656 4863 
L 1656 2988 
z
" transform="scale(0.015625)"/>
      <path id="DejaVuSans-Bold-6a" d="M 538 3500 
L 1656 3500 
L 1656 63 
Q 1656 -641 1318 -1011 
Q 981 -1381 341 -1381 
L -213 -1381 
L -213 -647 
L -19 -647 
Q 300 -647 419 -503 
Q 538 -359 538 63 
L 538 3500 
z
M 538 4863 
L 1656 4863 
L 1656 3950 
L 538 3950 
L 538 4863 
z
" transform="scale(0.015625)"/>
      <path id="DejaVuSans-Bold-65" d="M 4031 1759 
L 4031 1441 
L 1416 1441 
Q 1456 1047 1700 850 
Q 1944 653 2381 653 
Q 2734 653 3104 758 
Q 3475 863 3866 1075 
L 3866 213 
Q 3469 63 3072 -14 
Q 2675 -91 2278 -91 
Q 1328 -91 801 392 
Q 275 875 275 1747 
Q 275 2603 792 3093 
Q 1309 3584 2216 3584 
Q 3041 3584 3536 3087 
Q 4031 2591 4031 1759 
z
M 2881 2131 
Q 2881 2450 2695 2645 
Q 2509 2841 2209 2841 
Q 1884 2841 1681 2658 
Q 1478 2475 1428 2131 
L 2881 2131 
z
" transform="scale(0.015625)"/>
      <path id="DejaVuSans-Bold-63" d="M 3366 3391 
L 3366 2478 
Q 3138 2634 2908 2709 
Q 2678 2784 2431 2784 
Q 1963 2784 1702 2511 
Q 1441 2238 1441 1747 
Q 1441 1256 1702 982 
Q 1963 709 2431 709 
Q 2694 709 2930 787 
Q 3166 866 3366 1019 
L 3366 103 
Q 3103 6 2833 -42 
Q 2563 -91 2291 -91 
Q 1344 -91 809 395 
Q 275 881 275 1747 
Q 275 2613 809 3098 
Q 1344 3584 2291 3584 
Q 2566 3584 2833 3536 
Q 3100 3488 3366 3391 
z
" transform="scale(0.015625)"/>
      <path id="DejaVuSans-Bold-74" d="M 1759 4494 
L 1759 3500 
L 2913 3500 
L 2913 2700 
L 1759 2700 
L 1759 1216 
Q 1759 972 1856 886 
Q 1953 800 2241 800 
L 2816 800 
L 2816 0 
L 1856 0 
Q 1194 0 917 276 
Q 641 553 641 1216 
L 641 2700 
L 84 2700 
L 84 3500 
L 641 3500 
L 641 4494 
L 1759 4494 
z
" transform="scale(0.015625)"/>
      <path id="DejaVuSans-Bold-20" transform="scale(0.015625)"/>
      <path id="DejaVuSans-Bold-31" d="M 750 831 
L 1813 831 
L 1813 3847 
L 722 3622 
L 722 4441 
L 1806 4666 
L 2950 4666 
L 2950 831 
L 4013 831 
L 4013 0 
L 750 0 
L 750 831 
z
" transform="scale(0.015625)"/>
      <path id="DejaVuSans-Bold-5f" d="M 3200 -916 
L 3200 -1509 
L 0 -1509 
L 0 -916 
L 3200 -916 
z
" transform="scale(0.015625)"/>
      <path id="DejaVuSans-Bold-4c" d="M 588 4666 
L 1791 4666 
L 1791 909 
L 3903 909 
L 3903 0 
L 588 0 
L 588 4666 
z
" transform="scale(0.015625)"/>
      <path id="DejaVuSans-Bold-52" d="M 2297 2597 
Q 2675 2597 2839 2737 
Q 3003 2878 3003 3200 
Q 3003 3519 2839 3656 
Q 2675 3794 2297 3794 
L 1791 3794 
L 1791 2597 
L 2297 2597 
z
M 1791 1766 
L 1791 0 
L 588 0 
L 588 4666 
L 2425 4666 
Q 3347 4666 3776 4356 
Q 4206 4047 4206 3378 
Q 4206 2916 3982 2619 
Q 3759 2322 3309 2181 
Q 3556 2125 3751 1926 
Q 3947 1728 4147 1325 
L 4800 0 
L 3519 0 
L 2950 1159 
Q 2778 1509 2601 1637 
Q 2425 1766 2131 1766 
L 1791 1766 
z
" transform="scale(0.015625)"/>
     </defs>
     <use xlink:href="#DejaVuSans-Bold-53"/>
     <use xlink:href="#DejaVuSans-Bold-75" x="72.021484"/>
     <use xlink:href="#DejaVuSans-Bold-62" x="143.212891"/>
     <use xlink:href="#DejaVuSans-Bold-6a" x="214.794922"/>
     <use xlink:href="#DejaVuSans-Bold-65" x="249.072266"/>
     <use xlink:href="#DejaVuSans-Bold-63" x="316.894531"/>
     <use xlink:href="#DejaVuSans-Bold-74" x="376.171875"/>
     <use xlink:href="#DejaVuSans-Bold-20" x="423.974609"/>
     <use xlink:href="#DejaVuSans-Bold-31" x="458.789062"/>
     <use xlink:href="#DejaVuSans-Bold-5f" x="528.369141"/>
     <use xlink:href="#DejaVuSans-Bold-4c" x="578.369141"/>
     <use xlink:href="#DejaVuSans-Bold-52" x="642.089844"/>
    </g>
   </g>
   <g id="text_30">
    <!-- Subject 2_LR -->
    <g transform="translate(394.530177 325.237043) scale(0.08 -0.08)">
     <defs>
      <path id="DejaVuSans-Bold-32" d="M 1844 884 
L 3897 884 
L 3897 0 
L 506 0 
L 506 884 
L 2209 2388 
Q 2438 2594 2547 2791 
Q 2656 2988 2656 3200 
Q 2656 3528 2436 3728 
Q 2216 3928 1850 3928 
Q 1569 3928 1234 3808 
Q 900 3688 519 3450 
L 519 4475 
Q 925 4609 1322 4679 
Q 1719 4750 2100 4750 
Q 2938 4750 3402 4381 
Q 3866 4013 3866 3353 
Q 3866 2972 3669 2642 
Q 3472 2313 2841 1759 
L 1844 884 
z
" transform="scale(0.015625)"/>
     </defs>
     <use xlink:href="#DejaVuSans-Bold-53"/>
     <use xlink:href="#DejaVuSans-Bold-75" x="72.021484"/>
     <use xlink:href="#DejaVuSans-Bold-62" x="143.212891"/>
     <use xlink:href="#DejaVuSans-Bold-6a" x="214.794922"/>
     <use xlink:href="#DejaVuSans-Bold-65" x="249.072266"/>
     <use xlink:href="#DejaVuSans-Bold-63" x="316.894531"/>
     <use xlink:href="#DejaVuSans-Bold-74" x="376.171875"/>
     <use xlink:href="#DejaVuSans-Bold-20" x="423.974609"/>
     <use xlink:href="#DejaVuSans-Bold-32" x="458.789062"/>
     <use xlink:href="#DejaVuSans-Bold-5f" x="528.369141"/>
     <use xlink:href="#DejaVuSans-Bold-4c" x="578.369141"/>
     <use xlink:href="#DejaVuSans-Bold-52" x="642.089844"/>
    </g>
   </g>
   <g id="text_31">
    <!-- Subject 3_LR -->
    <g transform="translate(305.285328 304.759877) scale(0.08 -0.08)">
     <defs>
      <path id="DejaVuSans-Bold-33" d="M 2981 2516 
Q 3453 2394 3698 2092 
Q 3944 1791 3944 1325 
Q 3944 631 3412 270 
Q 2881 -91 1863 -91 
Q 1503 -91 1142 -33 
Q 781 25 428 141 
L 428 1069 
Q 766 900 1098 814 
Q 1431 728 1753 728 
Q 2231 728 2486 893 
Q 2741 1059 2741 1369 
Q 2741 1688 2480 1852 
Q 2219 2016 1709 2016 
L 1228 2016 
L 1228 2791 
L 1734 2791 
Q 2188 2791 2409 2933 
Q 2631 3075 2631 3366 
Q 2631 3634 2415 3781 
Q 2200 3928 1806 3928 
Q 1516 3928 1219 3862 
Q 922 3797 628 3669 
L 628 4550 
Q 984 4650 1334 4700 
Q 1684 4750 2022 4750 
Q 2931 4750 3382 4451 
Q 3834 4153 3834 3553 
Q 3834 3144 3618 2883 
Q 3403 2622 2981 2516 
z
" transform="scale(0.015625)"/>
     </defs>
     <use xlink:href="#DejaVuSans-Bold-53"/>
     <use xlink:href="#DejaVuSans-Bold-75" x="72.021484"/>
     <use xlink:href="#DejaVuSans-Bold-62" x="143.212891"/>
     <use xlink:href="#DejaVuSans-Bold-6a" x="214.794922"/>
     <use xlink:href="#DejaVuSans-Bold-65" x="249.072266"/>
     <use xlink:href="#DejaVuSans-Bold-63" x="316.894531"/>
     <use xlink:href="#DejaVuSans-Bold-74" x="376.171875"/>
     <use xlink:href="#DejaVuSans-Bold-20" x="423.974609"/>
     <use xlink:href="#DejaVuSans-Bold-33" x="458.789062"/>
     <use xlink:href="#DejaVuSans-Bold-5f" x="528.369141"/>
     <use xlink:href="#DejaVuSans-Bold-4c" x="578.369141"/>
     <use xlink:href="#DejaVuSans-Bold-52" x="642.089844"/>
    </g>
   </g>
   <g id="text_32">
    <!-- Subject 4_LR -->
    <g transform="translate(239.247129 267.707925) scale(0.08 -0.08)">
     <defs>
      <path id="DejaVuSans-Bold-34" d="M 2356 3675 
L 1038 1722 
L 2356 1722 
L 2356 3675 
z
M 2156 4666 
L 3494 4666 
L 3494 1722 
L 4159 1722 
L 4159 850 
L 3494 850 
L 3494 0 
L 2356 0 
L 2356 850 
L 288 850 
L 288 1881 
L 2156 4666 
z
" transform="scale(0.015625)"/>
     </defs>
     <use xlink:href="#DejaVuSans-Bold-53"/>
     <use xlink:href="#DejaVuSans-Bold-75" x="72.021484"/>
     <use xlink:href="#DejaVuSans-Bold-62" x="143.212891"/>
     <use xlink:href="#DejaVuSans-Bold-6a" x="214.794922"/>
     <use xlink:href="#DejaVuSans-Bold-65" x="249.072266"/>
     <use xlink:href="#DejaVuSans-Bold-63" x="316.894531"/>
     <use xlink:href="#DejaVuSans-Bold-74" x="376.171875"/>
     <use xlink:href="#DejaVuSans-Bold-20" x="423.974609"/>
     <use xlink:href="#DejaVuSans-Bold-34" x="458.789062"/>
     <use xlink:href="#DejaVuSans-Bold-5f" x="528.369141"/>
     <use xlink:href="#DejaVuSans-Bold-4c" x="578.369141"/>
     <use xlink:href="#DejaVuSans-Bold-52" x="642.089844"/>
    </g>
   </g>
   <g id="text_33">
    <!-- Subject 5_LR -->
    <g transform="translate(204.109869 170.081883) scale(0.08 -0.08)">
     <defs>
      <path id="DejaVuSans-Bold-35" d="M 678 4666 
L 3669 4666 
L 3669 3781 
L 1638 3781 
L 1638 3059 
Q 1775 3097 1914 3117 
Q 2053 3138 2203 3138 
Q 3056 3138 3531 2711 
Q 4006 2284 4006 1522 
Q 4006 766 3489 337 
Q 2972 -91 2053 -91 
Q 1656 -91 1267 -14 
Q 878 63 494 219 
L 494 1166 
Q 875 947 1217 837 
Q 1559 728 1863 728 
Q 2300 728 2551 942 
Q 2803 1156 2803 1522 
Q 2803 1891 2551 2103 
Q 2300 2316 1863 2316 
Q 1603 2316 1309 2248 
Q 1016 2181 678 2041 
L 678 4666 
z
" transform="scale(0.015625)"/>
     </defs>
     <use xlink:href="#DejaVuSans-Bold-53"/>
     <use xlink:href="#DejaVuSans-Bold-75" x="72.021484"/>
     <use xlink:href="#DejaVuSans-Bold-62" x="143.212891"/>
     <use xlink:href="#DejaVuSans-Bold-6a" x="214.794922"/>
     <use xlink:href="#DejaVuSans-Bold-65" x="249.072266"/>
     <use xlink:href="#DejaVuSans-Bold-63" x="316.894531"/>
     <use xlink:href="#DejaVuSans-Bold-74" x="376.171875"/>
     <use xlink:href="#DejaVuSans-Bold-20" x="423.974609"/>
     <use xlink:href="#DejaVuSans-Bold-35" x="458.789062"/>
     <use xlink:href="#DejaVuSans-Bold-5f" x="528.369141"/>
     <use xlink:href="#DejaVuSans-Bold-4c" x="578.369141"/>
     <use xlink:href="#DejaVuSans-Bold-52" x="642.089844"/>
    </g>
   </g>
   <g id="text_34">
    <!-- Subject 1_RL -->
    <g transform="translate(291.961728 382.016265) scale(0.08 -0.08)">
     <use xlink:href="#DejaVuSans-Bold-53"/>
     <use xlink:href="#DejaVuSans-Bold-75" x="72.021484"/>
     <use xlink:href="#DejaVuSans-Bold-62" x="143.212891"/>
     <use xlink:href="#DejaVuSans-Bold-6a" x="214.794922"/>
     <use xlink:href="#DejaVuSans-Bold-65" x="249.072266"/>
     <use xlink:href="#DejaVuSans-Bold-63" x="316.894531"/>
     <use xlink:href="#DejaVuSans-Bold-74" x="376.171875"/>
     <use xlink:href="#DejaVuSans-Bold-20" x="423.974609"/>
     <use xlink:href="#DejaVuSans-Bold-31" x="458.789062"/>
     <use xlink:href="#DejaVuSans-Bold-5f" x="528.369141"/>
     <use xlink:href="#DejaVuSans-Bold-52" x="578.369141"/>
     <use xlink:href="#DejaVuSans-Bold-4c" x="655.371094"/>
    </g>
   </g>
   <g id="text_35">
    <!-- Subject 2_RL -->
    <g transform="translate(220.245801 389.543097) scale(0.08 -0.08)">
     <use xlink:href="#DejaVuSans-Bold-53"/>
     <use xlink:href="#DejaVuSans-Bold-75" x="72.021484"/>
     <use xlink:href="#DejaVuSans-Bold-62" x="143.212891"/>
     <use xlink:href="#DejaVuSans-Bold-6a" x="214.794922"/>
     <use xlink:href="#DejaVuSans-Bold-65" x="249.072266"/>
     <use xlink:href="#DejaVuSans-Bold-63" x="316.894531"/>
     <use xlink:href="#DejaVuSans-Bold-74" x="376.171875"/>
     <use xlink:href="#DejaVuSans-Bold-20" x="423.974609"/>
     <use xlink:href="#DejaVuSans-Bold-32" x="458.789062"/>
     <use xlink:href="#DejaVuSans-Bold-5f" x="528.369141"/>
     <use xlink:href="#DejaVuSans-Bold-52" x="578.369141"/>
     <use xlink:href="#DejaVuSans-Bold-4c" x="655.371094"/>
    </g>
   </g>
   <g id="text_36">
    <!-- Subject 3_RL -->
    <g transform="translate(324.416727 197.554579) scale(0.08 -0.08)">
     <use xlink:href="#DejaVuSans-Bold-53"/>
     <use xlink:href="#DejaVuSans-Bold-75" x="72.021484"/>
     <use xlink:href="#DejaVuSans-Bold-62" x="143.212891"/>
     <use xlink:href="#DejaVuSans-Bold-6a" x="214.794922"/>
     <use xlink:href="#DejaVuSans-Bold-65" x="249.072266"/>
     <use xlink:href="#DejaVuSans-Bold-63" x="316.894531"/>
     <use xlink:href="#DejaVuSans-Bold-74" x="376.171875"/>
     <use xlink:href="#DejaVuSans-Bold-20" x="423.974609"/>
     <use xlink:href="#DejaVuSans-Bold-33" x="458.789062"/>
     <use xlink:href="#DejaVuSans-Bold-5f" x="528.369141"/>
     <use xlink:href="#DejaVuSans-Bold-52" x="578.369141"/>
     <use xlink:href="#DejaVuSans-Bold-4c" x="655.371094"/>
    </g>
   </g>
   <g id="text_37">
    <!-- Subject 4_RL -->
    <g transform="translate(354.76822 217.41962) scale(0.08 -0.08)">
     <use xlink:href="#DejaVuSans-Bold-53"/>
     <use xlink:href="#DejaVuSans-Bold-75" x="72.021484"/>
     <use xlink:href="#DejaVuSans-Bold-62" x="143.212891"/>
     <use xlink:href="#DejaVuSans-Bold-6a" x="214.794922"/>
     <use xlink:href="#DejaVuSans-Bold-65" x="249.072266"/>
     <use xlink:href="#DejaVuSans-Bold-63" x="316.894531"/>
     <use xlink:href="#DejaVuSans-Bold-74" x="376.171875"/>
     <use xlink:href="#DejaVuSans-Bold-20" x="423.974609"/>
     <use xlink:href="#DejaVuSans-Bold-34" x="458.789062"/>
     <use xlink:href="#DejaVuSans-Bold-5f" x="528.369141"/>
     <use xlink:href="#DejaVuSans-Bold-52" x="578.369141"/>
     <use xlink:href="#DejaVuSans-Bold-4c" x="655.371094"/>
    </g>
   </g>
   <g id="text_38">
    <!-- Subject 5_RL -->
    <g transform="translate(173.243218 248.463497) scale(0.08 -0.08)">
     <use xlink:href="#DejaVuSans-Bold-53"/>
     <use xlink:href="#DejaVuSans-Bold-75" x="72.021484"/>
     <use xlink:href="#DejaVuSans-Bold-62" x="143.212891"/>
     <use xlink:href="#DejaVuSans-Bold-6a" x="214.794922"/>
     <use xlink:href="#DejaVuSans-Bold-65" x="249.072266"/>
     <use xlink:href="#DejaVuSans-Bold-63" x="316.894531"/>
     <use xlink:href="#DejaVuSans-Bold-74" x="376.171875"/>
     <use xlink:href="#DejaVuSans-Bold-20" x="423.974609"/>
     <use xlink:href="#DejaVuSans-Bold-35" x="458.789062"/>
     <use xlink:href="#DejaVuSans-Bold-5f" x="528.369141"/>
     <use xlink:href="#DejaVuSans-Bold-52" x="578.369141"/>
     <use xlink:href="#DejaVuSans-Bold-4c" x="655.371094"/>
    </g>
   </g>
   <g id="text_39">
    <g id="patch_6">
     <path d="M 59.15239 156.505884 
L 161.439265 156.505884 
Q 171.039265 156.505884 171.039265 146.905884 
L 171.039265 81.542634 
Q 171.039265 71.942634 161.439265 71.942634 
L 59.15239 71.942634 
Q 49.55239 71.942634 49.55239 81.542634 
L 49.55239 146.905884 
Q 49.55239 156.505884 59.15239 156.505884 
z
" style="fill: #d2f8d2; stroke: #000000; stroke-linejoin: miter"/>
    </g>
    <!-- Subject 1: 5.43% -->
    <g transform="translate(59.15239 90.660759) scale(0.12 -0.12)">
     <defs>
      <path id="DejaVuSans-53" d="M 3425 4513 
L 3425 3897 
Q 3066 4069 2747 4153 
Q 2428 4238 2131 4238 
Q 1616 4238 1336 4038 
Q 1056 3838 1056 3469 
Q 1056 3159 1242 3001 
Q 1428 2844 1947 2747 
L 2328 2669 
Q 3034 2534 3370 2195 
Q 3706 1856 3706 1288 
Q 3706 609 3251 259 
Q 2797 -91 1919 -91 
Q 1588 -91 1214 -16 
Q 841 59 441 206 
L 441 856 
Q 825 641 1194 531 
Q 1563 422 1919 422 
Q 2459 422 2753 634 
Q 3047 847 3047 1241 
Q 3047 1584 2836 1778 
Q 2625 1972 2144 2069 
L 1759 2144 
Q 1053 2284 737 2584 
Q 422 2884 422 3419 
Q 422 4038 858 4394 
Q 1294 4750 2059 4750 
Q 2388 4750 2728 4690 
Q 3069 4631 3425 4513 
z
" transform="scale(0.015625)"/>
      <path id="DejaVuSans-75" d="M 544 1381 
L 544 3500 
L 1119 3500 
L 1119 1403 
Q 1119 906 1312 657 
Q 1506 409 1894 409 
Q 2359 409 2629 706 
Q 2900 1003 2900 1516 
L 2900 3500 
L 3475 3500 
L 3475 0 
L 2900 0 
L 2900 538 
Q 2691 219 2414 64 
Q 2138 -91 1772 -91 
Q 1169 -91 856 284 
Q 544 659 544 1381 
z
M 1991 3584 
L 1991 3584 
z
" transform="scale(0.015625)"/>
      <path id="DejaVuSans-62" d="M 3116 1747 
Q 3116 2381 2855 2742 
Q 2594 3103 2138 3103 
Q 1681 3103 1420 2742 
Q 1159 2381 1159 1747 
Q 1159 1113 1420 752 
Q 1681 391 2138 391 
Q 2594 391 2855 752 
Q 3116 1113 3116 1747 
z
M 1159 2969 
Q 1341 3281 1617 3432 
Q 1894 3584 2278 3584 
Q 2916 3584 3314 3078 
Q 3713 2572 3713 1747 
Q 3713 922 3314 415 
Q 2916 -91 2278 -91 
Q 1894 -91 1617 61 
Q 1341 213 1159 525 
L 1159 0 
L 581 0 
L 581 4863 
L 1159 4863 
L 1159 2969 
z
" transform="scale(0.015625)"/>
      <path id="DejaVuSans-6a" d="M 603 3500 
L 1178 3500 
L 1178 -63 
Q 1178 -731 923 -1031 
Q 669 -1331 103 -1331 
L -116 -1331 
L -116 -844 
L 38 -844 
Q 366 -844 484 -692 
Q 603 -541 603 -63 
L 603 3500 
z
M 603 4863 
L 1178 4863 
L 1178 4134 
L 603 4134 
L 603 4863 
z
" transform="scale(0.015625)"/>
      <path id="DejaVuSans-63" d="M 3122 3366 
L 3122 2828 
Q 2878 2963 2633 3030 
Q 2388 3097 2138 3097 
Q 1578 3097 1268 2742 
Q 959 2388 959 1747 
Q 959 1106 1268 751 
Q 1578 397 2138 397 
Q 2388 397 2633 464 
Q 2878 531 3122 666 
L 3122 134 
Q 2881 22 2623 -34 
Q 2366 -91 2075 -91 
Q 1284 -91 818 406 
Q 353 903 353 1747 
Q 353 2603 823 3093 
Q 1294 3584 2113 3584 
Q 2378 3584 2631 3529 
Q 2884 3475 3122 3366 
z
" transform="scale(0.015625)"/>
      <path id="DejaVuSans-3a" d="M 750 794 
L 1409 794 
L 1409 0 
L 750 0 
L 750 794 
z
M 750 3309 
L 1409 3309 
L 1409 2516 
L 750 2516 
L 750 3309 
z
" transform="scale(0.015625)"/>
      <path id="DejaVuSans-35" d="M 691 4666 
L 3169 4666 
L 3169 4134 
L 1269 4134 
L 1269 2991 
Q 1406 3038 1543 3061 
Q 1681 3084 1819 3084 
Q 2600 3084 3056 2656 
Q 3513 2228 3513 1497 
Q 3513 744 3044 326 
Q 2575 -91 1722 -91 
Q 1428 -91 1123 -41 
Q 819 9 494 109 
L 494 744 
Q 775 591 1075 516 
Q 1375 441 1709 441 
Q 2250 441 2565 725 
Q 2881 1009 2881 1497 
Q 2881 1984 2565 2268 
Q 2250 2553 1709 2553 
Q 1456 2553 1204 2497 
Q 953 2441 691 2322 
L 691 4666 
z
" transform="scale(0.015625)"/>
      <path id="DejaVuSans-2e" d="M 684 794 
L 1344 794 
L 1344 0 
L 684 0 
L 684 794 
z
" transform="scale(0.015625)"/>
      <path id="DejaVuSans-25" d="M 4653 2053 
Q 4381 2053 4226 1822 
Q 4072 1591 4072 1178 
Q 4072 772 4226 539 
Q 4381 306 4653 306 
Q 4919 306 5073 539 
Q 5228 772 5228 1178 
Q 5228 1588 5073 1820 
Q 4919 2053 4653 2053 
z
M 4653 2450 
Q 5147 2450 5437 2106 
Q 5728 1763 5728 1178 
Q 5728 594 5436 251 
Q 5144 -91 4653 -91 
Q 4153 -91 3862 251 
Q 3572 594 3572 1178 
Q 3572 1766 3864 2108 
Q 4156 2450 4653 2450 
z
M 1428 4353 
Q 1159 4353 1004 4120 
Q 850 3888 850 3481 
Q 850 3069 1003 2837 
Q 1156 2606 1428 2606 
Q 1700 2606 1854 2837 
Q 2009 3069 2009 3481 
Q 2009 3884 1853 4118 
Q 1697 4353 1428 4353 
z
M 4250 4750 
L 4750 4750 
L 1831 -91 
L 1331 -91 
L 4250 4750 
z
M 1428 4750 
Q 1922 4750 2215 4408 
Q 2509 4066 2509 3481 
Q 2509 2891 2217 2550 
Q 1925 2209 1428 2209 
Q 931 2209 642 2551 
Q 353 2894 353 3481 
Q 353 4063 643 4406 
Q 934 4750 1428 4750 
z
" transform="scale(0.015625)"/>
     </defs>
     <use xlink:href="#DejaVuSans-53"/>
     <use xlink:href="#DejaVuSans-75" x="63.476562"/>
     <use xlink:href="#DejaVuSans-62" x="126.855469"/>
     <use xlink:href="#DejaVuSans-6a" x="190.332031"/>
     <use xlink:href="#DejaVuSans-65" x="218.115234"/>
     <use xlink:href="#DejaVuSans-63" x="279.638672"/>
     <use xlink:href="#DejaVuSans-74" x="334.619141"/>
     <use xlink:href="#DejaVuSans-20" x="373.828125"/>
     <use xlink:href="#DejaVuSans-31" x="405.615234"/>
     <use xlink:href="#DejaVuSans-3a" x="469.238281"/>
     <use xlink:href="#DejaVuSans-20" x="502.929688"/>
     <use xlink:href="#DejaVuSans-35" x="534.716797"/>
     <use xlink:href="#DejaVuSans-2e" x="598.339844"/>
     <use xlink:href="#DejaVuSans-34" x="630.126953"/>
     <use xlink:href="#DejaVuSans-33" x="693.75"/>
     <use xlink:href="#DejaVuSans-25" x="757.373047"/>
    </g>
    <!-- Subject 2: 2.4% -->
    <g transform="translate(59.15239 104.098134) scale(0.12 -0.12)">
     <use xlink:href="#DejaVuSans-53"/>
     <use xlink:href="#DejaVuSans-75" x="63.476562"/>
     <use xlink:href="#DejaVuSans-62" x="126.855469"/>
     <use xlink:href="#DejaVuSans-6a" x="190.332031"/>
     <use xlink:href="#DejaVuSans-65" x="218.115234"/>
     <use xlink:href="#DejaVuSans-63" x="279.638672"/>
     <use xlink:href="#DejaVuSans-74" x="334.619141"/>
     <use xlink:href="#DejaVuSans-20" x="373.828125"/>
     <use xlink:href="#DejaVuSans-32" x="405.615234"/>
     <use xlink:href="#DejaVuSans-3a" x="469.238281"/>
     <use xlink:href="#DejaVuSans-20" x="502.929688"/>
     <use xlink:href="#DejaVuSans-32" x="534.716797"/>
     <use xlink:href="#DejaVuSans-2e" x="598.339844"/>
     <use xlink:href="#DejaVuSans-34" x="630.126953"/>
     <use xlink:href="#DejaVuSans-25" x="693.75"/>
    </g>
    <!-- Subject 3: 7.59% -->
    <g transform="translate(59.15239 117.535509) scale(0.12 -0.12)">
     <defs>
      <path id="DejaVuSans-37" d="M 525 4666 
L 3525 4666 
L 3525 4397 
L 1831 0 
L 1172 0 
L 2766 4134 
L 525 4134 
L 525 4666 
z
" transform="scale(0.015625)"/>
      <path id="DejaVuSans-39" d="M 703 97 
L 703 672 
Q 941 559 1184 500 
Q 1428 441 1663 441 
Q 2288 441 2617 861 
Q 2947 1281 2994 2138 
Q 2813 1869 2534 1725 
Q 2256 1581 1919 1581 
Q 1219 1581 811 2004 
Q 403 2428 403 3163 
Q 403 3881 828 4315 
Q 1253 4750 1959 4750 
Q 2769 4750 3195 4129 
Q 3622 3509 3622 2328 
Q 3622 1225 3098 567 
Q 2575 -91 1691 -91 
Q 1453 -91 1209 -44 
Q 966 3 703 97 
z
M 1959 2075 
Q 2384 2075 2632 2365 
Q 2881 2656 2881 3163 
Q 2881 3666 2632 3958 
Q 2384 4250 1959 4250 
Q 1534 4250 1286 3958 
Q 1038 3666 1038 3163 
Q 1038 2656 1286 2365 
Q 1534 2075 1959 2075 
z
" transform="scale(0.015625)"/>
     </defs>
     <use xlink:href="#DejaVuSans-53"/>
     <use xlink:href="#DejaVuSans-75" x="63.476562"/>
     <use xlink:href="#DejaVuSans-62" x="126.855469"/>
     <use xlink:href="#DejaVuSans-6a" x="190.332031"/>
     <use xlink:href="#DejaVuSans-65" x="218.115234"/>
     <use xlink:href="#DejaVuSans-63" x="279.638672"/>
     <use xlink:href="#DejaVuSans-74" x="334.619141"/>
     <use xlink:href="#DejaVuSans-20" x="373.828125"/>
     <use xlink:href="#DejaVuSans-33" x="405.615234"/>
     <use xlink:href="#DejaVuSans-3a" x="469.238281"/>
     <use xlink:href="#DejaVuSans-20" x="502.929688"/>
     <use xlink:href="#DejaVuSans-37" x="534.716797"/>
     <use xlink:href="#DejaVuSans-2e" x="598.339844"/>
     <use xlink:href="#DejaVuSans-35" x="630.126953"/>
     <use xlink:href="#DejaVuSans-39" x="693.75"/>
     <use xlink:href="#DejaVuSans-25" x="757.373047"/>
    </g>
    <!-- Subject 4: 5.44% -->
    <g transform="translate(59.15239 130.972884) scale(0.12 -0.12)">
     <use xlink:href="#DejaVuSans-53"/>
     <use xlink:href="#DejaVuSans-75" x="63.476562"/>
     <use xlink:href="#DejaVuSans-62" x="126.855469"/>
     <use xlink:href="#DejaVuSans-6a" x="190.332031"/>
     <use xlink:href="#DejaVuSans-65" x="218.115234"/>
     <use xlink:href="#DejaVuSans-63" x="279.638672"/>
     <use xlink:href="#DejaVuSans-74" x="334.619141"/>
     <use xlink:href="#DejaVuSans-20" x="373.828125"/>
     <use xlink:href="#DejaVuSans-34" x="405.615234"/>
     <use xlink:href="#DejaVuSans-3a" x="469.238281"/>
     <use xlink:href="#DejaVuSans-20" x="502.929688"/>
     <use xlink:href="#DejaVuSans-35" x="534.716797"/>
     <use xlink:href="#DejaVuSans-2e" x="598.339844"/>
     <use xlink:href="#DejaVuSans-34" x="630.126953"/>
     <use xlink:href="#DejaVuSans-34" x="693.75"/>
     <use xlink:href="#DejaVuSans-25" x="757.373047"/>
    </g>
    <!-- Subject 5: 3.04% -->
    <g transform="translate(59.15239 144.410259) scale(0.12 -0.12)">
     <use xlink:href="#DejaVuSans-53"/>
     <use xlink:href="#DejaVuSans-75" x="63.476562"/>
     <use xlink:href="#DejaVuSans-62" x="126.855469"/>
     <use xlink:href="#DejaVuSans-6a" x="190.332031"/>
     <use xlink:href="#DejaVuSans-65" x="218.115234"/>
     <use xlink:href="#DejaVuSans-63" x="279.638672"/>
     <use xlink:href="#DejaVuSans-74" x="334.619141"/>
     <use xlink:href="#DejaVuSans-20" x="373.828125"/>
     <use xlink:href="#DejaVuSans-35" x="405.615234"/>
     <use xlink:href="#DejaVuSans-3a" x="469.238281"/>
     <use xlink:href="#DejaVuSans-20" x="502.929688"/>
     <use xlink:href="#DejaVuSans-33" x="534.716797"/>
     <use xlink:href="#DejaVuSans-2e" x="598.339844"/>
     <use xlink:href="#DejaVuSans-30" x="630.126953"/>
     <use xlink:href="#DejaVuSans-34" x="693.75"/>
     <use xlink:href="#DejaVuSans-25" x="757.373047"/>
    </g>
   </g>
   <g id="text_40">
    <!-- AI Distance -->
    <g transform="translate(227.622959 66.790244) scale(0.13 -0.13)">
     <defs>
      <path id="DejaVuSans-Bold-41" d="M 3419 850 
L 1538 850 
L 1241 0 
L 31 0 
L 1759 4666 
L 3194 4666 
L 4922 0 
L 3713 0 
L 3419 850 
z
M 1838 1716 
L 3116 1716 
L 2478 3572 
L 1838 1716 
z
" transform="scale(0.015625)"/>
      <path id="DejaVuSans-Bold-49" d="M 588 4666 
L 1791 4666 
L 1791 0 
L 588 0 
L 588 4666 
z
" transform="scale(0.015625)"/>
      <path id="DejaVuSans-Bold-44" d="M 1791 3756 
L 1791 909 
L 2222 909 
Q 2959 909 3348 1275 
Q 3738 1641 3738 2338 
Q 3738 3031 3350 3393 
Q 2963 3756 2222 3756 
L 1791 3756 
z
M 588 4666 
L 1856 4666 
Q 2919 4666 3439 4514 
Q 3959 4363 4331 4000 
Q 4659 3684 4818 3271 
Q 4978 2859 4978 2338 
Q 4978 1809 4818 1395 
Q 4659 981 4331 666 
Q 3956 303 3431 151 
Q 2906 0 1856 0 
L 588 0 
L 588 4666 
z
" transform="scale(0.015625)"/>
      <path id="DejaVuSans-Bold-69" d="M 538 3500 
L 1656 3500 
L 1656 0 
L 538 0 
L 538 3500 
z
M 538 4863 
L 1656 4863 
L 1656 3950 
L 538 3950 
L 538 4863 
z
" transform="scale(0.015625)"/>
      <path id="DejaVuSans-Bold-73" d="M 3272 3391 
L 3272 2541 
Q 2913 2691 2578 2766 
Q 2244 2841 1947 2841 
Q 1628 2841 1473 2761 
Q 1319 2681 1319 2516 
Q 1319 2381 1436 2309 
Q 1553 2238 1856 2203 
L 2053 2175 
Q 2913 2066 3209 1816 
Q 3506 1566 3506 1031 
Q 3506 472 3093 190 
Q 2681 -91 1863 -91 
Q 1516 -91 1145 -36 
Q 775 19 384 128 
L 384 978 
Q 719 816 1070 734 
Q 1422 653 1784 653 
Q 2113 653 2278 743 
Q 2444 834 2444 1013 
Q 2444 1163 2330 1236 
Q 2216 1309 1875 1350 
L 1678 1375 
Q 931 1469 631 1722 
Q 331 1975 331 2491 
Q 331 3047 712 3315 
Q 1094 3584 1881 3584 
Q 2191 3584 2531 3537 
Q 2872 3491 3272 3391 
z
" transform="scale(0.015625)"/>
      <path id="DejaVuSans-Bold-61" d="M 2106 1575 
Q 1756 1575 1579 1456 
Q 1403 1338 1403 1106 
Q 1403 894 1545 773 
Q 1688 653 1941 653 
Q 2256 653 2472 879 
Q 2688 1106 2688 1447 
L 2688 1575 
L 2106 1575 
z
M 3816 1997 
L 3816 0 
L 2688 0 
L 2688 519 
Q 2463 200 2181 54 
Q 1900 -91 1497 -91 
Q 953 -91 614 226 
Q 275 544 275 1050 
Q 275 1666 698 1953 
Q 1122 2241 2028 2241 
L 2688 2241 
L 2688 2328 
Q 2688 2594 2478 2717 
Q 2269 2841 1825 2841 
Q 1466 2841 1156 2769 
Q 847 2697 581 2553 
L 581 3406 
Q 941 3494 1303 3539 
Q 1666 3584 2028 3584 
Q 2975 3584 3395 3211 
Q 3816 2838 3816 1997 
z
" transform="scale(0.015625)"/>
      <path id="DejaVuSans-Bold-6e" d="M 4056 2131 
L 4056 0 
L 2931 0 
L 2931 347 
L 2931 1631 
Q 2931 2084 2911 2256 
Q 2891 2428 2841 2509 
Q 2775 2619 2662 2680 
Q 2550 2741 2406 2741 
Q 2056 2741 1856 2470 
Q 1656 2200 1656 1722 
L 1656 0 
L 538 0 
L 538 3500 
L 1656 3500 
L 1656 2988 
Q 1909 3294 2193 3439 
Q 2478 3584 2822 3584 
Q 3428 3584 3742 3212 
Q 4056 2841 4056 2131 
z
" transform="scale(0.015625)"/>
     </defs>
     <use xlink:href="#DejaVuSans-Bold-41"/>
     <use xlink:href="#DejaVuSans-Bold-49" x="77.392578"/>
     <use xlink:href="#DejaVuSans-Bold-20" x="114.599609"/>
     <use xlink:href="#DejaVuSans-Bold-44" x="149.414062"/>
     <use xlink:href="#DejaVuSans-Bold-69" x="232.421875"/>
     <use xlink:href="#DejaVuSans-Bold-73" x="266.699219"/>
     <use xlink:href="#DejaVuSans-Bold-74" x="326.220703"/>
     <use xlink:href="#DejaVuSans-Bold-61" x="374.023438"/>
     <use xlink:href="#DejaVuSans-Bold-6e" x="441.503906"/>
     <use xlink:href="#DejaVuSans-Bold-63" x="512.695312"/>
     <use xlink:href="#DejaVuSans-Bold-65" x="571.972656"/>
    </g>
   </g>
   <g id="Path3DCollection_2">
    <defs>
     <path id="m3ff414ca40" d="M 0 3.535534 
C 0.937635 3.535534 1.836992 3.163008 2.5 2.5 
C 3.163008 1.836992 3.535534 0.937635 3.535534 0 
C 3.535534 -0.937635 3.163008 -1.836992 2.5 -2.5 
C 1.836992 -3.163008 0.937635 -3.535534 0 -3.535534 
C -0.937635 -3.535534 -1.836992 -3.163008 -2.5 -2.5 
C -3.163008 -1.836992 -3.535534 -0.937635 -3.535534 0 
C -3.535534 0.937635 -3.163008 1.836992 -2.5 2.5 
C -1.836992 3.163008 -0.937635 3.535534 0 3.535534 
z
" style="stroke: #0000ff"/>
    </defs>
    <g clip-path="url(#p23041a9bc1)">
     <use xlink:href="#m3ff414ca40" x="173.243218" y="248.463497" style="fill: #0000ff; stroke: #0000ff"/>
    </g>
   </g>
   <g id="Path3DCollection_3">
    <g clip-path="url(#p23041a9bc1)">
     <use xlink:href="#m3ff414ca40" x="324.416727" y="197.554579" style="fill: #0000ff; stroke: #0000ff"/>
    </g>
   </g>
   <g id="Path3DCollection_4">
    <g clip-path="url(#p23041a9bc1)">
     <use xlink:href="#m3ff414ca40" x="220.245801" y="389.543097" style="fill: #0000ff; stroke: #0000ff"/>
    </g>
   </g>
   <g id="Path3DCollection_5">
    <g clip-path="url(#p23041a9bc1)">
     <use xlink:href="#mae377305de" x="204.109869" y="170.081883" style="fill: #ff0000; stroke: #ff0000"/>
    </g>
   </g>
   <g id="Path3DCollection_6">
    <g clip-path="url(#p23041a9bc1)">
     <use xlink:href="#mae377305de" x="394.530177" y="325.237043" style="fill: #ff0000; stroke: #ff0000"/>
    </g>
   </g>
   <g id="Path3DCollection_7">
    <g clip-path="url(#p23041a9bc1)">
     <use xlink:href="#mae377305de" x="138.060854" y="308.875406" style="fill: #ff0000; stroke: #ff0000"/>
    </g>
   </g>
   <g id="Path3DCollection_8">
    <g clip-path="url(#p23041a9bc1)">
     <use xlink:href="#m3ff414ca40" x="354.76822" y="217.41962" style="fill: #0000ff; stroke: #0000ff"/>
    </g>
   </g>
   <g id="Path3DCollection_9">
    <g clip-path="url(#p23041a9bc1)">
     <use xlink:href="#m3ff414ca40" x="291.961728" y="382.016265" style="fill: #0000ff; stroke: #0000ff"/>
    </g>
   </g>
   <g id="Path3DCollection_10">
    <g clip-path="url(#p23041a9bc1)">
     <use xlink:href="#mae377305de" x="239.247129" y="267.707925" style="fill: #ff0000; stroke: #ff0000"/>
    </g>
   </g>
  </g>
  <g id="patch_7">
   <path d="M 509.900488 510.409756 
L 947.52 510.409756 
L 947.52 72.790244 
L 509.900488 72.790244 
z
" style="fill: #ffffe0"/>
  </g>
  <g id="pane3d_4">
   <g id="patch_8">
    <path d="M 562.964538 432.133899 
L 637.128725 293.72893 
L 633.004053 117.373451 
L 554.921551 243.305051 
" style="fill: #f2f2f2; opacity: 0.5; stroke: #f2f2f2; stroke-linejoin: miter"/>
   </g>
  </g>
  <g id="pane3d_5">
   <g id="patch_9">
    <path d="M 637.128725 293.72893 
L 893.701902 323.203276 
L 900.585452 144.09972 
L 633.004053 117.373451 
" style="fill: #e6e6e6; opacity: 0.5; stroke: #e6e6e6; stroke-linejoin: miter"/>
   </g>
  </g>
  <g id="pane3d_6">
   <g id="patch_10">
    <path d="M 562.964538 432.133899 
L 844.729237 468.053078 
L 893.701902 323.203276 
L 637.128725 293.72893 
" style="fill: #ececec; opacity: 0.5; stroke: #ececec; stroke-linejoin: miter"/>
   </g>
  </g>
  <g id="grid3d_4">
   <g id="Line3DCollection_4">
    <path d="M 591.443456 435.764373 
L 663.113905 296.714028 
L 660.081587 120.077979 
" style="fill: none; stroke: #b0b0b0; stroke-width: 0.8"/>
    <path d="M 625.828789 440.147793 
L 694.472562 300.316416 
L 692.765244 123.342452 
" style="fill: none; stroke: #b0b0b0; stroke-width: 0.8"/>
    <path d="M 660.417056 444.557082 
L 725.998925 303.938068 
L 725.631147 126.625127 
" style="fill: none; stroke: #b0b0b0; stroke-width: 0.8"/>
    <path d="M 695.210058 448.992472 
L 757.694342 307.579141 
L 758.680822 129.926159 
" style="fill: none; stroke: #b0b0b0; stroke-width: 0.8"/>
    <path d="M 730.20962 453.454193 
L 789.560178 311.239791 
L 791.915818 133.2457 
" style="fill: none; stroke: #b0b0b0; stroke-width: 0.8"/>
    <path d="M 765.417585 457.942481 
L 821.59781 314.920177 
L 825.337695 136.583907 
" style="fill: none; stroke: #b0b0b0; stroke-width: 0.8"/>
    <path d="M 800.835821 462.457575 
L 853.808631 318.620458 
L 858.948036 139.940937 
" style="fill: none; stroke: #b0b0b0; stroke-width: 0.8"/>
    <path d="M 836.466217 466.999714 
L 886.194049 322.340796 
L 892.748438 143.316952 
" style="fill: none; stroke: #b0b0b0; stroke-width: 0.8"/>
   </g>
  </g>
  <g id="grid3d_5">
   <g id="Line3DCollection_5">
    <path d="M 561.137467 233.280011 
L 568.844913 421.159964 
L 848.620256 456.544346 
" style="fill: none; stroke: #b0b0b0; stroke-width: 0.8"/>
    <path d="M 570.557369 218.087575 
L 577.764079 404.515043 
L 854.519381 439.096098 
" style="fill: none; stroke: #b0b0b0; stroke-width: 0.8"/>
    <path d="M 579.757532 203.249536 
L 586.484224 388.241536 
L 860.283789 422.046315 
" style="fill: none; stroke: #b0b0b0; stroke-width: 0.8"/>
    <path d="M 588.745556 188.753634 
L 595.011936 372.327148 
L 865.918042 405.3815 
" style="fill: none; stroke: #b0b0b0; stroke-width: 0.8"/>
    <path d="M 597.528695 174.588173 
L 603.353514 356.760121 
L 871.426498 389.088761 
" style="fill: none; stroke: #b0b0b0; stroke-width: 0.8"/>
    <path d="M 606.113874 160.741979 
L 611.514987 341.529206 
L 876.813325 373.155774 
" style="fill: none; stroke: #b0b0b0; stroke-width: 0.8"/>
    <path d="M 614.507713 147.204381 
L 619.502126 326.623633 
L 882.082507 357.570755 
" style="fill: none; stroke: #b0b0b0; stroke-width: 0.8"/>
    <path d="M 622.716537 133.965175 
L 627.320458 312.033087 
L 887.237856 342.322427 
" style="fill: none; stroke: #b0b0b0; stroke-width: 0.8"/>
    <path d="M 630.746397 121.014602 
L 634.975277 297.747688 
L 892.283021 327.399996 
" style="fill: none; stroke: #b0b0b0; stroke-width: 0.8"/>
   </g>
  </g>
  <g id="grid3d_6">
   <g id="Line3DCollection_6">
    <path d="M 894.151297 311.510434 
L 636.859211 282.205533 
L 562.441129 419.845583 
" style="fill: none; stroke: #b0b0b0; stroke-width: 0.8"/>
    <path d="M 894.870395 292.800156 
L 636.428017 263.769288 
L 561.60311 400.171028 
" style="fill: none; stroke: #b0b0b0; stroke-width: 0.8"/>
    <path d="M 895.596006 273.920434 
L 635.993002 245.169696 
L 560.756894 380.304022 
" style="fill: none; stroke: #b0b0b0; stroke-width: 0.8"/>
    <path d="M 896.328219 254.868956 
L 635.554116 226.404576 
L 559.902359 360.241729 
" style="fill: none; stroke: #b0b0b0; stroke-width: 0.8"/>
    <path d="M 897.067122 235.643367 
L 635.111307 207.471708 
L 559.039383 339.981254 
" style="fill: none; stroke: #b0b0b0; stroke-width: 0.8"/>
    <path d="M 897.81281 216.241269 
L 634.664521 188.368833 
L 558.16784 319.519647 
" style="fill: none; stroke: #b0b0b0; stroke-width: 0.8"/>
    <path d="M 898.565375 196.660222 
L 634.213705 169.093651 
L 557.287602 298.853898 
" style="fill: none; stroke: #b0b0b0; stroke-width: 0.8"/>
    <path d="M 899.324914 176.897736 
L 633.758805 149.64382 
L 556.398538 277.980936 
" style="fill: none; stroke: #b0b0b0; stroke-width: 0.8"/>
    <path d="M 900.091523 156.95128 
L 633.299764 130.016955 
L 555.500515 256.89763 
" style="fill: none; stroke: #b0b0b0; stroke-width: 0.8"/>
   </g>
  </g>
  <g id="axis3d_4">
   <g id="line2d_29">
    <path d="M 562.964538 432.133899 
L 844.729237 468.053078 
" style="fill: none; stroke: #000000; stroke-width: 0.8; stroke-linecap: square"/>
   </g>
   <g id="xtick_26">
    <g id="line2d_30">
     <path d="M 592.075321 434.53847 
L 590.176599 438.222247 
" style="fill: none; stroke: #000000; stroke-width: 0.8; stroke-linecap: square"/>
    </g>
    <g id="text_41">
     <!-- −6 -->
     <g transform="translate(581.871577 458.745519) scale(0.08 -0.08)">
      <use xlink:href="#DejaVuSans-2212"/>
      <use xlink:href="#DejaVuSans-36" x="83.789062"/>
     </g>
    </g>
   </g>
   <g id="xtick_27">
    <g id="line2d_31">
     <path d="M 626.434135 438.914668 
L 624.615093 442.620163 
" style="fill: none; stroke: #000000; stroke-width: 0.8; stroke-linecap: square"/>
    </g>
    <g id="text_42">
     <!-- −4 -->
     <g transform="translate(616.347411 463.191735) scale(0.08 -0.08)">
      <use xlink:href="#DejaVuSans-2212"/>
      <use xlink:href="#DejaVuSans-34" x="83.789062"/>
     </g>
    </g>
   </g>
   <g id="xtick_28">
    <g id="line2d_32">
     <path d="M 660.995558 443.316672 
L 659.257171 447.044078 
" style="fill: none; stroke: #000000; stroke-width: 0.8; stroke-linecap: square"/>
    </g>
    <g id="text_43">
     <!-- −2 -->
     <g transform="translate(651.027314 467.664269) scale(0.08 -0.08)">
      <use xlink:href="#DejaVuSans-2212"/>
      <use xlink:href="#DejaVuSans-32" x="83.789062"/>
     </g>
    </g>
   </g>
   <g id="xtick_29">
    <g id="line2d_33">
     <path d="M 695.761388 447.744711 
L 694.104646 451.494222 
" style="fill: none; stroke: #000000; stroke-width: 0.8; stroke-linecap: square"/>
    </g>
    <g id="text_44">
     <!-- 0 -->
     <g transform="translate(689.264979 472.163355) scale(0.08 -0.08)">
      <use xlink:href="#DejaVuSans-30"/>
     </g>
    </g>
   </g>
   <g id="xtick_30">
    <g id="line2d_34">
     <path d="M 730.733444 452.199017 
L 729.159347 455.97083 
" style="fill: none; stroke: #000000; stroke-width: 0.8; stroke-linecap: square"/>
    </g>
    <g id="text_45">
     <!-- 2 -->
     <g transform="translate(724.358495 476.689231) scale(0.08 -0.08)">
      <use xlink:href="#DejaVuSans-32"/>
     </g>
    </g>
   </g>
   <g id="xtick_31">
    <g id="line2d_35">
     <path d="M 765.913566 456.679823 
L 764.423131 460.474139 
" style="fill: none; stroke: #000000; stroke-width: 0.8; stroke-linecap: square"/>
    </g>
    <g id="text_46">
     <!-- 4 -->
     <g transform="translate(759.661597 481.242136) scale(0.08 -0.08)">
      <use xlink:href="#DejaVuSans-34"/>
     </g>
    </g>
   </g>
   <g id="xtick_32">
    <g id="line2d_36">
     <path d="M 801.303617 461.187368 
L 799.897872 465.004387 
" style="fill: none; stroke: #000000; stroke-width: 0.8; stroke-linecap: square"/>
    </g>
    <g id="text_47">
     <!-- 6 -->
     <g transform="translate(795.176168 485.822314) scale(0.08 -0.08)">
      <use xlink:href="#DejaVuSans-36"/>
     </g>
    </g>
   </g>
   <g id="xtick_33">
    <g id="line2d_37">
     <path d="M 836.90548 465.72189 
L 835.58547 469.561818 
" style="fill: none; stroke: #000000; stroke-width: 0.8; stroke-linecap: square"/>
    </g>
    <g id="text_48">
     <!-- 8 -->
     <g transform="translate(830.904116 490.430011) scale(0.08 -0.08)">
      <use xlink:href="#DejaVuSans-38"/>
     </g>
    </g>
   </g>
   <g id="text_49">
    <!-- Component 1 -->
    <g transform="translate(660.911264 485.656625) rotate(-352.735156) scale(0.1 -0.1)">
     <use xlink:href="#DejaVuSans-43"/>
     <use xlink:href="#DejaVuSans-6f" x="69.824219"/>
     <use xlink:href="#DejaVuSans-6d" x="131.005859"/>
     <use xlink:href="#DejaVuSans-70" x="228.417969"/>
     <use xlink:href="#DejaVuSans-6f" x="291.894531"/>
     <use xlink:href="#DejaVuSans-6e" x="353.076172"/>
     <use xlink:href="#DejaVuSans-65" x="416.455078"/>
     <use xlink:href="#DejaVuSans-6e" x="477.978516"/>
     <use xlink:href="#DejaVuSans-74" x="541.357422"/>
     <use xlink:href="#DejaVuSans-20" x="580.566406"/>
     <use xlink:href="#DejaVuSans-31" x="612.353516"/>
    </g>
   </g>
  </g>
  <g id="axis3d_5">
   <g id="line2d_38">
    <path d="M 893.701902 323.203276 
L 844.729237 468.053078 
" style="fill: none; stroke: #000000; stroke-width: 0.8; stroke-linecap: square"/>
   </g>
   <g id="xtick_34">
    <g id="line2d_39">
     <path d="M 846.328808 456.254537 
L 853.20579 457.124298 
" style="fill: none; stroke: #000000; stroke-width: 0.8; stroke-linecap: square"/>
    </g>
    <g id="text_50">
     <!-- −8 -->
     <g transform="translate(856.900925 473.633633) scale(0.08 -0.08)">
      <use xlink:href="#DejaVuSans-2212"/>
      <use xlink:href="#DejaVuSans-38" x="83.789062"/>
     </g>
    </g>
   </g>
   <g id="xtick_35">
    <g id="line2d_40">
     <path d="M 852.253277 438.812945 
L 859.054169 439.662728 
" style="fill: none; stroke: #000000; stroke-width: 0.8; stroke-linecap: square"/>
    </g>
    <g id="text_51">
     <!-- −6 -->
     <g transform="translate(862.63015 456.077041) scale(0.08 -0.08)">
      <use xlink:href="#DejaVuSans-2212"/>
      <use xlink:href="#DejaVuSans-36" x="83.789062"/>
     </g>
    </g>
   </g>
   <g id="xtick_36">
    <g id="line2d_41">
     <path d="M 858.042475 421.76959 
L 864.76894 422.600076 
" style="fill: none; stroke: #000000; stroke-width: 0.8; stroke-linecap: square"/>
    </g>
    <g id="text_52">
     <!-- −4 -->
     <g transform="translate(868.228675 438.920963) scale(0.08 -0.08)">
      <use xlink:href="#DejaVuSans-2212"/>
      <use xlink:href="#DejaVuSans-34" x="83.789062"/>
     </g>
    </g>
   </g>
   <g id="xtick_37">
    <g id="line2d_42">
     <path d="M 863.700982 405.110988 
L 870.354628 405.922826 
" style="fill: none; stroke: #000000; stroke-width: 0.8; stroke-linecap: square"/>
    </g>
    <g id="text_53">
     <!-- −2 -->
     <g transform="translate(873.700924 422.151848) scale(0.08 -0.08)">
      <use xlink:href="#DejaVuSans-2212"/>
      <use xlink:href="#DejaVuSans-32" x="83.789062"/>
     </g>
    </g>
   </g>
   <g id="xtick_38">
    <g id="line2d_43">
     <path d="M 869.233174 388.824254 
L 875.815559 389.618066 
" style="fill: none; stroke: #000000; stroke-width: 0.8; stroke-linecap: square"/>
    </g>
    <g id="text_54">
     <!-- 0 -->
     <g transform="translate(882.402995 405.756749) scale(0.08 -0.08)">
      <use xlink:href="#DejaVuSans-30"/>
     </g>
    </g>
   </g>
   <g id="xtick_39">
    <g id="line2d_44">
     <path d="M 874.643235 372.897075 
L 881.155866 373.673454 
" style="fill: none; stroke: #000000; stroke-width: 0.8; stroke-linecap: square"/>
    </g>
    <g id="text_55">
     <!-- 2 -->
     <g transform="translate(887.635177 389.723292) scale(0.08 -0.08)">
      <use xlink:href="#DejaVuSans-32"/>
     </g>
    </g>
   </g>
   <g id="xtick_40">
    <g id="line2d_45">
     <path d="M 879.935165 357.317674 
L 886.379501 358.077189 
" style="fill: none; stroke: #000000; stroke-width: 0.8; stroke-linecap: square"/>
    </g>
    <g id="text_56">
     <!-- 4 -->
     <g transform="translate(892.753207 374.039642) scale(0.08 -0.08)">
      <use xlink:href="#DejaVuSans-34"/>
     </g>
    </g>
   </g>
   <g id="xtick_41">
    <g id="line2d_46">
     <path d="M 885.112791 342.074783 
L 891.490248 342.817977 
" style="fill: none; stroke: #000000; stroke-width: 0.8; stroke-linecap: square"/>
    </g>
    <g id="text_57">
     <!-- 6 -->
     <g transform="translate(897.76078 358.694475) scale(0.08 -0.08)">
      <use xlink:href="#DejaVuSans-36"/>
     </g>
    </g>
   </g>
   <g id="xtick_42">
    <g id="line2d_47">
     <path d="M 890.179776 327.157616 
L 896.491727 327.88501 
" style="fill: none; stroke: #000000; stroke-width: 0.8; stroke-linecap: square"/>
    </g>
    <g id="text_58">
     <!-- 8 -->
     <g transform="translate(902.661434 343.676949) scale(0.08 -0.08)">
      <use xlink:href="#DejaVuSans-38"/>
     </g>
    </g>
   </g>
   <g id="text_59">
    <!-- Component 2 -->
    <g transform="translate(891.64796 447.944467) rotate(-71.319979) scale(0.1 -0.1)">
     <use xlink:href="#DejaVuSans-43"/>
     <use xlink:href="#DejaVuSans-6f" x="69.824219"/>
     <use xlink:href="#DejaVuSans-6d" x="131.005859"/>
     <use xlink:href="#DejaVuSans-70" x="228.417969"/>
     <use xlink:href="#DejaVuSans-6f" x="291.894531"/>
     <use xlink:href="#DejaVuSans-6e" x="353.076172"/>
     <use xlink:href="#DejaVuSans-65" x="416.455078"/>
     <use xlink:href="#DejaVuSans-6e" x="477.978516"/>
     <use xlink:href="#DejaVuSans-74" x="541.357422"/>
     <use xlink:href="#DejaVuSans-20" x="580.566406"/>
     <use xlink:href="#DejaVuSans-32" x="612.353516"/>
    </g>
   </g>
  </g>
  <g id="axis3d_6">
   <g id="line2d_48">
    <path d="M 893.701902 323.203276 
L 900.585452 144.09972 
" style="fill: none; stroke: #000000; stroke-width: 0.8; stroke-linecap: square"/>
   </g>
   <g id="xtick_43">
    <g id="line2d_49">
     <path d="M 892.048189 311.270896 
L 898.359726 311.989763 
" style="fill: none; stroke: #000000; stroke-width: 0.8; stroke-linecap: square"/>
    </g>
    <g id="text_60">
     <!-- −8 -->
     <g transform="translate(903.703356 312.543627) scale(0.08 -0.08)">
      <use xlink:href="#DejaVuSans-2212"/>
      <use xlink:href="#DejaVuSans-38" x="83.789062"/>
     </g>
    </g>
   </g>
   <g id="xtick_44">
    <g id="line2d_50">
     <path d="M 892.757683 292.562835 
L 899.098055 293.27505 
" style="fill: none; stroke: #000000; stroke-width: 0.8; stroke-linecap: square"/>
    </g>
    <g id="text_61">
     <!-- −6 -->
     <g transform="translate(904.489167 293.88013) scale(0.08 -0.08)">
      <use xlink:href="#DejaVuSans-2212"/>
      <use xlink:href="#DejaVuSans-36" x="83.789062"/>
     </g>
    </g>
   </g>
   <g id="xtick_45">
    <g id="line2d_51">
     <path d="M 893.473601 273.68538 
L 899.843073 274.390792 
" style="fill: none; stroke: #000000; stroke-width: 0.8; stroke-linecap: square"/>
    </g>
    <g id="text_62">
     <!-- −4 -->
     <g transform="translate(905.282067 275.048243) scale(0.08 -0.08)">
      <use xlink:href="#DejaVuSans-2212"/>
      <use xlink:href="#DejaVuSans-34" x="83.789062"/>
     </g>
    </g>
   </g>
   <g id="xtick_46">
    <g id="line2d_52">
     <path d="M 894.19603 254.63622 
L 900.594871 255.334675 
" style="fill: none; stroke: #000000; stroke-width: 0.8; stroke-linecap: square"/>
    </g>
    <g id="text_63">
     <!-- −2 -->
     <g transform="translate(906.082153 256.045677) scale(0.08 -0.08)">
      <use xlink:href="#DejaVuSans-2212"/>
      <use xlink:href="#DejaVuSans-32" x="83.789062"/>
     </g>
    </g>
   </g>
   <g id="xtick_47">
    <g id="line2d_53">
     <path d="M 894.925061 235.413002 
L 901.353542 236.104343 
" style="fill: none; stroke: #000000; stroke-width: 0.8; stroke-linecap: square"/>
    </g>
    <g id="text_64">
     <!-- 0 -->
     <g transform="translate(910.241399 236.8701) scale(0.08 -0.08)">
      <use xlink:href="#DejaVuSans-30"/>
     </g>
    </g>
   </g>
   <g id="xtick_48">
    <g id="line2d_54">
     <path d="M 895.660783 216.013329 
L 902.119182 216.697396 
" style="fill: none; stroke: #000000; stroke-width: 0.8; stroke-linecap: square"/>
    </g>
    <g id="text_65">
     <!-- 2 -->
     <g transform="translate(911.056155 217.51914) scale(0.08 -0.08)">
      <use xlink:href="#DejaVuSans-32"/>
     </g>
    </g>
   </g>
   <g id="xtick_49">
    <g id="line2d_55">
     <path d="M 896.403291 196.43476 
L 902.891885 197.11139 
" style="fill: none; stroke: #000000; stroke-width: 0.8; stroke-linecap: square"/>
    </g>
    <g id="text_66">
     <!-- 4 -->
     <g transform="translate(911.878396 197.990378) scale(0.08 -0.08)">
      <use xlink:href="#DejaVuSans-34"/>
     </g>
    </g>
   </g>
   <g id="xtick_50">
    <g id="line2d_56">
     <path d="M 897.152676 176.674809 
L 903.671751 177.343834 
" style="fill: none; stroke: #000000; stroke-width: 0.8; stroke-linecap: square"/>
    </g>
    <g id="text_67">
     <!-- 6 -->
     <g transform="translate(912.708228 178.281353) scale(0.08 -0.08)">
      <use xlink:href="#DejaVuSans-36"/>
     </g>
    </g>
   </g>
   <g id="xtick_51">
    <g id="line2d_57">
     <path d="M 897.909037 156.730944 
L 904.458879 157.392192 
" style="fill: none; stroke: #000000; stroke-width: 0.8; stroke-linecap: square"/>
    </g>
    <g id="text_68">
     <!-- 8 -->
     <g transform="translate(913.545755 158.389559) scale(0.08 -0.08)">
      <use xlink:href="#DejaVuSans-38"/>
     </g>
    </g>
   </g>
   <g id="text_69">
    <!-- Component 3 -->
    <g transform="translate(932.552889 258.927304) rotate(-87.799014) scale(0.1 -0.1)">
     <use xlink:href="#DejaVuSans-43"/>
     <use xlink:href="#DejaVuSans-6f" x="69.824219"/>
     <use xlink:href="#DejaVuSans-6d" x="131.005859"/>
     <use xlink:href="#DejaVuSans-70" x="228.417969"/>
     <use xlink:href="#DejaVuSans-6f" x="291.894531"/>
     <use xlink:href="#DejaVuSans-6e" x="353.076172"/>
     <use xlink:href="#DejaVuSans-65" x="416.455078"/>
     <use xlink:href="#DejaVuSans-6e" x="477.978516"/>
     <use xlink:href="#DejaVuSans-74" x="541.357422"/>
     <use xlink:href="#DejaVuSans-20" x="580.566406"/>
     <use xlink:href="#DejaVuSans-33" x="612.353516"/>
    </g>
   </g>
  </g>
  <g id="axes_2">
   <g id="Path3DCollection_11">
    <g clip-path="url(#p27e5763c1b)">
     <use xlink:href="#m3ff414ca40" x="738.554152" y="202.242979" style="fill: #0000ff; stroke: #0000ff"/>
    </g>
   </g>
   <g id="text_70">
    <!-- Subject 1_LR -->
    <g transform="translate(839.803007 268.789299) scale(0.08 -0.08)">
     <use xlink:href="#DejaVuSans-Bold-53"/>
     <use xlink:href="#DejaVuSans-Bold-75" x="72.021484"/>
     <use xlink:href="#DejaVuSans-Bold-62" x="143.212891"/>
     <use xlink:href="#DejaVuSans-Bold-6a" x="214.794922"/>
     <use xlink:href="#DejaVuSans-Bold-65" x="249.072266"/>
     <use xlink:href="#DejaVuSans-Bold-63" x="316.894531"/>
     <use xlink:href="#DejaVuSans-Bold-74" x="376.171875"/>
     <use xlink:href="#DejaVuSans-Bold-20" x="423.974609"/>
     <use xlink:href="#DejaVuSans-Bold-31" x="458.789062"/>
     <use xlink:href="#DejaVuSans-Bold-5f" x="528.369141"/>
     <use xlink:href="#DejaVuSans-Bold-4c" x="578.369141"/>
     <use xlink:href="#DejaVuSans-Bold-52" x="642.089844"/>
    </g>
   </g>
   <g id="text_71">
    <!-- Subject 2_LR -->
    <g transform="translate(746.140569 331.529433) scale(0.08 -0.08)">
     <use xlink:href="#DejaVuSans-Bold-53"/>
     <use xlink:href="#DejaVuSans-Bold-75" x="72.021484"/>
     <use xlink:href="#DejaVuSans-Bold-62" x="143.212891"/>
     <use xlink:href="#DejaVuSans-Bold-6a" x="214.794922"/>
     <use xlink:href="#DejaVuSans-Bold-65" x="249.072266"/>
     <use xlink:href="#DejaVuSans-Bold-63" x="316.894531"/>
     <use xlink:href="#DejaVuSans-Bold-74" x="376.171875"/>
     <use xlink:href="#DejaVuSans-Bold-20" x="423.974609"/>
     <use xlink:href="#DejaVuSans-Bold-32" x="458.789062"/>
     <use xlink:href="#DejaVuSans-Bold-5f" x="528.369141"/>
     <use xlink:href="#DejaVuSans-Bold-4c" x="578.369141"/>
     <use xlink:href="#DejaVuSans-Bold-52" x="642.089844"/>
    </g>
   </g>
   <g id="text_72">
    <!-- Subject 3_LR -->
    <g transform="translate(730.240782 297.254282) scale(0.08 -0.08)">
     <use xlink:href="#DejaVuSans-Bold-53"/>
     <use xlink:href="#DejaVuSans-Bold-75" x="72.021484"/>
     <use xlink:href="#DejaVuSans-Bold-62" x="143.212891"/>
     <use xlink:href="#DejaVuSans-Bold-6a" x="214.794922"/>
     <use xlink:href="#DejaVuSans-Bold-65" x="249.072266"/>
     <use xlink:href="#DejaVuSans-Bold-63" x="316.894531"/>
     <use xlink:href="#DejaVuSans-Bold-74" x="376.171875"/>
     <use xlink:href="#DejaVuSans-Bold-20" x="423.974609"/>
     <use xlink:href="#DejaVuSans-Bold-33" x="458.789062"/>
     <use xlink:href="#DejaVuSans-Bold-5f" x="528.369141"/>
     <use xlink:href="#DejaVuSans-Bold-4c" x="578.369141"/>
     <use xlink:href="#DejaVuSans-Bold-52" x="642.089844"/>
    </g>
   </g>
   <g id="text_73">
    <!-- Subject 4_LR -->
    <g transform="translate(674.452668 324.445797) scale(0.08 -0.08)">
     <use xlink:href="#DejaVuSans-Bold-53"/>
     <use xlink:href="#DejaVuSans-Bold-75" x="72.021484"/>
     <use xlink:href="#DejaVuSans-Bold-62" x="143.212891"/>
     <use xlink:href="#DejaVuSans-Bold-6a" x="214.794922"/>
     <use xlink:href="#DejaVuSans-Bold-65" x="249.072266"/>
     <use xlink:href="#DejaVuSans-Bold-63" x="316.894531"/>
     <use xlink:href="#DejaVuSans-Bold-74" x="376.171875"/>
     <use xlink:href="#DejaVuSans-Bold-20" x="423.974609"/>
     <use xlink:href="#DejaVuSans-Bold-34" x="458.789062"/>
     <use xlink:href="#DejaVuSans-Bold-5f" x="528.369141"/>
     <use xlink:href="#DejaVuSans-Bold-4c" x="578.369141"/>
     <use xlink:href="#DejaVuSans-Bold-52" x="642.089844"/>
    </g>
   </g>
   <g id="text_74">
    <!-- Subject 5_LR -->
    <g transform="translate(670.999762 200.233381) scale(0.08 -0.08)">
     <use xlink:href="#DejaVuSans-Bold-53"/>
     <use xlink:href="#DejaVuSans-Bold-75" x="72.021484"/>
     <use xlink:href="#DejaVuSans-Bold-62" x="143.212891"/>
     <use xlink:href="#DejaVuSans-Bold-6a" x="214.794922"/>
     <use xlink:href="#DejaVuSans-Bold-65" x="249.072266"/>
     <use xlink:href="#DejaVuSans-Bold-63" x="316.894531"/>
     <use xlink:href="#DejaVuSans-Bold-74" x="376.171875"/>
     <use xlink:href="#DejaVuSans-Bold-20" x="423.974609"/>
     <use xlink:href="#DejaVuSans-Bold-35" x="458.789062"/>
     <use xlink:href="#DejaVuSans-Bold-5f" x="528.369141"/>
     <use xlink:href="#DejaVuSans-Bold-4c" x="578.369141"/>
     <use xlink:href="#DejaVuSans-Bold-52" x="642.089844"/>
    </g>
   </g>
   <g id="text_75">
    <!-- Subject 1_RL -->
    <g transform="translate(858.478062 310.248455) scale(0.08 -0.08)">
     <use xlink:href="#DejaVuSans-Bold-53"/>
     <use xlink:href="#DejaVuSans-Bold-75" x="72.021484"/>
     <use xlink:href="#DejaVuSans-Bold-62" x="143.212891"/>
     <use xlink:href="#DejaVuSans-Bold-6a" x="214.794922"/>
     <use xlink:href="#DejaVuSans-Bold-65" x="249.072266"/>
     <use xlink:href="#DejaVuSans-Bold-63" x="316.894531"/>
     <use xlink:href="#DejaVuSans-Bold-74" x="376.171875"/>
     <use xlink:href="#DejaVuSans-Bold-20" x="423.974609"/>
     <use xlink:href="#DejaVuSans-Bold-31" x="458.789062"/>
     <use xlink:href="#DejaVuSans-Bold-5f" x="528.369141"/>
     <use xlink:href="#DejaVuSans-Bold-52" x="578.369141"/>
     <use xlink:href="#DejaVuSans-Bold-4c" x="655.371094"/>
    </g>
   </g>
   <g id="text_76">
    <!-- Subject 2_RL -->
    <g transform="translate(707.997918 228.738982) scale(0.08 -0.08)">
     <use xlink:href="#DejaVuSans-Bold-53"/>
     <use xlink:href="#DejaVuSans-Bold-75" x="72.021484"/>
     <use xlink:href="#DejaVuSans-Bold-62" x="143.212891"/>
     <use xlink:href="#DejaVuSans-Bold-6a" x="214.794922"/>
     <use xlink:href="#DejaVuSans-Bold-65" x="249.072266"/>
     <use xlink:href="#DejaVuSans-Bold-63" x="316.894531"/>
     <use xlink:href="#DejaVuSans-Bold-74" x="376.171875"/>
     <use xlink:href="#DejaVuSans-Bold-20" x="423.974609"/>
     <use xlink:href="#DejaVuSans-Bold-32" x="458.789062"/>
     <use xlink:href="#DejaVuSans-Bold-5f" x="528.369141"/>
     <use xlink:href="#DejaVuSans-Bold-52" x="578.369141"/>
     <use xlink:href="#DejaVuSans-Bold-4c" x="655.371094"/>
    </g>
   </g>
   <g id="text_77">
    <!-- Subject 3_RL -->
    <g transform="translate(718.76659 350.236038) scale(0.08 -0.08)">
     <use xlink:href="#DejaVuSans-Bold-53"/>
     <use xlink:href="#DejaVuSans-Bold-75" x="72.021484"/>
     <use xlink:href="#DejaVuSans-Bold-62" x="143.212891"/>
     <use xlink:href="#DejaVuSans-Bold-6a" x="214.794922"/>
     <use xlink:href="#DejaVuSans-Bold-65" x="249.072266"/>
     <use xlink:href="#DejaVuSans-Bold-63" x="316.894531"/>
     <use xlink:href="#DejaVuSans-Bold-74" x="376.171875"/>
     <use xlink:href="#DejaVuSans-Bold-20" x="423.974609"/>
     <use xlink:href="#DejaVuSans-Bold-33" x="458.789062"/>
     <use xlink:href="#DejaVuSans-Bold-5f" x="528.369141"/>
     <use xlink:href="#DejaVuSans-Bold-52" x="578.369141"/>
     <use xlink:href="#DejaVuSans-Bold-4c" x="655.371094"/>
    </g>
   </g>
   <g id="text_78">
    <!-- Subject 4_RL -->
    <g transform="translate(608.125343 311.995875) scale(0.08 -0.08)">
     <use xlink:href="#DejaVuSans-Bold-53"/>
     <use xlink:href="#DejaVuSans-Bold-75" x="72.021484"/>
     <use xlink:href="#DejaVuSans-Bold-62" x="143.212891"/>
     <use xlink:href="#DejaVuSans-Bold-6a" x="214.794922"/>
     <use xlink:href="#DejaVuSans-Bold-65" x="249.072266"/>
     <use xlink:href="#DejaVuSans-Bold-63" x="316.894531"/>
     <use xlink:href="#DejaVuSans-Bold-74" x="376.171875"/>
     <use xlink:href="#DejaVuSans-Bold-20" x="423.974609"/>
     <use xlink:href="#DejaVuSans-Bold-34" x="458.789062"/>
     <use xlink:href="#DejaVuSans-Bold-5f" x="528.369141"/>
     <use xlink:href="#DejaVuSans-Bold-52" x="578.369141"/>
     <use xlink:href="#DejaVuSans-Bold-4c" x="655.371094"/>
    </g>
   </g>
   <g id="text_79">
    <!-- Subject 5_RL -->
    <g transform="translate(738.554152 202.242979) scale(0.08 -0.08)">
     <use xlink:href="#DejaVuSans-Bold-53"/>
     <use xlink:href="#DejaVuSans-Bold-75" x="72.021484"/>
     <use xlink:href="#DejaVuSans-Bold-62" x="143.212891"/>
     <use xlink:href="#DejaVuSans-Bold-6a" x="214.794922"/>
     <use xlink:href="#DejaVuSans-Bold-65" x="249.072266"/>
     <use xlink:href="#DejaVuSans-Bold-63" x="316.894531"/>
     <use xlink:href="#DejaVuSans-Bold-74" x="376.171875"/>
     <use xlink:href="#DejaVuSans-Bold-20" x="423.974609"/>
     <use xlink:href="#DejaVuSans-Bold-35" x="458.789062"/>
     <use xlink:href="#DejaVuSans-Bold-5f" x="528.369141"/>
     <use xlink:href="#DejaVuSans-Bold-52" x="578.369141"/>
     <use xlink:href="#DejaVuSans-Bold-4c" x="655.371094"/>
    </g>
   </g>
   <g id="text_80">
    <g id="patch_11">
     <path d="M 518.652878 156.505884 
L 628.574753 156.505884 
Q 638.174753 156.505884 638.174753 146.905884 
L 638.174753 81.542634 
Q 638.174753 71.942634 628.574753 71.942634 
L 518.652878 71.942634 
Q 509.052878 71.942634 509.052878 81.542634 
L 509.052878 146.905884 
Q 509.052878 156.505884 518.652878 156.505884 
z
" style="fill: #d2f8d2; stroke: #000000; stroke-linejoin: miter"/>
    </g>
    <!-- Subject 1: 51.05% -->
    <g transform="translate(518.652878 90.660759) scale(0.12 -0.12)">
     <use xlink:href="#DejaVuSans-53"/>
     <use xlink:href="#DejaVuSans-75" x="63.476562"/>
     <use xlink:href="#DejaVuSans-62" x="126.855469"/>
     <use xlink:href="#DejaVuSans-6a" x="190.332031"/>
     <use xlink:href="#DejaVuSans-65" x="218.115234"/>
     <use xlink:href="#DejaVuSans-63" x="279.638672"/>
     <use xlink:href="#DejaVuSans-74" x="334.619141"/>
     <use xlink:href="#DejaVuSans-20" x="373.828125"/>
     <use xlink:href="#DejaVuSans-31" x="405.615234"/>
     <use xlink:href="#DejaVuSans-3a" x="469.238281"/>
     <use xlink:href="#DejaVuSans-20" x="502.929688"/>
     <use xlink:href="#DejaVuSans-35" x="534.716797"/>
     <use xlink:href="#DejaVuSans-31" x="598.339844"/>
     <use xlink:href="#DejaVuSans-2e" x="661.962891"/>
     <use xlink:href="#DejaVuSans-30" x="693.75"/>
     <use xlink:href="#DejaVuSans-35" x="757.373047"/>
     <use xlink:href="#DejaVuSans-25" x="820.996094"/>
    </g>
    <!-- Subject 2: 30.43% -->
    <g transform="translate(518.652878 104.098134) scale(0.12 -0.12)">
     <use xlink:href="#DejaVuSans-53"/>
     <use xlink:href="#DejaVuSans-75" x="63.476562"/>
     <use xlink:href="#DejaVuSans-62" x="126.855469"/>
     <use xlink:href="#DejaVuSans-6a" x="190.332031"/>
     <use xlink:href="#DejaVuSans-65" x="218.115234"/>
     <use xlink:href="#DejaVuSans-63" x="279.638672"/>
     <use xlink:href="#DejaVuSans-74" x="334.619141"/>
     <use xlink:href="#DejaVuSans-20" x="373.828125"/>
     <use xlink:href="#DejaVuSans-32" x="405.615234"/>
     <use xlink:href="#DejaVuSans-3a" x="469.238281"/>
     <use xlink:href="#DejaVuSans-20" x="502.929688"/>
     <use xlink:href="#DejaVuSans-33" x="534.716797"/>
     <use xlink:href="#DejaVuSans-30" x="598.339844"/>
     <use xlink:href="#DejaVuSans-2e" x="661.962891"/>
     <use xlink:href="#DejaVuSans-34" x="693.75"/>
     <use xlink:href="#DejaVuSans-33" x="757.373047"/>
     <use xlink:href="#DejaVuSans-25" x="820.996094"/>
    </g>
    <!-- Subject 3: 57.08% -->
    <g transform="translate(518.652878 117.535509) scale(0.12 -0.12)">
     <use xlink:href="#DejaVuSans-53"/>
     <use xlink:href="#DejaVuSans-75" x="63.476562"/>
     <use xlink:href="#DejaVuSans-62" x="126.855469"/>
     <use xlink:href="#DejaVuSans-6a" x="190.332031"/>
     <use xlink:href="#DejaVuSans-65" x="218.115234"/>
     <use xlink:href="#DejaVuSans-63" x="279.638672"/>
     <use xlink:href="#DejaVuSans-74" x="334.619141"/>
     <use xlink:href="#DejaVuSans-20" x="373.828125"/>
     <use xlink:href="#DejaVuSans-33" x="405.615234"/>
     <use xlink:href="#DejaVuSans-3a" x="469.238281"/>
     <use xlink:href="#DejaVuSans-20" x="502.929688"/>
     <use xlink:href="#DejaVuSans-35" x="534.716797"/>
     <use xlink:href="#DejaVuSans-37" x="598.339844"/>
     <use xlink:href="#DejaVuSans-2e" x="661.962891"/>
     <use xlink:href="#DejaVuSans-30" x="693.75"/>
     <use xlink:href="#DejaVuSans-38" x="757.373047"/>
     <use xlink:href="#DejaVuSans-25" x="820.996094"/>
    </g>
    <!-- Subject 4: 52.1% -->
    <g transform="translate(518.652878 130.972884) scale(0.12 -0.12)">
     <use xlink:href="#DejaVuSans-53"/>
     <use xlink:href="#DejaVuSans-75" x="63.476562"/>
     <use xlink:href="#DejaVuSans-62" x="126.855469"/>
     <use xlink:href="#DejaVuSans-6a" x="190.332031"/>
     <use xlink:href="#DejaVuSans-65" x="218.115234"/>
     <use xlink:href="#DejaVuSans-63" x="279.638672"/>
     <use xlink:href="#DejaVuSans-74" x="334.619141"/>
     <use xlink:href="#DejaVuSans-20" x="373.828125"/>
     <use xlink:href="#DejaVuSans-34" x="405.615234"/>
     <use xlink:href="#DejaVuSans-3a" x="469.238281"/>
     <use xlink:href="#DejaVuSans-20" x="502.929688"/>
     <use xlink:href="#DejaVuSans-35" x="534.716797"/>
     <use xlink:href="#DejaVuSans-32" x="598.339844"/>
     <use xlink:href="#DejaVuSans-2e" x="661.962891"/>
     <use xlink:href="#DejaVuSans-31" x="693.75"/>
     <use xlink:href="#DejaVuSans-25" x="757.373047"/>
    </g>
    <!-- Subject 5: 46.65% -->
    <g transform="translate(518.652878 144.410259) scale(0.12 -0.12)">
     <use xlink:href="#DejaVuSans-53"/>
     <use xlink:href="#DejaVuSans-75" x="63.476562"/>
     <use xlink:href="#DejaVuSans-62" x="126.855469"/>
     <use xlink:href="#DejaVuSans-6a" x="190.332031"/>
     <use xlink:href="#DejaVuSans-65" x="218.115234"/>
     <use xlink:href="#DejaVuSans-63" x="279.638672"/>
     <use xlink:href="#DejaVuSans-74" x="334.619141"/>
     <use xlink:href="#DejaVuSans-20" x="373.828125"/>
     <use xlink:href="#DejaVuSans-35" x="405.615234"/>
     <use xlink:href="#DejaVuSans-3a" x="469.238281"/>
     <use xlink:href="#DejaVuSans-20" x="502.929688"/>
     <use xlink:href="#DejaVuSans-34" x="534.716797"/>
     <use xlink:href="#DejaVuSans-36" x="598.339844"/>
     <use xlink:href="#DejaVuSans-2e" x="661.962891"/>
     <use xlink:href="#DejaVuSans-36" x="693.75"/>
     <use xlink:href="#DejaVuSans-35" x="757.373047"/>
     <use xlink:href="#DejaVuSans-25" x="820.996094"/>
    </g>
   </g>
   <g id="text_81">
    <!-- Alpha Z Divergence -->
    <g transform="translate(657.119853 66.790244) scale(0.13 -0.13)">
     <defs>
      <path id="DejaVuSans-Bold-6c" d="M 538 4863 
L 1656 4863 
L 1656 0 
L 538 0 
L 538 4863 
z
" transform="scale(0.015625)"/>
      <path id="DejaVuSans-Bold-70" d="M 1656 506 
L 1656 -1331 
L 538 -1331 
L 538 3500 
L 1656 3500 
L 1656 2988 
Q 1888 3294 2169 3439 
Q 2450 3584 2816 3584 
Q 3463 3584 3878 3070 
Q 4294 2556 4294 1747 
Q 4294 938 3878 423 
Q 3463 -91 2816 -91 
Q 2450 -91 2169 54 
Q 1888 200 1656 506 
z
M 2400 2772 
Q 2041 2772 1848 2508 
Q 1656 2244 1656 1747 
Q 1656 1250 1848 986 
Q 2041 722 2400 722 
Q 2759 722 2948 984 
Q 3138 1247 3138 1747 
Q 3138 2247 2948 2509 
Q 2759 2772 2400 2772 
z
" transform="scale(0.015625)"/>
      <path id="DejaVuSans-Bold-68" d="M 4056 2131 
L 4056 0 
L 2931 0 
L 2931 347 
L 2931 1625 
Q 2931 2084 2911 2256 
Q 2891 2428 2841 2509 
Q 2775 2619 2662 2680 
Q 2550 2741 2406 2741 
Q 2056 2741 1856 2470 
Q 1656 2200 1656 1722 
L 1656 0 
L 538 0 
L 538 4863 
L 1656 4863 
L 1656 2988 
Q 1909 3294 2193 3439 
Q 2478 3584 2822 3584 
Q 3428 3584 3742 3212 
Q 4056 2841 4056 2131 
z
" transform="scale(0.015625)"/>
      <path id="DejaVuSans-Bold-5a" d="M 359 4666 
L 4281 4666 
L 4281 3938 
L 1778 909 
L 4353 909 
L 4353 0 
L 288 0 
L 288 728 
L 2791 3756 
L 359 3756 
L 359 4666 
z
" transform="scale(0.015625)"/>
      <path id="DejaVuSans-Bold-76" d="M 97 3500 
L 1216 3500 
L 2088 1081 
L 2956 3500 
L 4078 3500 
L 2700 0 
L 1472 0 
L 97 3500 
z
" transform="scale(0.015625)"/>
      <path id="DejaVuSans-Bold-72" d="M 3138 2547 
Q 2991 2616 2845 2648 
Q 2700 2681 2553 2681 
Q 2122 2681 1889 2404 
Q 1656 2128 1656 1613 
L 1656 0 
L 538 0 
L 538 3500 
L 1656 3500 
L 1656 2925 
Q 1872 3269 2151 3426 
Q 2431 3584 2822 3584 
Q 2878 3584 2943 3579 
Q 3009 3575 3134 3559 
L 3138 2547 
z
" transform="scale(0.015625)"/>
      <path id="DejaVuSans-Bold-67" d="M 2919 594 
Q 2688 288 2409 144 
Q 2131 0 1766 0 
Q 1125 0 706 504 
Q 288 1009 288 1791 
Q 288 2575 706 3076 
Q 1125 3578 1766 3578 
Q 2131 3578 2409 3434 
Q 2688 3291 2919 2981 
L 2919 3500 
L 4044 3500 
L 4044 353 
Q 4044 -491 3511 -936 
Q 2978 -1381 1966 -1381 
Q 1638 -1381 1331 -1331 
Q 1025 -1281 716 -1178 
L 716 -306 
Q 1009 -475 1290 -558 
Q 1572 -641 1856 -641 
Q 2406 -641 2662 -400 
Q 2919 -159 2919 353 
L 2919 594 
z
M 2181 2772 
Q 1834 2772 1640 2515 
Q 1447 2259 1447 1791 
Q 1447 1309 1634 1061 
Q 1822 813 2181 813 
Q 2531 813 2725 1069 
Q 2919 1325 2919 1791 
Q 2919 2259 2725 2515 
Q 2531 2772 2181 2772 
z
" transform="scale(0.015625)"/>
     </defs>
     <use xlink:href="#DejaVuSans-Bold-41"/>
     <use xlink:href="#DejaVuSans-Bold-6c" x="77.392578"/>
     <use xlink:href="#DejaVuSans-Bold-70" x="111.669922"/>
     <use xlink:href="#DejaVuSans-Bold-68" x="183.251953"/>
     <use xlink:href="#DejaVuSans-Bold-61" x="254.443359"/>
     <use xlink:href="#DejaVuSans-Bold-20" x="321.923828"/>
     <use xlink:href="#DejaVuSans-Bold-5a" x="356.738281"/>
     <use xlink:href="#DejaVuSans-Bold-20" x="429.248047"/>
     <use xlink:href="#DejaVuSans-Bold-44" x="464.0625"/>
     <use xlink:href="#DejaVuSans-Bold-69" x="547.070312"/>
     <use xlink:href="#DejaVuSans-Bold-76" x="581.347656"/>
     <use xlink:href="#DejaVuSans-Bold-65" x="646.533203"/>
     <use xlink:href="#DejaVuSans-Bold-72" x="714.355469"/>
     <use xlink:href="#DejaVuSans-Bold-67" x="763.671875"/>
     <use xlink:href="#DejaVuSans-Bold-65" x="835.253906"/>
     <use xlink:href="#DejaVuSans-Bold-6e" x="903.076172"/>
     <use xlink:href="#DejaVuSans-Bold-63" x="974.267578"/>
     <use xlink:href="#DejaVuSans-Bold-65" x="1033.544922"/>
    </g>
   </g>
   <g id="Path3DCollection_12">
    <g clip-path="url(#p27e5763c1b)">
     <use xlink:href="#mae377305de" x="730.240782" y="297.254282" style="fill: #ff0000; stroke: #ff0000"/>
    </g>
   </g>
   <g id="Path3DCollection_13">
    <g clip-path="url(#p27e5763c1b)">
     <use xlink:href="#m3ff414ca40" x="718.76659" y="350.236038" style="fill: #0000ff; stroke: #0000ff"/>
    </g>
   </g>
   <g id="Path3DCollection_14">
    <g clip-path="url(#p27e5763c1b)">
     <use xlink:href="#mae377305de" x="670.999762" y="200.233381" style="fill: #ff0000; stroke: #ff0000"/>
    </g>
   </g>
   <g id="Path3DCollection_15">
    <g clip-path="url(#p27e5763c1b)">
     <use xlink:href="#m3ff414ca40" x="608.125343" y="311.995875" style="fill: #0000ff; stroke: #0000ff"/>
    </g>
   </g>
   <g id="Path3DCollection_16">
    <g clip-path="url(#p27e5763c1b)">
     <use xlink:href="#m3ff414ca40" x="858.478062" y="310.248455" style="fill: #0000ff; stroke: #0000ff"/>
    </g>
   </g>
   <g id="Path3DCollection_17">
    <g clip-path="url(#p27e5763c1b)">
     <use xlink:href="#mae377305de" x="674.452668" y="324.445797" style="fill: #ff0000; stroke: #ff0000"/>
    </g>
   </g>
   <g id="Path3DCollection_18">
    <g clip-path="url(#p27e5763c1b)">
     <use xlink:href="#mae377305de" x="839.803007" y="268.789299" style="fill: #ff0000; stroke: #ff0000"/>
    </g>
   </g>
   <g id="Path3DCollection_19">
    <g clip-path="url(#p27e5763c1b)">
     <use xlink:href="#m3ff414ca40" x="707.997918" y="228.738982" style="fill: #0000ff; stroke: #0000ff"/>
    </g>
   </g>
   <g id="Path3DCollection_20">
    <g clip-path="url(#p27e5763c1b)">
     <use xlink:href="#mae377305de" x="746.140569" y="331.529433" style="fill: #ff0000; stroke: #ff0000"/>
    </g>
   </g>
  </g>
 </g>
 <defs>
  <clipPath id="p23041a9bc1">
   <rect x="50.4" y="72.790244" width="437.619512" height="437.619512"/>
  </clipPath>
  <clipPath id="p27e5763c1b">
   <rect x="509.900488" y="72.790244" width="437.619512" height="437.619512"/>
  </clipPath>
 </defs>
</svg>
